<svg width="16" height="16" viewBox="0 0 16 16" fill="none" xmlns="http://www.w3.org/2000/svg">
<path fill-rule="evenodd" clip-rule="evenodd" d="M9.99182 1.14553C9.99182 0.842183 10.1746 0.568706 10.4548 0.45262C10.7351 0.336534 11.0577 0.400701 11.2722 0.6152L14.0139 3.35694C14.3068 3.64983 14.3068 4.12471 14.0139 4.4176L11.2722 7.15934C11.0577 7.37384 10.7351 7.438 10.4548 7.32192C10.1746 7.20583 9.99182 6.93236 9.99182 6.62901V4.88716H8.00008C5.52392 4.88716 3.5166 6.89448 3.5166 9.37064C3.5166 11.8468 5.52392 13.8541 8.00008 13.8541C10.4762 13.8541 12.4836 11.8468 12.4836 9.37064C12.4836 8.81835 12.9313 8.37064 13.4836 8.37064C14.0358 8.37064 14.4836 8.81835 14.4836 9.37064C14.4836 12.9514 11.5808 15.8541 8.00008 15.8541C4.41935 15.8541 1.5166 12.9514 1.5166 9.37064C1.5166 5.78991 4.41935 2.88716 8.00008 2.88716H9.99182V1.14553Z" fill="white"/>
</svg>
