<svg width="17" height="16" viewBox="0 0 17 16" fill="none" xmlns="http://www.w3.org/2000/svg">
<path fill-rule="evenodd" clip-rule="evenodd" d="M6.39593 0.428711C5.29136 0.428711 4.39593 1.32414 4.39593 2.42871V5.59424C4.39593 6.08099 4.14809 6.53425 3.73831 6.79693L2.81986 7.38567C2.57399 7.54328 2.42529 7.81523 2.42529 8.10728C2.42529 8.39933 2.57399 8.67128 2.81986 8.82889L3.73831 9.41764C4.14809 9.68032 4.39593 10.1336 4.39593 10.6203V13.7859C4.39593 14.8904 5.29136 15.7859 6.39593 15.7859H6.83693C7.31032 15.7859 7.69408 15.4021 7.69408 14.9287C7.69408 14.4553 7.31032 14.0716 6.83693 14.0716H6.39593C6.23813 14.0716 6.11021 13.9436 6.11021 13.7859V10.6203C6.11021 9.6275 5.64153 8.69802 4.85476 8.10728C5.64153 7.51655 6.11021 6.58706 6.11021 5.59424V2.42871C6.11021 2.27092 6.23813 2.143 6.39593 2.143H6.83693C7.31032 2.143 7.69408 1.75924 7.69408 1.28585C7.69408 0.812467 7.31032 0.428711 6.83693 0.428711H6.39593ZM10.0082 0.428711C11.1128 0.428711 12.0082 1.32414 12.0082 2.42871V5.59424C12.0082 6.08099 12.2561 6.53425 12.6658 6.79693L13.5843 7.38567C13.8302 7.54328 13.9789 7.81523 13.9789 8.10728C13.9789 8.39933 13.8302 8.67128 13.5843 8.82889L12.6658 9.41764C12.2561 9.68032 12.0082 10.1336 12.0082 10.6203V13.7859C12.0082 14.8904 11.1128 15.7859 10.0082 15.7859H9.56722C9.09384 15.7859 8.71008 15.4021 8.71008 14.9287C8.71008 14.4553 9.09384 14.0716 9.56722 14.0716H10.0082C10.166 14.0716 10.2939 13.9436 10.2939 13.7859V10.6203C10.2939 9.6275 10.7626 8.69802 11.5494 8.10728C10.7626 7.51655 10.2939 6.58706 10.2939 5.59424V2.42871C10.2939 2.27092 10.166 2.143 10.0082 2.143H9.56722C9.09384 2.143 8.71008 1.75924 8.71008 1.28585C8.71008 0.812467 9.09384 0.428711 9.56722 0.428711H10.0082Z" fill="white"/>
</svg>
