<svg width="1251" height="1255" viewBox="0 0 1251 1255" fill="none" xmlns="http://www.w3.org/2000/svg">
<g clip-path="url(#clip0_16_595)">
<mask id="mask0_16_595" style="mask-type:luminance" maskUnits="userSpaceOnUse" x="5" y="12" width="1241" height="1231">
<path d="M5.33545 335.446L945.147 12.1657L1245.1 919.677L305.287 1242.96L5.33545 335.446Z" fill="white"/>
</mask>
<g mask="url(#mask0_16_595)">
<path fill-rule="evenodd" clip-rule="evenodd" d="M475.425 173.933C458.385 179.795 441.869 186.523 425.863 193.937C383.539 212.331 346.83 233.739 324.171 254.642L324.079 254.733L324.024 254.752C323.107 255.9 322.544 256.857 321.657 257.992C308.546 267.006 297.067 277.12 287.187 288.237C154.553 414.859 97.0383 606.486 154.744 785.828L154.739 786.359L154.827 786.625C155.006 787.185 155.289 787.681 155.478 788.234C155.601 788.608 155.668 788.995 155.792 789.369C184.906 877.453 238.173 950.669 306.164 1004.82C313.368 1012.97 322.883 1019.88 334.413 1025.67C424.094 1086.75 534.898 1117.01 648.835 1108.05C690.927 1104.74 733.421 1096.16 775.456 1081.7C789.739 1076.79 803.628 1071.23 817.188 1065.22C817.641 1065.01 818.128 1064.87 818.563 1064.63C833.655 1057.89 848.269 1050.52 862.414 1042.51C894.82 1025.54 923.43 1006.19 943.75 985.376C993.892 942.312 1034.66 890.439 1064.16 833.258L1064.41 832.757C1080.56 803.751 1092.55 772.979 1100.47 741.235C1125.37 653.14 1125.41 558.037 1095.09 466.279C1062.56 367.863 999.933 287.997 920.224 232.586L917.413 230.654C843.411 179.997 754.983 150.344 662.193 146.48C662.133 146.475 662.075 146.482 662.013 146.481C625.844 141.494 580.551 146.581 534.41 157.614C514.705 161.882 495.014 167.204 475.428 173.942L475.425 173.933ZM466.872 180.007C475.26 176.999 483.78 174.116 492.336 171.428C504.772 167.519 517.294 164.123 529.803 161.022C531.965 160.531 534.133 160.138 536.295 159.675C521.615 166.526 507.225 181.379 493.244 204.113C493.123 204.176 493 204.231 492.879 204.295C491.081 204.406 489.338 204.419 487.53 204.539L487.227 204.527L486.972 204.671L482.647 207.285C473.101 201.065 464.296 196.181 456.924 193.898C449.196 191.503 442.519 191.188 436.982 192.891C435.136 193.46 433.392 194.259 431.794 195.269C425.406 199.305 421.201 206.681 418.791 216.713C418.633 217.367 418.647 218.264 418.503 218.941C404.279 221.86 390.726 225.282 378.333 229.564C365.235 234.091 353.455 239.566 342.328 245.497C369.033 226.231 397.872 209.331 428.753 195.192L429.114 195.008C441.356 189.743 453.903 184.661 466.872 180.007ZM437.63 195.034C442.619 193.497 448.751 193.741 456.185 196.044C463.055 198.172 471.46 202.759 480.545 208.598C478.984 209.535 477.481 210.488 475.931 211.428C456.237 212.717 437.876 215.053 420.866 218.425C420.948 218.059 420.916 217.553 421.001 217.196C423.33 207.503 427.336 200.741 433.022 197.152C434.442 196.257 435.968 195.549 437.63 195.034ZM543.053 159.303C545.656 158.452 548.246 157.885 550.845 157.509C561.967 155.897 573.188 158.604 584.381 164.957C582.175 165.627 580.086 166.065 577.865 166.785C552.266 175.071 525.331 186.862 497.189 201.986C512.276 178.431 527.674 164.328 543.053 159.303ZM560.715 155.06C594.881 149.486 628.935 147.458 662.444 148.866C665.096 149.244 667.467 149.914 670.01 150.401C644.232 150.891 616.58 155.537 587.379 164.162C578.56 158.838 569.652 155.688 560.718 155.059L560.715 155.06ZM354.384 234.314C352.727 235.433 351.05 236.545 349.405 237.682C351.038 236.556 352.686 235.437 354.384 234.314ZM379.075 231.614C391.145 227.456 404.36 224.15 418.199 221.291C417.238 226.643 416.663 232.625 416.533 239.253C365.172 264.079 322.045 291.272 286.235 320.202C292.549 303.572 304.699 283.55 322.797 260.319C324.241 259.166 325.69 258.008 327.148 256.869C342.334 246.984 359.415 238.393 379.076 231.617L379.075 231.614ZM420.509 220.793C436.375 217.629 453.454 215.352 471.718 214L467.502 216.573C450.584 223.534 434.249 230.705 418.811 238.112C418.98 231.671 419.534 225.907 420.509 220.793ZM578.497 168.873C581.381 167.938 584.111 167.403 586.961 166.552C592.817 170.177 598.64 175.232 604.467 180.813C572.969 185.968 539.702 193.541 504.632 203.684C502.418 203.793 500.211 203.893 497.986 204.018C526.098 188.891 552.998 177.14 578.497 168.873ZM589.939 165.704C622.777 156.19 653.391 152.169 681.782 152.975C697.827 158.962 710.376 165.473 720.042 172.339C685.322 171.329 647.752 173.859 607.257 180.327C601.524 174.707 595.757 169.509 589.936 165.705L589.939 165.704ZM487.969 206.754C488.092 206.746 488.208 206.757 488.331 206.749L485.925 208.05C486.627 207.631 487.263 207.17 487.969 206.754ZM315.567 266.354C299.421 288.078 288.403 307.039 282.978 322.918C272.591 331.449 262.682 340.081 253.552 348.89C261.219 328 272.225 308.927 286.7 292.012C295.93 283.107 305.612 274.597 315.567 266.354ZM482.648 210.003C482.768 210.085 482.901 210.147 483.025 210.23C482.349 210.494 481.743 210.813 481.072 211.079L480.947 211.062L482.648 210.003ZM494.435 206.422L495.39 206.39L494.234 206.728L494.435 206.422ZM488.672 210.71L489.288 210.558C489.236 210.645 489.172 210.705 489.123 210.791L488.672 210.71ZM492.464 209.582C496.671 208.305 500.801 207.14 504.955 205.938C548.281 203.809 589.237 204.532 627.842 207.899C630.614 211.768 633.346 216.187 636.09 220.437C615.844 224.692 595.478 229.724 575.122 235.496C548.347 225.959 520.443 217.866 491.371 211.377L492.467 209.581L492.464 209.582ZM479.155 214.22C458.027 234.962 438.809 256.44 421.365 278.511C420.186 269.93 419.387 261.844 418.944 254.389C418.882 253.363 418.959 252.564 418.914 251.56C434.785 240.291 451.475 229.27 468.965 218.438C472.363 217.042 475.697 215.599 479.156 214.223L479.155 214.22ZM483.325 213.142C484.575 213.078 485.718 212.943 486.981 212.888L487.535 213.29C487.309 213.696 487.101 213.991 486.876 214.403L486.824 214.421L486.787 214.493C479.056 232.112 472.901 251.614 467.908 272.376C452.896 278.442 438.127 284.837 423.596 291.463C423.039 288.135 422.323 284.662 421.862 281.475C440.304 257.992 460.701 235.114 483.322 213.143L483.325 213.142ZM514.252 203.213C546.553 194.2 577.247 187.448 606.435 182.738C608.776 185.068 611.138 186.975 613.471 189.603C617.667 194.332 621.81 199.834 625.955 205.473C590.665 202.482 553.445 201.651 514.252 203.213ZM455.936 223.746C443.094 231.949 430.841 240.336 418.902 248.786C418.807 245.939 418.817 243.233 418.847 240.586C430.786 234.842 443.103 229.23 455.936 223.746ZM489.449 214.524C490.545 215.317 491.425 215.749 492.547 216.593L492.637 216.679C501.669 228.229 510.666 240.462 519.605 252.997C515.936 254.265 512.259 255.47 508.605 256.781C497.522 260.751 486.469 264.9 475.55 269.214C473.888 269.871 472.276 270.602 470.619 271.267C475.505 251.274 481.406 232.423 488.848 215.44C489.041 215.09 489.261 214.869 489.452 214.523L489.449 214.524ZM492.624 213.905C519.874 220.058 546.093 227.718 571.311 236.57C554.75 241.339 538.234 246.595 521.824 252.233C512.719 239.447 503.588 226.966 494.377 215.194L494.29 215.107L494.182 214.965C493.616 214.538 493.183 214.318 492.624 213.905ZM679.077 149.884C684.584 150.302 690.072 150.72 695.539 151.319C691.259 150.961 686.841 150.926 682.455 150.795L681.342 150.348L681.269 150.313C680.579 150.125 679.777 150.063 679.077 149.884ZM416.515 241.741C416.498 244.573 416.48 247.361 416.601 250.404C364.511 287.505 320.966 326.835 285.315 367.413C282.273 361.864 280.522 355.493 280.478 348.026C280.434 341.008 282.007 332.992 285.003 324.117C320.929 294.703 364.453 266.986 416.515 241.741ZM688.448 153.228C721.952 155.088 752.334 163.637 779.544 177.832C761.957 174.99 743.468 173.137 724.116 172.416C715.106 165.568 703.244 159.177 688.451 153.227L688.448 153.228ZM609.226 182.251C650.255 175.793 688.214 173.418 723.231 174.674C734.619 183.47 741.406 192.796 744.057 202.459C744.366 203.58 744.437 204.732 744.641 205.863C743.53 205.921 742.459 205.873 741.346 205.934C721.818 207.006 701.8 209.176 681.515 212.205C664.56 209.521 647.088 207.337 629.12 205.747C624.52 199.387 619.885 193.387 615.211 188.119C613.232 185.888 611.221 184.275 609.229 182.25L609.226 182.251ZM416.634 253.231C416.659 253.718 416.629 254.094 416.656 254.583C417.139 262.677 418.177 271.552 419.509 280.921C414.541 287.267 409.709 293.66 405.031 300.095C363.768 319.859 325.186 341.58 291.07 364.19C325.517 325.762 367.254 288.52 416.64 253.229L416.634 253.231ZM708.778 153.035C714.267 153.786 719.738 154.62 725.18 155.552C774.63 164.026 822.067 179.886 865.81 202.441C841.764 192.085 815.3 184.257 786.533 179.093C767.586 168.474 747.242 160.298 725.176 155.55C719.867 154.408 714.27 153.804 708.777 153.032L708.778 153.035ZM274.518 304.246C264.484 318.49 256.333 333.875 250.461 350.486C250.21 351.196 250.04 351.949 249.795 352.667C211.278 390.71 184.036 431.101 166.775 472.59C190.679 410.513 227.25 353.083 274.522 304.25L274.518 304.246ZM281.725 326.781C279.407 334.523 278.173 341.685 278.212 348.096C278.26 356.176 280.178 363.196 283.628 369.235C271.061 377.781 258.926 386.4 247.775 395.112C245.557 396.843 243.572 398.579 241.413 400.315C243.386 384.081 246.821 368.53 251.804 353.808C261.099 344.65 271.075 335.646 281.725 326.781ZM727.12 174.755C747.74 175.654 767.224 177.916 785.798 181.241C788.922 182.999 792.151 184.559 795.189 186.466C805.578 192.989 815.388 200.474 824.777 208.636C800.109 205.49 774.043 204.565 746.97 205.772C746.748 204.457 746.625 203.121 746.265 201.816C743.654 192.3 737.4 183.245 727.123 174.754L727.12 174.755ZM631.026 208.223C645.879 209.58 660.496 211.219 674.644 213.326C662.679 215.224 650.635 217.446 638.525 219.953C636.014 216.048 633.564 211.819 631.026 208.223ZM420.003 283.887C420.416 286.643 420.966 289.583 421.443 292.44C417.407 294.289 413.323 296.075 409.332 297.965C412.811 293.24 416.366 288.56 420.003 283.887ZM509.31 258.904C513.177 257.517 517.074 256.236 520.957 254.897C540.982 283.104 560.674 313.484 579.886 345.562C561.638 353.048 542.828 360.003 523.873 366.129C500.944 373.544 477.956 379.66 455.622 384.523C457.264 344.839 461.924 307.579 469.892 273.996C472.063 273.123 474.181 272.161 476.361 271.297C487.256 266.991 498.249 262.863 509.309 258.901L509.31 258.904ZM523.18 254.133C540.356 248.243 557.659 242.777 574.994 237.845C607.821 249.578 638.743 263.59 668.034 279.289C670.629 284.871 673.228 290.446 675.773 296.317C649.067 313.757 616.887 330.346 582.088 344.745C562.9 312.693 543.189 282.351 523.18 254.133ZM467.182 275.107C459.365 308.602 454.851 345.672 453.258 385.036C450.875 385.547 448.5 386.007 446.134 386.484C436.188 352.117 428.573 320.818 423.936 293.768C438.122 287.286 452.532 281.052 467.182 275.107ZM578.821 236.825C598.401 231.342 617.967 226.529 637.425 222.46C647.346 238.063 657.04 255.999 666.459 275.985C638.754 261.296 609.66 248.005 578.821 236.825ZM421.792 294.742C426.446 321.745 433.963 352.882 443.833 386.982C408.993 393.857 376.627 396.938 349.919 395.278C365.624 363.445 384.509 332.216 406.484 301.901C411.551 299.476 416.653 297.103 421.795 294.741L421.792 294.742ZM639.863 221.978C653.846 219.096 667.763 216.503 681.537 214.443C702.774 217.811 723.171 221.988 742.808 226.954C739.132 237.996 731.595 249.344 720.661 260.709C711.853 269.868 700.742 279.004 688.215 287.956C682.151 284.45 676.023 281.022 669.796 277.676C660.111 256.886 650.13 238.2 639.862 221.975L639.863 221.978ZM402.123 304.054C380.973 333.631 362.805 364.087 347.563 395.083C336.146 394.235 325.507 392.772 316.621 389.997C305.296 386.459 296.288 381.313 290.106 374.4C288.827 372.966 287.759 371.41 286.724 369.826C321.029 346.649 360.143 324.376 402.123 304.054ZM248.355 357.241C243.809 371.61 240.692 386.711 238.911 402.416C206.681 428.67 181.346 455.195 166.093 480.568C166.91 478.461 167.606 476.351 168.473 474.251C185.129 433.853 211.39 394.459 248.357 357.237L248.355 357.241ZM688.754 213.44C706.579 210.957 724.166 209.115 741.373 208.17C742.61 208.104 743.796 208.157 745.028 208.096C745.679 213.6 745.164 219.17 743.516 224.878C725.903 220.418 707.645 216.625 688.754 213.44ZM792.832 182.606C833.408 190.623 869.171 204.139 900.087 222.348C905.91 225.777 911.554 229.386 917.047 233.13C922.001 236.51 926.76 240.042 931.448 243.668C902.205 225.524 867.296 214.388 828.719 209.05C818.532 199.976 807.817 191.708 796.428 184.558C795.27 183.83 793.997 183.309 792.828 182.604L792.832 182.606ZM747.348 208.007C775.373 206.776 802.335 207.717 827.683 211.185C849.005 230.284 867.676 253.459 883.718 279.78C843.169 257.161 797.183 238.661 745.691 225.429C747.388 219.54 747.998 213.742 747.35 208.003L747.348 208.007ZM284.908 371.277C285.97 372.893 287.078 374.483 288.381 375.94C294.905 383.233 304.285 388.523 315.879 392.145C324.759 394.919 335.267 396.445 346.498 397.342C317.814 456.247 299.743 516.933 290.263 576.947C288.391 578.307 286.377 579.615 284.536 580.986C279.674 584.605 275.283 588.351 270.633 592.036C250.019 535.97 238.558 480.687 239.318 430.488C252.737 410.534 267.94 390.777 284.913 371.282L284.908 371.277ZM278.156 375.672C264.012 392.33 251.101 409.167 239.516 426.159C239.743 418.47 240.264 410.932 241.08 403.505C243.795 401.3 246.331 399.087 249.147 396.885C258.267 389.761 268.064 382.698 278.156 375.672ZM744.987 227.507C797.78 241.051 844.767 260.156 885.988 283.554C903.449 312.989 917.472 346.351 928.463 382.125C924.527 381.883 920.815 381.444 916.783 381.292C886.269 380.14 852.909 381.756 818.025 385.341C780.596 349.521 737.961 316.996 690.259 289.202C702.554 280.349 713.55 271.312 722.303 262.21C733.407 250.67 741.173 239 744.983 227.505L744.987 227.507ZM238.564 405.553C237.753 413.531 237.204 421.58 237.058 429.843C203.912 479.298 181.343 529.871 168.143 579.86C157.949 566.42 152.184 550.038 151.789 530.193C151.812 529.046 152.165 527.827 152.251 526.665C154.411 516.644 157.092 506.632 160.322 496.686C173.31 467.831 200.876 436.533 238.563 405.55L238.564 405.553ZM831.622 211.602C878.738 218.574 920.085 234.415 951.975 261.212C965.919 284.322 967.949 308.304 960.565 332.648C938.713 314.225 914.495 297.261 887.862 282.083C871.833 255.12 853.096 231.306 831.622 211.602ZM671.379 280.976C676.419 283.712 681.354 286.547 686.285 289.389C683.566 291.302 680.586 293.163 677.723 295.056C675.626 290.233 673.506 285.61 671.379 280.976ZM237.084 433.915C236.849 483.776 248.326 538.306 268.737 593.574C257.795 602.324 247.436 611.205 237.81 620.294C220.506 615.921 205.296 609.88 192.72 601.981C183.702 596.315 176.094 589.637 169.9 582.038C182.711 532.696 204.72 482.814 237.082 433.919L237.084 433.915ZM348.863 397.534C376.121 399.38 409.08 396.211 444.504 389.177C447.121 398.167 449.825 407.32 452.747 416.676C452.685 438.76 453.433 461.388 454.923 484.408C395.07 510.907 339.555 541.48 292.859 575.102C302.443 515.771 320.423 455.753 348.865 397.53L348.863 397.534ZM688.327 290.639C735.586 318.097 777.824 350.257 814.988 385.628C783.267 388.999 750.303 394.039 716.57 400.915C704.834 363.351 692.069 328.449 678.601 297.18C681.888 295.008 685.226 292.838 688.327 290.639ZM676.664 298.436C690.013 329.465 702.655 364.122 714.313 401.389C685.267 407.368 655.81 414.656 626.297 422.972C612.316 396.857 597.966 371.271 583.27 346.647C617.889 332.314 649.942 315.86 676.661 298.437L676.664 298.436ZM446.76 388.697L453.144 387.387C452.877 394.544 452.968 401.94 452.886 409.239C450.734 402.232 448.74 395.488 446.76 388.697ZM455.509 386.87C478.096 381.955 501.335 375.768 524.539 368.269C543.677 362.083 562.668 355.074 581.088 347.514C595.76 372.087 610.083 397.561 624.045 423.627C613.639 426.579 603.22 429.482 592.837 432.706C578.536 437.146 564.283 441.822 550.115 446.752C524.677 455.603 499.584 465.266 475.06 475.585C468.003 455.345 461.006 435.21 455.062 416.173C455.095 406.312 455.143 396.474 455.511 386.866L455.509 386.87ZM150.45 522.851C150.326 523.858 150.145 524.879 150.064 525.882C139.189 575.971 141.4 626.706 153.999 675.974C153.233 699.921 154.48 723.444 157.735 746.421C155.56 756.804 154.538 767.296 154.602 777.834C128.72 692.612 128.733 604.859 150.449 522.857L150.45 522.851ZM454.959 423.545C460.363 440.585 466.677 458.529 472.942 476.493C467.639 478.737 462.425 481.086 457.185 483.393C455.888 463.117 455.052 443.099 454.959 423.545ZM150.089 537.994C151.74 555.53 157.654 570.424 167.404 582.717C160.039 611.384 155.767 639.839 154.326 667.819C144.36 625.085 142.455 581.351 150.09 537.997L150.089 537.994ZM890.106 285.865C915.642 300.67 938.88 317.174 959.926 334.999C958.771 338.519 957.414 342.027 955.871 345.56C950.52 357.824 942.436 370.159 932.762 382.425L930.908 382.296C920.279 347.47 906.864 314.82 890.106 285.865ZM957.112 266.068C997.178 305.116 1025.2 354.275 1042.24 408.985C1039.46 407.503 1036.7 405.996 1033.74 404.636C1031.66 403.681 1029.21 402.986 1027.05 402.09C1008.57 377.945 987.02 355.185 962.451 334.244C969.674 311.136 968.437 288.152 957.111 266.065L957.112 266.068ZM965.672 271.343C1019.93 320.384 1062.82 382.753 1089.03 455.632C1080.45 436.828 1065.37 421.861 1045.07 410.436C1028.98 357.764 1002.84 310.015 965.671 271.34L965.672 271.343ZM550.809 448.939C564.951 444.018 579.181 439.293 593.459 434.861C603.983 431.594 614.552 428.621 625.1 425.633C645.842 464.458 665.345 504.621 683.963 544.943C657.692 555.87 630.655 565.99 603.329 575.166C576.187 584.278 548.77 592.391 521.575 599.443C510.499 572.214 499.922 545.111 490.075 518.56C484.895 504.594 480.506 491.371 475.751 477.776C500.268 467.46 525.375 457.792 550.807 448.943L550.809 448.939ZM627.306 424.991C656.71 416.718 686.026 409.539 714.955 403.593C718.384 414.61 721.776 425.75 725.022 437.149C732.373 462.975 739.229 489.753 745.546 516.96C726.318 526.378 706.49 535.444 686.061 543.985C667.483 503.75 647.999 463.751 627.305 424.998L627.306 424.991ZM473.639 478.679C478.394 492.258 482.773 505.456 487.948 519.408C497.766 545.881 508.272 572.905 519.307 600.05C503.403 604.139 487.648 607.707 472.002 610.998C466.498 577.702 462.022 544.374 459.119 511.593C458.351 502.941 457.871 494.407 457.303 485.844C462.742 483.446 468.137 481.013 473.641 478.685L473.639 478.679ZM169.203 584.76C175.355 592.017 182.721 598.46 191.401 603.911C203.893 611.76 218.867 617.781 235.806 622.167C205.361 651.27 181.845 681.955 168.206 713.72C163.517 701.08 159.519 688.332 156.218 675.444C157.2 645.692 161.467 615.343 169.203 584.76ZM455.099 486.829C455.656 495.157 456.103 503.424 456.849 511.835C459.758 544.68 464.22 578.076 469.733 611.419C407.118 624.448 347.352 631.019 296.989 628.558C293.335 628.379 290.032 627.891 286.482 627.62C287.738 611.223 289.75 594.745 292.343 578.178C339.049 544.313 394.871 513.527 455.099 486.829ZM717.216 403.112C751.507 396.133 784.99 391.005 817.153 387.659C835.635 405.405 852.744 423.938 868.639 443.04C834.449 468.864 793.198 493.503 747.629 515.947C741.33 488.857 734.535 462.181 727.211 436.459C723.985 425.129 720.615 414.067 717.214 403.116L717.216 403.112ZM961.705 336.516C984.931 356.39 1005.48 377.862 1023.2 400.632C998.606 391.057 968.957 385.161 935.433 382.626C944.766 370.625 952.644 358.545 957.925 346.446C959.366 343.143 960.591 339.817 961.701 336.515L961.705 336.516ZM820.195 387.379C854.245 383.956 886.814 382.422 916.614 383.545C920.949 383.71 924.934 384.168 929.156 384.435C929.355 385.098 929.607 385.734 929.805 386.4C917.258 401.62 901.845 416.721 883.776 431.506C879.613 434.912 874.945 438.25 870.527 441.621C854.97 422.923 838.227 404.784 820.198 387.378L820.195 387.379ZM289.696 580.034C287.342 595.428 285.52 610.756 284.315 626C279.743 615.402 275.338 604.821 271.407 594.251C276.219 590.426 280.793 586.538 285.837 582.781C287.082 581.854 288.439 580.955 289.696 580.034ZM269.505 595.792C273.412 606.247 277.783 616.748 282.308 627.224C267.448 625.911 253.306 623.969 240.519 620.902C249.595 612.39 259.249 604.016 269.505 595.792ZM238.375 622.822C252.047 626.187 267.286 628.206 283.26 629.558C283.457 630.008 283.626 630.451 283.823 630.901C277.644 717.519 289.643 800.799 315.546 872.908C296.283 871.577 278.447 868.849 261.905 865.046C236.177 836.367 213.61 805.612 195.586 773.195C185.381 754.845 176.635 735.977 169.349 716.818C182.835 684.26 206.901 652.724 238.378 622.821L238.375 622.822ZM933.819 384.783C969.314 387.36 1000.52 393.609 1025.79 404.002C1034.99 416.069 1043.36 428.466 1051.04 441.148C1054.05 454.447 1056.47 468.005 1058.31 481.757C1062.38 512.301 1063.28 543.816 1061.75 575.605C1048.08 594.55 1030.88 613.426 1009.9 631.938C1000.16 629.718 989.949 627.908 979.085 626.69C973.098 610.687 966.312 594.705 958.718 578.759C958.67 530.235 954.318 482.262 945.112 437.018C941.605 419.773 937.203 403.114 932.365 386.763C932.899 386.109 933.298 385.439 933.822 384.782L933.819 384.783ZM930.65 389.065C935.267 404.843 939.494 420.935 942.875 437.551C951.733 481.101 956.165 527.212 956.505 573.894C934.64 528.992 906.299 484.867 871.956 443.318C876.385 439.937 881.082 436.599 885.257 433.182C902.921 418.729 918.184 403.982 930.65 389.065ZM286.276 629.82C289.852 630.095 293.179 630.616 296.853 630.796C347.487 633.268 407.398 626.705 470.138 613.648C477.431 657.33 486.772 700.803 497.657 742.911C458.752 762.64 422.986 783.884 392.377 806.09C350.297 752.283 314.201 693.536 287.779 634.388C287.208 633.108 286.773 631.832 286.209 630.553L286.27 629.822L286.276 629.82ZM285.705 635.397C312.191 694.681 348.326 753.545 390.477 807.453C380.001 815.119 369.966 822.825 360.804 830.67C344.537 844.598 330.521 858.79 319.12 873.038L318.021 873.003C292.438 802.196 280.232 720.499 285.704 635.395L285.705 635.397ZM155.994 683.801C159.09 694.904 162.734 705.938 166.855 716.847C163.665 724.656 161.179 732.494 159.198 740.417C156.834 721.88 155.749 702.976 155.994 683.801ZM870.098 444.727C905.437 487.479 934.341 532.975 956.415 579.192C956.42 594.449 955.933 609.715 955.031 625.023C952.066 624.885 949.311 624.565 946.284 624.483C895.002 623.146 835.094 630.683 772.761 644.552C766.046 602.267 757.787 559.7 748.185 518.175C794.071 495.6 835.626 470.778 870.099 444.72L870.098 444.727ZM1029.54 405.433C1030.55 405.872 1031.73 406.193 1032.72 406.645C1036.35 408.316 1039.82 410.12 1043.17 411.979C1045.34 419.134 1047.34 426.368 1049.14 433.697C1043.09 424.088 1036.48 414.681 1029.55 405.432L1029.54 405.433ZM1046.09 413.694C1069.01 427.154 1084.81 445.23 1091.43 468.531C1095.38 485.191 1094.7 502.191 1090.18 519.342C1080.86 492.205 1068.45 465.735 1053.08 440.324C1051.04 431.324 1048.68 422.447 1046.09 413.694ZM472.376 613.232C488.182 609.905 504.101 606.252 520.167 602.116C535.022 638.579 550.945 674.883 567.148 710.671C543.89 720.498 521.368 730.926 499.685 741.86C488.866 699.953 479.633 656.689 472.377 613.234L472.376 613.232ZM746.046 519.213C755.595 560.558 763.817 602.933 770.499 645.033C758.392 647.757 746.225 650.734 733.981 653.93C719.556 618.281 703.604 582.132 686.976 546.033C707.251 537.551 726.938 528.556 746.045 519.208L746.046 519.213ZM168.001 720.061C175.146 738.505 183.704 756.636 193.536 774.316C211.145 805.984 233.121 836.049 258.053 864.182C245.094 861.007 232.763 857.345 221.854 852.506C204.48 844.803 189.992 834.859 178.68 822.652C170.048 798.204 163.751 772.693 159.997 746.406C161.877 737.546 164.574 728.79 168 720.058L168.001 720.061ZM522.46 601.564C549.594 594.514 576.953 586.38 604.031 577.29C631.424 568.091 658.54 557.95 684.879 546.994C701.451 582.971 717.321 619.009 731.708 654.542C700.18 662.838 668.383 672.454 637.025 683.503C614.055 691.593 591.453 700.504 569.278 709.822C553.118 674.133 537.283 637.931 522.459 601.571L522.46 601.564ZM158.787 753.332C162.335 775.587 167.68 797.28 174.74 818.213C167.003 808.817 161.001 798.196 157.083 786.146C157.058 786.072 157.036 786.004 157.013 785.934C157.006 785.914 157 785.897 156.995 785.88C156.989 785.863 156.977 785.845 156.977 785.826C156.283 774.934 157.013 764.092 158.786 753.329L158.787 753.332ZM1054.29 446.713C1068.67 471.322 1080.37 496.917 1089.12 523.076C1085.29 535.987 1079.37 548.989 1071.34 562.009C1069.28 565.344 1066.58 568.681 1064.27 572.011C1065.53 541.357 1064.46 510.956 1060.52 481.461C1058.95 469.691 1056.72 458.166 1054.29 446.708L1054.29 446.713ZM1094.02 470.004C1117.85 543.798 1121.92 619.712 1109.28 692.309C1114.32 648.247 1111.85 603.176 1101.62 559.051C1098.8 546.939 1095.41 534.911 1091.44 522.986C1096.64 505.149 1097.75 487.396 1094.02 470.001L1094.02 470.004ZM165.103 808.755C168.435 814.134 172.36 819.133 176.659 823.824C180.762 835.41 185.325 846.791 190.446 857.872C200.272 879.128 212.024 899.318 225.343 918.366C200.782 885.434 180.394 848.739 165.103 808.755ZM180.727 828.098C191.663 838.785 205.116 847.594 220.85 854.57C232.749 859.845 246.293 863.809 260.532 867.117C272.409 880.332 284.848 893.113 298.071 905.296C296.109 909.245 294.311 913.213 292.82 917.155C282.791 943.663 283.932 969.982 298.8 994.758C253.537 957.457 217.234 910.337 192.544 856.917C188.202 847.52 184.336 837.868 180.728 828.101L180.727 828.098ZM1090.28 527.053C1093.76 537.826 1096.87 548.654 1099.4 559.575C1111.53 611.833 1112.75 665.435 1103.36 717.052C1099.5 686.253 1082.53 663.787 1056.02 648.832C1060.27 624.642 1062.76 600.365 1063.93 576.211C1067.05 571.854 1070.5 567.518 1073.19 563.151C1080.61 551.127 1086.36 539.074 1090.28 527.054L1090.28 527.053ZM637.694 685.635C669.137 674.558 700.988 664.904 732.597 656.598C748.675 696.41 762.643 734.853 775.342 772.048C742.857 786.124 709.437 799.273 675.495 810.948C658.865 816.669 642.152 821.992 625.428 827.048C606.887 790.761 588.369 751.855 570.221 711.857C592.311 702.574 614.81 693.693 637.693 685.632L637.694 685.635ZM568.032 712.733C586.143 752.656 604.658 791.455 623.171 827.707C592.751 836.843 562.389 844.745 532.473 851.393C532.114 850.356 531.707 849.395 531.349 848.351C520.005 815.307 509.642 780.185 500.263 744.084C522.035 733.091 544.659 722.602 568.031 712.73L568.032 712.733ZM734.835 656.065C746.928 652.911 758.945 649.954 770.902 647.264C777.347 688.209 782.151 728.716 785.354 767.661L777.455 771.147C764.794 734.066 750.844 695.736 734.834 656.062L734.835 656.065ZM773.102 646.803C835.326 632.95 895.11 625.389 946.143 626.724C949.156 626.801 951.881 627.141 954.835 627.282C953.785 644.265 952.171 661.158 950.006 678.026C902.976 710.122 847.252 740.143 787.575 766.717C784.367 727.9 779.523 687.577 773.101 646.8L773.102 646.803ZM958.605 584.116C965.188 598.218 971.145 612.326 976.465 626.465C970.308 625.823 963.751 625.54 957.281 625.198C958.09 611.481 958.525 597.8 958.605 584.116ZM498.149 745.168C507.507 781.146 517.865 816.135 529.181 849.097C529.508 850.047 529.836 850.944 530.165 851.89C501.038 858.305 472.488 863.41 444.818 867.115C426.978 848.285 409.903 828.516 393.686 807.888C424.039 785.881 459.535 764.777 498.149 745.168ZM391.77 809.2C407.69 829.457 424.483 848.907 441.972 867.444C407.542 871.945 374.461 874.491 343.981 874.185C336.386 874.111 329.211 873.595 321.933 873.194C333.035 859.493 346.479 845.839 362.199 832.379C371.329 824.561 381.309 816.845 391.766 809.198L391.77 809.2ZM1061.4 579.862C1060.14 602.439 1057.78 625.093 1053.83 647.694C1041.8 641.209 1027.72 636.351 1012.29 632.649C1031.8 615.317 1048.17 597.653 1061.4 579.862ZM957.118 627.443C963.949 627.806 970.874 628.061 977.343 628.762C980.225 636.517 982.949 644.263 985.447 651.995L981.22 655.458C972.137 662.443 962.505 669.361 952.594 676.186C954.629 659.984 956.11 643.743 957.118 627.44L957.118 627.443ZM264.319 867.941C280.459 871.45 297.724 873.901 316.292 875.137C316.414 875.467 316.507 875.817 316.626 876.145C309.668 885.159 303.826 894.174 299.146 903.211C286.936 891.941 275.377 880.099 264.319 867.941ZM979.973 629.16C989.692 630.296 999.002 631.78 1007.79 633.725C1001.35 639.348 994.39 644.898 987.372 650.447C985.07 643.356 982.595 636.266 979.973 629.16ZM1010.37 634.431C1026.55 638.214 1041.15 643.338 1053.51 650.109C1045.17 696.675 1030.94 742.622 1011.88 786.128C1011.07 751.477 1005.72 715.064 995.815 677.997C993.576 669.615 990.769 661.181 988.072 652.748C995.771 646.681 1003.36 640.593 1010.38 634.43L1010.37 634.431ZM320.139 875.293C327.982 875.749 335.767 876.298 343.969 876.378C375.055 876.689 408.777 874.094 443.881 869.45C459.047 885.419 474.58 900.844 490.663 915.154C514.407 936.275 539.084 955.144 564.215 971.757C542.549 987.227 525.358 1002.99 515.149 1018.26C513.03 1021.43 511.339 1024.59 509.829 1027.72C453.163 1009.13 399.188 980.671 350.793 945.229C339.276 924.779 328.997 902.881 320.258 879.686C319.883 878.687 319.611 877.61 319.24 876.605C319.58 876.173 319.79 875.728 320.136 875.294L320.139 875.293ZM317.605 878.943C317.799 879.46 317.938 880.018 318.131 880.535C326.314 902.252 335.935 922.724 346.557 942.075C330.733 930.269 315.408 917.938 300.965 904.714C305.359 896.144 311.092 887.536 317.605 878.943ZM986.19 654.282C988.778 662.412 991.474 670.549 993.635 678.627C1003.99 717.382 1009.21 755.332 1009.58 791.293C1006.3 798.584 1003.22 805.971 999.646 813.1C988.465 835.454 975.606 856.76 961.685 877.133C950.491 866.617 933.095 860.789 911.715 858.663C909.545 858.447 907.11 858.5 904.858 858.359C914.928 834.719 923.758 810.14 931.003 784.674C940.702 750.592 947.562 715.138 952.216 679.269C962.799 672.023 972.974 664.644 982.637 657.213C983.892 656.249 984.951 655.247 986.189 654.279L986.19 654.282ZM949.683 680.916C945.033 716.036 938.271 750.766 928.776 784.141C921.485 809.761 912.611 834.497 902.466 858.239C875.363 856.883 842.81 860.656 807.945 868.341C802.754 849.452 797.036 829.892 790.499 809.353C789.989 799.231 789.462 789.098 788.692 778.694C788.456 775.526 788.113 772.238 787.856 769.046C847.219 742.652 902.664 712.831 949.683 680.916ZM299.847 906.814C315.407 921.033 331.934 934.373 349.072 946.947C371.033 985.811 397.898 1018.94 428.373 1045.03C397.218 1042.87 369.973 1037.71 348.259 1029.37C332.749 1020.21 318.051 1010 304.1 998.903C286.278 973.099 284.438 945.803 295 917.887C296.393 914.203 298.032 910.514 299.848 906.817L299.847 906.814ZM1055.61 651.279C1082 666.405 1098.5 688.748 1101.56 720.037C1089.5 772.3 1054.38 819.735 1005.41 861.385C1009.83 839.374 1012.03 816.145 1011.82 791.886C1031.97 747.02 1046.92 699.507 1055.61 651.282L1055.61 651.279ZM446.787 869.1C474.106 865.393 502.265 860.305 530.963 853.981C544.934 894.139 560.146 931.097 575.99 963.742C572.68 965.931 569.412 968.13 566.281 970.333C540.981 953.678 516.129 934.717 492.211 913.439C476.612 899.562 461.527 884.556 446.787 869.1ZM533.27 853.484C563.26 846.814 593.705 838.884 624.187 829.72C625.57 832.427 626.962 835.43 628.346 838.108C642.374 865.251 656.196 890.573 669.702 913.945C635.893 928.662 604.348 945.194 577.962 962.417C562.249 930.027 547.14 893.314 533.27 853.484ZM785.643 770.044C785.878 772.984 786.196 776.023 786.412 778.945C786.965 786.422 787.298 793.631 787.717 800.968C784.812 791.994 781.352 782.527 778.215 773.308L785.643 770.044ZM776.1 774.213C779.958 785.555 784.279 797.313 787.781 808.279C787.941 808.782 788.039 809.225 788.2 809.731C789.293 831.572 789.742 852.59 789.534 872.724C766.691 878.491 743.268 885.58 720.033 893.91C710.064 897.484 700.137 901.242 690.335 905.192C684.094 907.704 677.992 910.377 671.865 913.021C658.331 889.621 644.456 864.236 630.403 837.047C629.088 834.5 627.758 831.643 626.44 829.068C643.077 824.033 659.689 818.754 676.235 813.062C710.172 801.388 743.612 788.283 776.1 774.216L776.1 774.213ZM353.847 950.449C401.208 984.474 453.765 1011.75 508.836 1029.83C506.613 1034.9 505.242 1039.87 504.838 1044.75C490.009 1045.69 475.479 1046.34 461.666 1046.3C451.481 1046.26 441.671 1045.91 432.147 1045.33C402.178 1020.18 375.737 988.085 353.843 950.447L353.847 950.449ZM791.09 819.382C796.393 836.39 801.336 852.992 805.681 868.826C801.081 869.856 796.473 870.959 791.809 872.119C791.967 855.096 791.86 837.634 791.09 819.382ZM1100.56 731.259C1099.92 734.165 1099.2 737.064 1098.49 739.955C1089.46 772.037 1077.23 803.216 1061.83 832.928L1061.61 833.36C1041.21 869.589 1014.23 902.949 980.945 931.948C991.839 911.677 999.505 889.053 1004.66 864.954C1051.65 825.504 1086.05 780.651 1100.56 731.252L1100.56 731.259ZM720.795 896.013C743.756 887.787 766.918 880.813 789.485 875.107C788.935 917.062 785.505 954.793 778.596 985.65C762.428 991.492 746.094 996.9 729.681 1001.94C712.398 979.385 693.188 949.748 673.009 914.999C679.036 912.396 685.012 909.751 691.153 907.279C700.928 903.342 710.853 899.578 720.796 896.016L720.795 896.013ZM1009.49 797.062C1009.38 820.363 1007.03 842.667 1002.58 863.778C992.377 872.316 981.703 880.662 970.39 888.688C968.521 885.079 966.053 881.888 963.255 878.962C977.392 858.338 990.404 836.742 1001.73 814.103C1004.52 808.529 1006.88 802.734 1009.49 797.062ZM670.893 915.901C690.942 950.463 710.065 980.027 727.387 1002.68C723.936 1003.73 720.497 1004.86 717.041 1005.88C699.13 1011.15 681.19 1015.76 663.319 1020.04C638.434 1011.14 613.592 999.164 589.081 984.729C585.676 978.293 582.313 971.363 578.956 964.497C605.323 947.268 636.972 930.669 670.89 915.902L670.893 915.901ZM791.809 874.484C796.701 873.265 801.546 872.15 806.366 871.073C816.071 906.658 823.276 938.936 827.514 966.454C812.244 972.899 796.795 979.068 781.084 984.791C787.919 953.789 791.304 916.205 791.808 874.481L791.809 874.484ZM808.622 870.593C842.97 863.048 874.962 859.216 901.562 860.443C886.096 896.23 867.423 929.456 845.442 958.808C840.268 961.121 834.982 963.28 829.739 965.51C825.482 938.033 818.262 905.917 808.621 870.59L808.622 870.593ZM347.681 1031.63L348.093 1031.79C387.395 1054.83 431.368 1071.45 478.899 1079.99C483.199 1082.25 487.534 1084.4 491.935 1086.39C509.148 1094.17 527.128 1099.76 545.733 1103.13C474.417 1093.9 406.821 1069.31 347.678 1031.63L347.681 1031.63ZM359.368 1035.59C379.873 1041.9 404.094 1045.8 431.232 1047.48C444.399 1058.47 458.095 1068.37 472.558 1076.49C431.884 1068.47 393.91 1054.5 359.372 1035.6L359.368 1035.59ZM576.984 965.825C579.703 971.384 582.442 976.993 585.199 982.277C579.577 978.899 573.995 975.306 568.418 971.667L576.984 965.825ZM566.335 973.037C573.303 977.594 580.232 982.197 587.271 986.355C595.957 1002.74 604.851 1017.46 613.77 1030.76C593.474 1034.6 573.455 1037.78 553.968 1040.21C539.82 1036.93 525.795 1032.98 511.901 1028.48C513.336 1025.51 514.962 1022.5 517 1019.46C527.079 1004.38 544.415 988.578 566.335 973.037ZM903.956 860.565C906.424 860.71 909.077 860.712 911.443 860.948C932.763 863.067 949.674 868.929 960.368 879.185C952.833 890.104 945.024 900.766 936.725 910.97C909.591 927.652 880.34 943.051 849.714 956.929C870.929 928.026 888.927 895.458 903.958 860.562L903.956 860.565ZM591.421 988.889C613.814 1001.84 636.499 1012.66 659.241 1021.03C644.832 1024.42 630.493 1027.64 616.292 1030.36C607.918 1017.94 599.627 1004.1 591.421 988.889ZM434.954 1047.8C443.589 1048.26 452.484 1048.53 461.63 1048.55C475.401 1048.6 489.879 1047.99 504.64 1047.07C504.456 1056.13 507.683 1064.75 514.864 1072.53C518.471 1076.43 523.087 1080.08 528.706 1083.55C512.044 1082.59 495.694 1080.75 479.782 1077.91C464.104 1069.66 449.168 1059.42 434.954 1047.8ZM510.959 1030.58C523.138 1034.52 535.437 1037.95 547.816 1040.97C533.922 1042.6 520.409 1043.73 507.149 1044.61C507.554 1040.07 508.858 1035.38 510.959 1030.58ZM961.974 880.938C964.551 883.701 966.778 886.688 968.485 890.053C967.419 890.801 966.462 891.616 965.389 892.361C958.134 897.386 950.553 902.255 942.916 907.068C949.578 898.642 955.82 889.83 961.974 880.938ZM1001.81 867.295C996.372 891.572 988.392 914.326 977.034 934.539L975.866 936.477C973.839 938.183 971.687 939.794 969.613 941.466C976.909 920.272 977.09 903.525 971.306 890.739C981.981 883.177 992.097 875.317 1001.81 867.296L1001.81 867.295ZM506.894 1046.94C522.097 1045.94 537.629 1044.5 553.636 1042.51C579.061 1048.38 604.798 1052.23 630.62 1053.82C636.728 1061.38 642.82 1068.33 648.919 1074.13C609.209 1082.5 570.739 1085.51 533.927 1083.83C526.657 1079.81 520.796 1075.53 516.592 1070.98C509.703 1063.53 506.695 1055.48 506.894 1046.94ZM969.367 892.175C974.943 904.907 974.607 921.906 966.364 944.063C929.384 973.251 885.292 997.23 834.149 1014.26C834.127 1011.58 834.2 1009.05 834.073 1006.18C873.418 981.425 908.318 949.471 938.349 912.6C948.051 906.623 957.534 900.491 966.648 894.173C967.585 893.523 968.436 892.826 969.367 892.175ZM1039.71 871.169C1016.64 907.427 988.733 940.952 956.591 970.724L956.61 970.597C957.951 968.13 959.03 965.822 960.22 963.445C966.698 955.338 972.551 946.694 977.798 937.588C1001.6 917.48 1022.22 895.14 1039.71 871.171L1039.71 871.169ZM560.052 1041.67C578.055 1039.3 596.403 1036.41 615.062 1032.85C619.599 1039.53 624.165 1045.61 628.73 1051.39C605.718 1049.86 582.764 1046.62 560.052 1041.67ZM932.698 915.963C903.967 950.359 870.911 980.181 833.891 1003.65C833.493 996.219 832.747 988.149 831.685 979.629C836.926 973.477 842.001 967.095 846.919 960.549C877.037 947.06 905.824 932.165 932.698 915.963ZM617.621 1032.39C632.683 1029.48 647.902 1026.05 663.187 1022.39C693.407 1033.13 723.688 1039.43 753.455 1040.48L751.034 1041.55C711.849 1050.88 671.791 1053.94 631.865 1051.56C627.118 1045.63 622.361 1039.32 617.624 1032.39L617.621 1032.39ZM486.397 1081.13C501.613 1083.58 517.181 1085.2 533.06 1085.96C546.486 1093.34 565.71 1099.49 590.088 1104.42C555.793 1105.04 523.162 1098.02 492.885 1084.34C490.689 1083.35 488.567 1082.2 486.395 1081.14L486.397 1081.13ZM667.339 1021.44C684.077 1017.37 700.862 1012.97 717.632 1008.04L728.79 1004.56C739.677 1018.63 749.827 1030.01 759.005 1037.92C758.708 1038.05 758.416 1038.21 758.119 1038.35C728.265 1037.83 697.803 1031.93 667.342 1021.43L667.339 1021.44ZM842.747 962.341C839.008 967.222 835.172 971.986 831.246 976.645C830.865 973.739 830.532 970.841 830.081 967.821L842.747 962.341ZM827.856 968.763C828.381 972.281 828.782 975.704 829.208 979.059C812.282 998.812 793.665 1016.39 773.378 1031.38C770.228 1032.88 767.083 1034.26 763.942 1035.69L764.089 1035.4C764.105 1035.36 764.09 1035.32 764.106 1035.28C770.954 1022.04 776.413 1005.84 780.65 987.306C796.622 981.513 812.335 975.306 827.859 968.762L827.856 968.763ZM731.083 1003.83C746.847 998.965 762.559 993.778 778.101 988.183C773.945 1006.09 768.655 1021.66 762.06 1034.39L762.023 1034.46L761.968 1034.48C761.636 1035.28 761.259 1035.82 760.925 1036.61C751.951 1028.95 741.876 1017.75 731.083 1003.83ZM829.65 982.042C830.631 990.198 831.332 997.899 831.688 1005C819.276 1012.74 806.405 1019.76 793.137 1026C788.82 1027.05 784.499 1028.12 780.095 1029.07C797.941 1015.28 814.48 999.551 829.65 982.042ZM538.409 1086.25C574.526 1087.51 612.208 1084.26 651.032 1075.95C657.01 1081.44 662.973 1086.09 668.918 1089.73C645.543 1097.98 622.688 1102.69 600.484 1104.1C573.971 1099.42 553.046 1093.44 538.412 1086.24L538.409 1086.25ZM633.694 1054C668.748 1055.92 703.843 1053.65 738.424 1046.66C709.018 1058.48 680.038 1067.4 651.678 1073.54C651.455 1073.33 651.24 1073.21 651.016 1073C645.256 1067.56 639.486 1061.07 633.697 1054L633.694 1054ZM972.661 941.777C970.212 945.761 967.626 949.644 964.927 953.427C966.137 950.651 967.375 947.851 968.365 945.208L972.661 941.777ZM964.649 948.202C962.856 952.644 960.748 957.299 958.337 962.14C929.3 998.471 887.787 1024.05 833.09 1034.08C833.421 1031.49 833.904 1029.16 834.075 1026.29C834.253 1023.32 834.113 1019.83 834.122 1016.58C884.375 999.911 927.945 976.6 964.653 948.197L964.649 948.202ZM831.911 1007.52C832.021 1010.21 831.835 1012.47 831.848 1014.99C822.749 1017.97 813.483 1020.76 803.942 1023.29C813.509 1018.44 822.805 1013.17 831.911 1007.52ZM777.273 1032.05L777.545 1031.96L783.264 1030.64C779.615 1032.23 775.878 1033.59 772.17 1035.05C772.924 1034.5 773.63 1033.9 774.38 1033.34C775.343 1032.88 776.31 1032.52 777.273 1032.05ZM653.909 1075.37C685.812 1068.35 718.463 1057.92 751.626 1043.71C753.652 1043.23 755.685 1042.73 757.707 1042.21C756.107 1043.24 754.581 1044.38 752.96 1045.38L752.908 1045.4C725.325 1064.86 698.163 1079.06 671.602 1088.74C665.772 1085.33 659.868 1080.71 653.909 1075.37ZM763.645 1038.28C763.546 1038.35 763.457 1038.43 763.354 1038.5L763.175 1038.5L763.645 1038.28ZM793.944 1028.09C806.972 1024.92 819.612 1021.35 831.847 1017.36C831.827 1020.3 831.967 1023.5 831.809 1026.18C831.626 1029.25 831.114 1031.74 830.748 1034.47C811.795 1037.77 791.283 1039.23 769.187 1038.62C777.592 1035.41 785.85 1031.89 793.946 1028.09L793.944 1028.09ZM762.915 1041.37C773.632 1050.9 783.151 1057.93 791.35 1062.04C795.911 1064.33 800.129 1065.8 803.987 1066.5C800.513 1067.87 797.097 1069.36 793.597 1070.67C770.006 1079.5 746.02 1086.89 722.809 1092.71C736.62 1084.38 749.356 1068.05 760.742 1042.82L762.912 1041.37L762.915 1041.37ZM765.801 1040.79C789.066 1041.63 810.573 1040.18 830.475 1036.75C829.492 1042.94 828.187 1048.5 826.197 1052.66C824.888 1055.39 823.378 1057.56 821.657 1059.36C817.338 1061.21 812.954 1062.93 808.576 1064.69C804.003 1064.61 798.669 1063.19 792.447 1060.06C784.858 1056.26 775.843 1049.59 765.801 1040.79ZM946.308 979.052C945.01 980.482 943.922 981.942 942.544 983.362L935.253 989.418C939.089 986.115 942.763 982.624 946.308 979.052ZM756.541 1045.63C743.045 1073.89 727.976 1090.14 711.949 1095.27C709.129 1095.92 706.364 1096.54 703.578 1097.14C694.045 1098.09 684.121 1095.63 674.001 1090.17C700.219 1080.44 727.009 1066.41 754.131 1047.29L754.223 1047.2L756.541 1045.63ZM586.803 1106.74C591.255 1106.72 595.695 1106.67 600.203 1106.39C601.887 1106.68 603.302 1107.04 605.039 1107.32C598.921 1107.27 592.884 1107.01 586.803 1106.74ZM931.08 992.863C908.501 1011.15 884.113 1027.61 858.117 1042.09C847.745 1047.43 837.056 1052.56 826.063 1057.37C826.844 1056.19 827.596 1054.98 828.255 1053.6C830.454 1049.02 831.819 1043 832.815 1036.36C872.135 1029.23 904.863 1014.18 931.08 992.863ZM608.218 1105.64C628.744 1103.66 649.811 1098.94 671.269 1091.22C679.021 1095.63 686.726 1098.29 694.282 1099.16C678.647 1102.23 663.689 1104.42 649.843 1105.63C648.009 1105.78 646.184 1105.85 644.35 1105.98C632.122 1106.83 620.708 1106.99 610.734 1106.13C610.704 1106.13 610.689 1106.1 610.662 1106.1C609.757 1105.96 609.108 1105.78 608.215 1105.64L608.218 1105.64Z" fill="url(#paint0_linear_16_595)"/>
</g>
</g>
<defs>
<linearGradient id="paint0_linear_16_595" x1="668.438" y1="133.992" x2="683.945" y2="703.255" gradientUnits="userSpaceOnUse">
<stop stop-color="#96B5FF" stop-opacity="0.1"/>
<stop offset="1" stop-color="#96B5FF" stop-opacity="0"/>
</linearGradient>
<clipPath id="clip0_16_595">
<rect width="1250.18" height="1254.64" fill="white" transform="translate(0.12793 0.24231)"/>
</clipPath>
</defs>
</svg>
