<svg width="87" height="91" viewBox="0 0 87 91" fill="none" xmlns="http://www.w3.org/2000/svg">
<path d="M47.0351 4.12813C47.0351 5.89421 45.4309 7.32591 43.4521 7.32591C41.4733 7.32591 39.8691 5.89421 39.8691 4.12813C39.8691 2.36205 41.4733 0.930359 43.4521 0.930359C45.4309 0.930359 47.0351 2.36205 47.0351 4.12813Z" fill="white"/>
<path d="M8.9687 25.0202C8.9687 26.7863 7.36454 28.218 5.38572 28.218C3.40689 28.218 1.80273 26.7863 1.80273 25.0202C1.80273 23.2541 3.40689 21.8224 5.38572 21.8224C7.36454 21.8224 8.9687 23.2541 8.9687 25.0202Z" fill="white"/>
<path d="M85.1074 25.0202C85.1074 26.7863 83.5032 28.218 81.5244 28.218C79.5456 28.218 77.9414 26.7863 77.9414 25.0202C77.9414 23.2541 79.5456 21.8224 81.5244 21.8224C83.5032 21.8224 85.1074 23.2541 85.1074 25.0202Z" fill="white"/>
<path d="M85.1074 66.8046C85.1074 68.5707 83.5032 70.0024 81.5244 70.0024C79.5456 70.0024 77.9414 68.5707 77.9414 66.8046C77.9414 65.0386 79.5456 63.6069 81.5244 63.6069C83.5032 63.6069 85.1074 65.0386 85.1074 66.8046Z" fill="white"/>
<path d="M8.9687 66.8046C8.9687 68.5707 7.36454 70.0024 5.38572 70.0024C3.40689 70.0024 1.80273 68.5707 1.80273 66.8046C1.80273 65.0386 3.40689 63.6069 5.38572 63.6069C7.36454 63.6069 8.9687 65.0386 8.9687 66.8046Z" fill="white"/>
<path d="M47.0351 87.6967C47.0351 89.4628 45.4309 90.8945 43.4521 90.8945C41.4733 90.8945 39.8691 89.4628 39.8691 87.6967C39.8691 85.9307 41.4733 84.499 43.4521 84.499C45.4309 84.499 47.0351 85.9307 47.0351 87.6967Z" fill="white"/>
<path d="M67.1885 77.4638C67.1885 79.9363 65.0831 81.9406 62.4859 81.9406C59.8887 81.9406 57.7832 79.9363 57.7832 77.4638C57.7832 74.9912 59.8887 72.9869 62.4859 72.9869C65.0831 72.9869 67.1885 74.9912 67.1885 77.4638Z" fill="white"/>
<path d="M29.1221 77.4638C29.1221 79.9363 27.0167 81.9406 24.4195 81.9406C21.8223 81.9406 19.7168 79.9363 19.7168 77.4638C19.7168 74.9912 21.8223 72.9869 24.4195 72.9869C27.0167 72.9869 29.1221 74.9912 29.1221 77.4638Z" fill="white"/>
<path d="M29.1221 14.361C29.1221 16.8335 27.0167 18.8379 24.4195 18.8379C21.8223 18.8379 19.7168 16.8335 19.7168 14.361C19.7168 11.8885 21.8223 9.88409 24.4195 9.88409C27.0167 9.88409 29.1221 11.8885 29.1221 14.361Z" fill="white"/>
<path d="M67.1885 14.361C67.1885 16.8335 65.0831 18.8379 62.4859 18.8379C59.8887 18.8379 57.7832 16.8335 57.7832 14.361C57.7832 11.8885 59.8887 9.88409 62.4859 9.88409C65.0831 9.88409 67.1885 11.8885 67.1885 14.361Z" fill="white"/>
<path d="M86.001 45.9123C86.001 48.3848 83.8956 50.3892 81.2984 50.3892C78.7012 50.3892 76.5957 48.3848 76.5957 45.9123C76.5957 43.4398 78.7012 41.4354 81.2984 41.4354C83.8956 41.4354 86.001 43.4398 86.001 45.9123Z" fill="white"/>
<path d="M9.86236 45.9123C9.86236 48.3848 7.7569 50.3892 5.15969 50.3892C2.56249 50.3892 0.457031 48.3848 0.457031 45.9123C0.457031 43.4398 2.56249 41.4354 5.15969 41.4354C7.7569 41.4354 9.86236 43.4398 9.86236 45.9123Z" fill="white"/>
<path d="M30.0171 35.4663C30.0171 38.5275 27.5106 41.0091 24.4187 41.0091C21.3268 41.0091 18.8203 38.5275 18.8203 35.4663C18.8203 32.4051 21.3268 29.9235 24.4187 29.9235C27.5106 29.9235 30.0171 32.4051 30.0171 35.4663Z" fill="white"/>
<path d="M68.0835 35.4663C68.0835 38.5275 65.577 41.0091 62.4851 41.0091C59.3932 41.0091 56.8867 38.5275 56.8867 35.4663C56.8867 32.4051 59.3932 29.9235 62.4851 29.9235C65.577 29.9235 68.0835 32.4051 68.0835 35.4663Z" fill="white"/>
<path d="M68.0835 56.3584C68.0835 59.4196 65.577 61.9012 62.4851 61.9012C59.3932 61.9012 56.8867 59.4196 56.8867 56.3584C56.8867 53.2972 59.3932 50.8156 62.4851 50.8156C65.577 50.8156 68.0835 53.2972 68.0835 56.3584Z" fill="white"/>
<path d="M30.0171 56.3584C30.0171 59.4196 27.5106 61.9012 24.4187 61.9012C21.3268 61.9012 18.8203 59.4196 18.8203 56.3584C18.8203 53.2972 21.3268 50.8156 24.4187 50.8156C27.5106 50.8156 30.0171 53.2972 30.0171 56.3584Z" fill="white"/>
<path d="M49.2775 67.0176C49.2775 70.0788 46.6708 72.5604 43.4552 72.5604C40.2396 72.5604 37.6328 70.0788 37.6328 67.0176C37.6328 63.9564 40.2396 61.4748 43.4552 61.4748C46.6708 61.4748 49.2775 63.9564 49.2775 67.0176Z" fill="white"/>
<path d="M50.1725 46.1257C50.1725 49.6579 47.1647 52.5213 43.4544 52.5213C39.7441 52.5213 36.7363 49.6579 36.7363 46.1257C36.7363 42.5935 39.7441 39.7302 43.4544 39.7302C47.1647 39.7302 50.1725 42.5935 50.1725 46.1257Z" fill="white"/>
<path d="M49.2775 25.2336C49.2775 28.2948 46.6708 30.7764 43.4552 30.7764C40.2396 30.7764 37.6328 28.2948 37.6328 25.2336C37.6328 22.1724 40.2396 19.6908 43.4552 19.6908C46.6708 19.6908 49.2775 22.1724 49.2775 25.2336Z" fill="white"/>
</svg>
