<svg width="17" height="16" viewBox="0 0 17 16" fill="none" xmlns="http://www.w3.org/2000/svg">
<path fill-rule="evenodd" clip-rule="evenodd" d="M14.5488 9.39876V3.83942H5.34563V5.20488C5.34563 5.67826 4.96188 6.06202 4.48849 6.06202C4.0151 6.06202 3.63135 5.67826 3.63135 5.20488V1.98231C3.63135 0.906505 4.50345 0.0343938 5.57925 0.034383H5.57927L14.3151 0.0341797H14.3152C15.391 0.0341797 16.2631 0.906295 16.2631 1.98211V9.39876C16.2631 10.4746 15.391 11.3467 14.3152 11.3467H13.4285C12.9551 11.3467 12.5714 10.9629 12.5714 10.4895C12.5714 10.0162 12.9551 9.63241 13.4285 9.63241H14.3152C14.4442 9.63241 14.5488 9.5278 14.5488 9.39876ZM2.16595 11.232V13.9812C2.16595 14.1102 2.27054 14.2148 2.39957 14.2148H2.39959L9.30925 14.2146H9.30927C9.43831 14.2146 9.54291 14.11 9.54291 13.981V11.232H2.16595ZM9.30925 7.42578L2.39959 7.42598H2.39956C1.32376 7.426 0.45166 8.29811 0.45166 9.37391V13.9812C0.45166 15.057 1.32378 15.9291 2.39959 15.9291H2.39961L9.30927 15.9289H9.30929C10.3851 15.9289 11.2572 15.0568 11.2572 13.981V9.37371C11.2572 8.2979 10.3851 7.42578 9.30927 7.42578H9.30925Z" fill="white"/>
</svg>
