<svg width="16" height="16" viewBox="0 0 16 16" fill="none" xmlns="http://www.w3.org/2000/svg">
<path fill-rule="evenodd" clip-rule="evenodd" d="M1.65967 13.9995V3.71776H14.3398V13.9995C14.3398 14.1878 14.1873 14.3403 13.9991 14.3403H2.00045C1.81224 14.3403 1.65967 14.1878 1.65967 13.9995ZM2.00045 0.160156C0.983814 0.160156 0.159668 0.984303 0.159668 2.00094V13.9995C0.159668 15.0162 0.983814 15.8403 2.00045 15.8403H13.9991C15.0157 15.8403 15.8398 15.0162 15.8398 13.9995V2.00094C15.8398 0.984303 15.0157 0.160156 13.9991 0.160156H2.00045ZM7.72384 5.30793C8.11569 5.44219 8.32451 5.86869 8.19026 6.26054L7.99614 6.82708H9.52494L9.88563 5.77434C10.0199 5.38249 10.4464 5.17367 10.8382 5.30793C11.2301 5.44219 11.4389 5.86869 11.3047 6.26054L11.1105 6.82708H11.6332C12.0474 6.82708 12.3832 7.16287 12.3832 7.57708C12.3832 7.99129 12.0474 8.32708 11.6332 8.32708H10.5966L10.0435 9.94141H11.1142C11.5284 9.94141 11.8642 10.2772 11.8642 10.6914C11.8642 11.1056 11.5284 11.4414 11.1142 11.4414H9.52954L9.22841 12.3203C9.09415 12.7121 8.66766 12.9209 8.27581 12.7867C7.88395 12.6524 7.67514 12.2259 7.80939 11.8341L7.94394 11.4414H6.41514L6.11402 12.3203C5.97976 12.7121 5.55326 12.9209 5.16141 12.7867C4.76956 12.6524 4.56074 12.2259 4.695 11.8341L4.82954 11.4414H4.36642C3.95221 11.4414 3.61642 11.1056 3.61642 10.6914C3.61642 10.2772 3.95221 9.94141 4.36642 9.94141H5.34348L5.8966 8.32708H4.88539C4.47118 8.32708 4.13539 7.99129 4.13539 7.57708C4.13539 7.16287 4.47118 6.82708 4.88539 6.82708H6.41054L6.77124 5.77434C6.9055 5.38249 7.33199 5.17367 7.72384 5.30793ZM9.01099 8.32708L8.45788 9.94141H6.92908L7.4822 8.32708H9.01099Z" fill="white"/>
</svg>
