<svg width="17" height="17" viewBox="0 0 17 17" fill="none" xmlns="http://www.w3.org/2000/svg">
<path fill-rule="evenodd" clip-rule="evenodd" d="M3.26609 0.997853C3.4834 0.0051704 4.89685 -0.00100833 5.12282 0.989738L5.13405 1.0392C5.14175 1.0732 5.14891 1.10483 5.15662 1.13767C5.43834 2.33755 6.4094 3.25438 7.62494 3.46586C8.65937 3.64582 8.65936 5.13078 7.62494 5.31074C6.40292 5.52334 5.428 6.44883 5.15217 7.65816L5.12282 7.78686C4.89684 8.77761 3.48339 8.77142 3.26609 7.77874L3.24192 7.66831C2.97619 6.4544 2.00246 5.5219 0.77819 5.30891C-0.254184 5.12931 -0.254192 3.64728 0.77819 3.46768C1.99819 3.25543 2.96941 2.32867 3.23912 1.12096L3.25708 1.03918L3.26609 0.997853ZM12.1561 4.38308C12.3666 4.29451 12.5927 4.24888 12.8211 4.24888C13.0494 4.24888 13.2755 4.29451 13.486 4.38308C13.6957 4.47136 13.8858 4.60051 14.0451 4.76301L15.4938 6.22309C15.6537 6.38209 15.7806 6.57106 15.8673 6.77918C15.9543 6.98808 15.9991 7.21215 15.9991 7.43846C15.9991 7.66476 15.9543 7.88883 15.8673 8.09773C15.7805 8.30591 15.6536 8.49493 15.4937 8.65396L8.40927 15.7841C8.31402 15.8799 8.18788 15.9389 8.05325 15.9506L4.62468 16.2478C4.45656 16.2623 4.2906 16.2018 4.17128 16.0825C4.05195 15.9632 3.99147 15.7972 4.00604 15.6291L4.30319 12.2005C4.31485 12.0659 4.37386 11.9398 4.46972 11.8445L11.5985 4.76143C11.7575 4.59967 11.9471 4.47107 12.1561 4.38308Z" fill="white"/>
</svg>
