<svg width="17" height="16" viewBox="0 0 17 16" fill="none" xmlns="http://www.w3.org/2000/svg">
<path fill-rule="evenodd" clip-rule="evenodd" d="M2.30957 13.9995V3.71773H14.9897V13.9995C14.9897 14.1878 14.8372 14.3403 14.649 14.3403H2.65035C2.46214 14.3403 2.30957 14.1878 2.30957 13.9995ZM2.65035 0.160156C1.63372 0.160156 0.80957 0.984303 0.80957 2.00094V13.9995C0.80957 15.0162 1.63372 15.8403 2.65035 15.8403H14.649C15.6656 15.8403 16.4897 15.0162 16.4897 13.9995V2.00094C16.4897 0.984303 15.6656 0.160156 14.649 0.160156H2.65035ZM12.0713 7.28594C12.344 6.97421 12.3124 6.50039 12.0007 6.22763C11.689 5.95487 11.2152 5.98646 10.9424 6.29818L7.40041 10.3462L5.67112 9.0492C5.33975 8.80068 4.86965 8.86783 4.62112 9.1992C4.37259 9.53058 4.43975 10.0007 4.77112 10.2492L7.05684 11.9635C7.37069 12.1989 7.81292 12.1526 8.07127 11.8574L12.0713 7.28594Z" fill="white"/>
</svg>
