<svg width="17" height="16" viewBox="0 0 17 16" fill="none" xmlns="http://www.w3.org/2000/svg">
<path d="M11.6641 2.66634H12.9974C13.351 2.66634 13.6902 2.80682 13.9402 3.05687C14.1903 3.30691 14.3307 3.64605 14.3307 3.99967V13.333C14.3307 13.6866 14.1903 14.0258 13.9402 14.2758C13.6902 14.5259 13.351 14.6663 12.9974 14.6663H4.9974C4.64377 14.6663 4.30464 14.5259 4.05459 14.2758C3.80454 14.0258 3.66406 13.6866 3.66406 13.333V3.99967C3.66406 3.64605 3.80454 3.30691 4.05459 3.05687C4.30464 2.80682 4.64377 2.66634 4.9974 2.66634H6.33073M6.9974 1.33301H10.9974C11.3656 1.33301 11.6641 1.63148 11.6641 1.99967V3.33301C11.6641 3.7012 11.3656 3.99967 10.9974 3.99967H6.9974C6.62921 3.99967 6.33073 3.7012 6.33073 3.33301V1.99967C6.33073 1.63148 6.62921 1.33301 6.9974 1.33301Z" stroke="#C4CBDA" stroke-opacity="0.4" stroke-width="1.3" stroke-linecap="round" stroke-linejoin="round"/>
</svg>
