<svg width="17" height="16" viewBox="0 0 17 16" fill="none" xmlns="http://www.w3.org/2000/svg">
<path fill-rule="evenodd" clip-rule="evenodd" d="M1.97525 0.502103C2.29674 0.180612 2.73277 0 3.18743 0H10.0446C10.1961 0 10.3415 0.0602039 10.4486 0.167368L15.0201 4.7388C15.1272 4.84596 15.1874 4.9913 15.1874 5.14286V14.2857C15.1874 14.7404 15.0068 15.1764 14.6853 15.4979C14.3638 15.8194 13.9278 16 13.4731 16H3.18743C2.73277 16 2.29674 15.8194 1.97525 15.4979C1.65376 15.1764 1.47314 14.7404 1.47314 14.2857V1.71429C1.47314 1.25963 1.65376 0.823594 1.97525 0.502103ZM7.14633 6.89824C7.43923 7.19113 7.43923 7.66601 7.14633 7.9589L5.39095 9.71429L7.14633 11.4697C7.43923 11.7626 7.43923 12.2374 7.14633 12.5303C6.85344 12.8232 6.37857 12.8232 6.08567 12.5303L3.79996 10.2446C3.50706 9.95172 3.50706 9.47685 3.79996 9.18396L6.08567 6.89824C6.37857 6.60535 6.85344 6.60535 7.14633 6.89824ZM9.51424 6.89824C9.80714 6.60535 10.282 6.60535 10.5749 6.89824L12.8606 9.18396C13.1535 9.47685 13.1535 9.95172 12.8606 10.2446L10.5749 12.5303C10.282 12.8232 9.80714 12.8232 9.51424 12.5303C9.22135 12.2374 9.22135 11.7626 9.51424 11.4697L11.2696 9.71429L9.51424 7.9589C9.22135 7.66601 9.22135 7.19113 9.51424 6.89824Z" fill="white"/>
</svg>
