<svg width="1440" height="1008" viewBox="0 0 1440 1008" fill="none" xmlns="http://www.w3.org/2000/svg">
<path opacity="0.08" d="M-112 -116H-164V-69.2M-112 -116V-69.2M-112 -116H-60M-112 -69.2H-164M-112 -69.2H-60M-112 -69.2V-22.4M-164 -69.2V-22.4M-60 -116V-69.2M-60 -116H-8M-60 -69.2H-8M-60 -69.2V-22.4M-8 -116V-69.2M-8 -116H44M-8 -69.2H44M-8 -69.2V-22.4M44 -116V-69.2M44 -116H96M44 -69.2H96M44 -69.2V-22.4M96 -116V-69.2M96 -116H148M96 -69.2H148M96 -69.2V-22.4M148 -116V-69.2M148 -116H200M148 -69.2H200M148 -69.2V-22.4M200 -116V-69.2M200 -116H252M200 -69.2H252M200 -69.2V-22.4M252 -116V-69.2M252 -116H304M252 -69.2H304M252 -69.2V-22.4M304 -116V-69.2M304 -116H356M304 -69.2H356M304 -69.2V-22.4M356 -116V-69.2M356 -116H408M356 -69.2H408M356 -69.2V-22.4M408 -116V-69.2M408 -116H460M408 -69.2H460M408 -69.2V-22.4M460 -116V-69.2M460 -116H512M460 -69.2H512M460 -69.2V-22.4M512 -116V-69.2M512 -116H564M512 -69.2H564M512 -69.2V-22.4M564 -116V-69.2M564 -116H616M564 -69.2H616M564 -69.2V-22.4M616 -116V-69.2M616 -116H668M616 -69.2H668M616 -69.2V-22.4M668 -116V-69.2M668 -116H720M668 -69.2H720M668 -69.2V-22.4M720 -116V-69.2M720 -116H772M720 -69.2V-22.4M720 -69.2H772M-112 -22.4H-164M-112 -22.4H-60M-112 -22.4V24.4M-164 -22.4V24.4M-60 -22.4H-8M-60 -22.4V24.4M-8 -22.4H44M-8 -22.4V24.4M44 -22.4H96M44 -22.4V24.4M96 -22.4H148M96 -22.4V24.4M148 -22.4H200M148 -22.4V24.4M200 -22.4H252M200 -22.4V24.4M252 -22.4H304M252 -22.4V24.4M304 -22.4H356M304 -22.4V24.4M356 -22.4H408M356 -22.4V24.4M408 -22.4H460M408 -22.4V24.4M460 -22.4H512M460 -22.4V24.4M512 -22.4H564M512 -22.4V24.4M564 -22.4H616M564 -22.4V24.4M616 -22.4H668M616 -22.4V24.4M668 -22.4H720M668 -22.4V24.4M720 -22.4V24.4M720 -22.4H772M-112 24.4H-164M-112 24.4H-60M-112 24.4V71.2M-164 24.4V71.2M-60 24.4H-8M-60 24.4V71.2M-8 24.4H44M-8 24.4V71.2M44 24.4H96M44 24.4V71.2M96 24.4H148M96 24.4V71.2M148 24.4H200M148 24.4V71.2M200 24.4H252M200 24.4V71.2M252 24.4H304M252 24.4V71.2M304 24.4H356M304 24.4V71.2M356 24.4H408M356 24.4V71.2M408 24.4H460M408 24.4V71.2M460 24.4H512M460 24.4V71.2M512 24.4H564M512 24.4V71.2M564 24.4H616M564 24.4V71.2M616 24.4H668M616 24.4V71.2M668 24.4H720M668 24.4V71.2M720 24.4V71.2M720 24.4H772M-112 71.2H-164M-112 71.2H-60M-112 71.2V118M-164 71.2V118M-60 71.2H-8M-60 71.2V118M-8 71.2H44M-8 71.2V118M44 71.2H96M44 71.2V118M96 71.2H148M96 71.2V118M148 71.2H200M148 71.2V118M200 71.2H252M200 71.2V118M252 71.2H304M252 71.2V118M304 71.2H356M304 71.2V118M356 71.2H408M356 71.2V118M408 71.2H460M408 71.2V118M460 71.2H512M460 71.2V118M512 71.2H564M512 71.2V118M564 71.2H616M564 71.2V118M616 71.2H668M616 71.2V118M668 71.2H720M668 71.2V118M720 71.2V118M720 71.2H772M-112 118H-164M-112 118H-60M-112 118V164.8M-164 118V164.8M-60 118H-8M-60 118V164.8M-8 118H44M-8 118V164.8M44 118H96M44 118V164.8M96 118H148M96 118V164.8M148 118H200M148 118V164.8M200 118H252M200 118V164.8M252 118H304M252 118V164.8M304 118H356M304 118V164.8M356 118H408M356 118V164.8M408 118H460M408 118V164.8M460 118H512M460 118V164.8M512 118H564M512 118V164.8M564 118H616M564 118V164.8M616 118H668M616 118V164.8M668 118H720M668 118V164.8M720 118V164.8M720 118H772M-112 164.8H-164M-112 164.8H-60M-112 164.8V211.6M-164 164.8V211.6M-60 164.8H-8M-60 164.8V211.6M-8 164.8H44M-8 164.8V211.6M44 164.8H96M44 164.8V211.6M96 164.8H148M96 164.8V211.6M148 164.8H200M148 164.8V211.6M200 164.8H252M200 164.8V211.6M252 164.8H304M252 164.8V211.6M304 164.8H356M304 164.8V211.6M356 164.8H408M356 164.8V211.6M408 164.8H460M408 164.8V211.6M460 164.8H512M460 164.8V211.6M512 164.8H564M512 164.8V211.6M564 164.8H616M564 164.8V211.6M616 164.8H668M616 164.8V211.6M668 164.8H720M668 164.8V211.6M720 164.8V211.6M720 164.8H772M-112 211.6H-164M-112 211.6H-60M-112 211.6V258.4M-164 211.6V258.4M-60 211.6H-8M-60 211.6V258.4M-8 211.6H44M-8 211.6V258.4M44 211.6H96M44 211.6V258.4M96 211.6H148M96 211.6V258.4M148 211.6H200M148 211.6V258.4M200 211.6H252M200 211.6V258.4M252 211.6H304M252 211.6V258.4M304 211.6H356M304 211.6V258.4M356 211.6H408M356 211.6V258.4M408 211.6H460M408 211.6V258.4M460 211.6H512M460 211.6V258.4M512 211.6H564M512 211.6V258.4M564 211.6H616M564 211.6V258.4M616 211.6H668M616 211.6V258.4M668 211.6H720M668 211.6V258.4M720 211.6V258.4M720 211.6H772M-112 258.4H-164M-112 258.4H-60M-112 258.4V305.2M-164 258.4V305.2M-60 258.4H-8M-60 258.4V305.2M-8 258.4H44M-8 258.4V305.2M44 258.4H96M44 258.4V305.2M96 258.4H148M96 258.4V305.2M148 258.4H200M148 258.4V305.2M200 258.4H252M200 258.4V305.2M252 258.4H304M252 258.4V305.2M304 258.4H356M304 258.4V305.2M356 258.4H408M356 258.4V305.2M408 258.4H460M408 258.4V305.2M460 258.4H512M460 258.4V305.2M512 258.4H564M512 258.4V305.2M564 258.4H616M564 258.4V305.2M616 258.4H668M616 258.4V305.2M668 258.4H720M668 258.4V305.2M720 258.4V305.2M720 258.4H772M-112 305.2H-164M-112 305.2H-60M-112 305.2V352M-164 305.2V352M-60 305.2H-8M-60 305.2V352M-8 305.2H44M-8 305.2V352M44 305.2H96M44 305.2V352M96 305.2H148M96 305.2V352M148 305.2H200M148 305.2V352M200 305.2H252M200 305.2V352M252 305.2H304M252 305.2V352M304 305.2H356M304 305.2V352M356 305.2H408M356 305.2V352M408 305.2H460M408 305.2V352M460 305.2H512M460 305.2V352M512 305.2H564M512 305.2V352M564 305.2H616M564 305.2V352M616 305.2H668M616 305.2V352M668 305.2H720M668 305.2V352M720 305.2V352M720 305.2H772M-112 352H-164M-112 352H-60M-112 352V398.8M-164 352V398.8M-60 352H-8M-60 352V398.8M-8 352H44M-8 352V398.8M44 352H96M44 352V398.8M96 352H148M96 352V398.8M148 352H200M148 352V398.8M200 352H252M200 352V398.8M252 352H304M252 352V398.8M304 352H356M304 352V398.8M356 352H408M356 352V398.8M408 352H460M408 352V398.8M460 352H512M460 352V398.8M512 352H564M512 352V398.8M564 352H616M564 352V398.8M616 352H668M616 352V398.8M668 352H720M668 352V398.8M720 352V398.8M720 352H772M-112 398.8H-164M-112 398.8H-60M-112 398.8V445.6M-164 398.8V445.6H-112M-60 398.8H-8M-60 398.8V445.6M-8 398.8H44M-8 398.8V445.6M44 398.8H96M44 398.8V445.6M96 398.8H148M96 398.8V445.6M148 398.8H200M148 398.8V445.6M200 398.8H252M200 398.8V445.6M252 398.8H304M252 398.8V445.6M304 398.8H356M304 398.8V445.6M356 398.8H408M356 398.8V445.6M408 398.8H460M408 398.8V445.6M460 398.8H512M460 398.8V445.6M512 398.8H564M512 398.8V445.6M564 398.8H616M564 398.8V445.6M616 398.8H668M616 398.8V445.6M668 398.8H720M668 398.8V445.6M720 398.8V445.6M720 398.8H772M-112 445.6H-60M-60 445.6H-8M-8 445.6H44M44 445.6H96M96 445.6H148M148 445.6H200M200 445.6H252M252 445.6H304M304 445.6H356M356 445.6H408M408 445.6H460M460 445.6H512M512 445.6H564M564 445.6H616M616 445.6H668M668 445.6H720M720 445.6H772M-112 445.4H-164V492.2M-112 445.4V492.2M-112 445.4H-60M-112 492.2H-164M-112 492.2H-60M-112 492.2V539M-164 492.2V539M-60 445.4V492.2M-60 445.4H-8M-60 492.2H-8M-60 492.2V539M-8 445.4V492.2M-8 445.4H44M-8 492.2H44M-8 492.2V539M44 445.4V492.2M44 445.4H96M44 492.2H96M44 492.2V539M96 445.4V492.2M96 445.4H148M96 492.2H148M96 492.2V539M148 445.4V492.2M148 445.4H200M148 492.2H200M148 492.2V539M200 445.4V492.2M200 445.4H252M200 492.2H252M200 492.2V539M252 445.4V492.2M252 445.4H304M252 492.2H304M252 492.2V539M304 445.4V492.2M304 445.4H356M304 492.2H356M304 492.2V539M356 445.4V492.2M356 445.4H408M356 492.2H408M356 492.2V539M408 445.4V492.2M408 445.4H460M408 492.2H460M408 492.2V539M460 445.4V492.2M460 445.4H512M460 492.2H512M460 492.2V539M512 445.4V492.2M512 445.4H564M512 492.2H564M512 492.2V539M564 445.4V492.2M564 445.4H616M564 492.2H616M564 492.2V539M616 445.4V492.2M616 445.4H668M616 492.2H668M616 492.2V539M668 445.4V492.2M668 445.4H720M668 492.2H720M668 492.2V539M720 445.4V492.2M720 445.4H772M720 492.2V539M720 492.2H772M-112 539H-164M-112 539H-60M-112 539V585.8M-164 539V585.8M-60 539H-8M-60 539V585.8M-8 539H44M-8 539V585.8M44 539H96M44 539V585.8M96 539H148M96 539V585.8M148 539H200M148 539V585.8M200 539H252M200 539V585.8M252 539H304M252 539V585.8M304 539H356M304 539V585.8M356 539H408M356 539V585.8M408 539H460M408 539V585.8M460 539H512M460 539V585.8M512 539H564M512 539V585.8M564 539H616M564 539V585.8M616 539H668M616 539V585.8M668 539H720M668 539V585.8M720 539V585.8M720 539H772M-112 585.8H-164M-112 585.8H-60M-112 585.8V632.6M-164 585.8V632.6M-60 585.8H-8M-60 585.8V632.6M-8 585.8H44M-8 585.8V632.6M44 585.8H96M44 585.8V632.6M96 585.8H148M96 585.8V632.6M148 585.8H200M148 585.8V632.6M200 585.8H252M200 585.8V632.6M252 585.8H304M252 585.8V632.6M304 585.8H356M304 585.8V632.6M356 585.8H408M356 585.8V632.6M408 585.8H460M408 585.8V632.6M460 585.8H512M460 585.8V632.6M512 585.8H564M512 585.8V632.6M564 585.8H616M564 585.8V632.6M616 585.8H668M616 585.8V632.6M668 585.8H720M668 585.8V632.6M720 585.8V632.6M720 585.8H772M-112 632.6H-164M-112 632.6H-60M-112 632.6V679.4M-164 632.6V679.4M-60 632.6H-8M-60 632.6V679.4M-8 632.6H44M-8 632.6V679.4M44 632.6H96M44 632.6V679.4M96 632.6H148M96 632.6V679.4M148 632.6H200M148 632.6V679.4M200 632.6H252M200 632.6V679.4M252 632.6H304M252 632.6V679.4M304 632.6H356M304 632.6V679.4M356 632.6H408M356 632.6V679.4M408 632.6H460M408 632.6V679.4M460 632.6H512M460 632.6V679.4M512 632.6H564M512 632.6V679.4M564 632.6H616M564 632.6V679.4M616 632.6H668M616 632.6V679.4M668 632.6H720M668 632.6V679.4M720 632.6V679.4M720 632.6H772M-112 679.4H-164M-112 679.4H-60M-112 679.4V726.2M-164 679.4V726.2M-60 679.4H-8M-60 679.4V726.2M-8 679.4H44M-8 679.4V726.2M44 679.4H96M44 679.4V726.2M96 679.4H148M96 679.4V726.2M148 679.4H200M148 679.4V726.2M200 679.4H252M200 679.4V726.2M252 679.4H304M252 679.4V726.2M304 679.4H356M304 679.4V726.2M356 679.4H408M356 679.4V726.2M408 679.4H460M408 679.4V726.2M460 679.4H512M460 679.4V726.2M512 679.4H564M512 679.4V726.2M564 679.4H616M564 679.4V726.2M616 679.4H668M616 679.4V726.2M668 679.4H720M668 679.4V726.2M720 679.4V726.2M720 679.4H772M-112 726.2H-164M-112 726.2H-60M-112 726.2V773M-164 726.2V773M-60 726.2H-8M-60 726.2V773M-8 726.2H44M-8 726.2V773M44 726.2H96M44 726.2V773M96 726.2H148M96 726.2V773M148 726.2H200M148 726.2V773M200 726.2H252M200 726.2V773M252 726.2H304M252 726.2V773M304 726.2H356M304 726.2V773M356 726.2H408M356 726.2V773M408 726.2H460M408 726.2V773M460 726.2H512M460 726.2V773M512 726.2H564M512 726.2V773M564 726.2H616M564 726.2V773M616 726.2H668M616 726.2V773M668 726.2H720M668 726.2V773M720 726.2V773M720 726.2H772M-112 773H-164M-112 773H-60M-112 773V819.8M-164 773V819.8M-60 773H-8M-60 773V819.8M-8 773H44M-8 773V819.8M44 773H96M44 773V819.8M96 773H148M96 773V819.8M148 773H200M148 773V819.8M200 773H252M200 773V819.8M252 773H304M252 773V819.8M304 773H356M304 773V819.8M356 773H408M356 773V819.8M408 773H460M408 773V819.8M460 773H512M460 773V819.8M512 773H564M512 773V819.8M564 773H616M564 773V819.8M616 773H668M616 773V819.8M668 773H720M668 773V819.8M720 773V819.8M720 773H772M-112 819.8H-164M-112 819.8H-60M-112 819.8V866.6M-164 819.8V866.6M-60 819.8H-8M-60 819.8V866.6M-8 819.8H44M-8 819.8V866.6M44 819.8H96M44 819.8V866.6M96 819.8H148M96 819.8V866.6M148 819.8H200M148 819.8V866.6M200 819.8H252M200 819.8V866.6M252 819.8H304M252 819.8V866.6M304 819.8H356M304 819.8V866.6M356 819.8H408M356 819.8V866.6M408 819.8H460M408 819.8V866.6M460 819.8H512M460 819.8V866.6M512 819.8H564M512 819.8V866.6M564 819.8H616M564 819.8V866.6M616 819.8H668M616 819.8V866.6M668 819.8H720M668 819.8V866.6M720 819.8V866.6M720 819.8H772M-112 866.6H-164M-112 866.6H-60M-112 866.6V913.4M-164 866.6V913.4M-60 866.6H-8M-60 866.6V913.4M-8 866.6H44M-8 866.6V913.4M44 866.6H96M44 866.6V913.4M96 866.6H148M96 866.6V913.4M148 866.6H200M148 866.6V913.4M200 866.6H252M200 866.6V913.4M252 866.6H304M252 866.6V913.4M304 866.6H356M304 866.6V913.4M356 866.6H408M356 866.6V913.4M408 866.6H460M408 866.6V913.4M460 866.6H512M460 866.6V913.4M512 866.6H564M512 866.6V913.4M564 866.6H616M564 866.6V913.4M616 866.6H668M616 866.6V913.4M668 866.6H720M668 866.6V913.4M720 866.6V913.4M720 866.6H772M-112 913.4H-164M-112 913.4H-60M-112 913.4V960.2M-164 913.4V960.2M-60 913.4H-8M-60 913.4V960.2M-8 913.4H44M-8 913.4V960.2M44 913.4H96M44 913.4V960.2M96 913.4H148M96 913.4V960.2M148 913.4H200M148 913.4V960.2M200 913.4H252M200 913.4V960.2M252 913.4H304M252 913.4V960.2M304 913.4H356M304 913.4V960.2M356 913.4H408M356 913.4V960.2M408 913.4H460M408 913.4V960.2M460 913.4H512M460 913.4V960.2M512 913.4H564M512 913.4V960.2M564 913.4H616M564 913.4V960.2M616 913.4H668M616 913.4V960.2M668 913.4H720M668 913.4V960.2M720 913.4V960.2M720 913.4H772M-112 960.2H-164M-112 960.2H-60M-112 960.2V1007M-164 960.2V1007H-112M-60 960.2H-8M-60 960.2V1007M-8 960.2H44M-8 960.2V1007M44 960.2H96M44 960.2V1007M96 960.2H148M96 960.2V1007M148 960.2H200M148 960.2V1007M200 960.2H252M200 960.2V1007M252 960.2H304M252 960.2V1007M304 960.2H356M304 960.2V1007M356 960.2H408M356 960.2V1007M408 960.2H460M408 960.2V1007M460 960.2H512M460 960.2V1007M512 960.2H564M512 960.2V1007M564 960.2H616M564 960.2V1007M616 960.2H668M616 960.2V1007M668 960.2H720M668 960.2V1007M720 960.2V1007M720 960.2H772M-112 1007H-60M-60 1007H-8M-8 1007H44M44 1007H96M96 1007H148M148 1007H200M200 1007H252M252 1007H304M304 1007H356M356 1007H408M408 1007H460M460 1007H512M512 1007H564M564 1007H616M616 1007H668M668 1007H720M720 1007H772M772 -116V-69.2M772 -116H824M772 -69.2H824M772 -69.2V-22.4M824 -116V-69.2M824 -116H876M824 -69.2H876M824 -69.2V-22.4M876 -116V-69.2M876 -116H928M876 -69.2H928M876 -69.2V-22.4M928 -116V-69.2M928 -116H980M928 -69.2H980M928 -69.2V-22.4M980 -116V-69.2M980 -116H1032M980 -69.2H1032M980 -69.2V-22.4M1032 -116V-69.2M1032 -116H1084M1032 -69.2H1084M1032 -69.2V-22.4M1084 -116V-69.2M1084 -116H1136M1084 -69.2H1136M1084 -69.2V-22.4M1136 -116V-69.2M1136 -116H1188M1136 -69.2H1188M1136 -69.2V-22.4M1188 -116V-69.2M1188 -116H1240M1188 -69.2H1240M1188 -69.2V-22.4M1240 -116V-69.2M1240 -116H1292M1240 -69.2H1292M1240 -69.2V-22.4M1292 -116V-69.2M1292 -116H1344M1292 -69.2H1344M1292 -69.2V-22.4M1344 -116V-69.2M1344 -116H1396M1344 -69.2H1396M1344 -69.2V-22.4M1396 -116V-69.2M1396 -116H1448M1396 -69.2H1448M1396 -69.2V-22.4M1448 -116V-69.2M1448 -116H1500M1448 -69.2H1500M1448 -69.2V-22.4M1500 -116V-69.2M1500 -116H1552M1500 -69.2H1552M1500 -69.2V-22.4M1552 -116V-69.2M1552 -116H1604V-69.2M1552 -69.2H1604M1552 -69.2V-22.4M1604 -69.2V-22.4M772 -22.4H824M772 -22.4V24.4M824 -22.4H876M824 -22.4V24.4M876 -22.4H928M876 -22.4V24.4M928 -22.4H980M928 -22.4V24.4M980 -22.4H1032M980 -22.4V24.4M1032 -22.4H1084M1032 -22.4V24.4M1084 -22.4H1136M1084 -22.4V24.4M1136 -22.4H1188M1136 -22.4V24.4M1188 -22.4H1240M1188 -22.4V24.4M1240 -22.4H1292M1240 -22.4V24.4M1292 -22.4H1344M1292 -22.4V24.4M1344 -22.4H1396M1344 -22.4V24.4M1396 -22.4H1448M1396 -22.4V24.4M1448 -22.4H1500M1448 -22.4V24.4M1500 -22.4H1552M1500 -22.4V24.4M1552 -22.4H1604M1552 -22.4V24.4M1604 -22.4V24.4M772 24.4H824M772 24.4V71.2M824 24.4H876M824 24.4V71.2M876 24.4H928M876 24.4V71.2M928 24.4H980M928 24.4V71.2M980 24.4H1032M980 24.4V71.2M1032 24.4H1084M1032 24.4V71.2M1084 24.4H1136M1084 24.4V71.2M1136 24.4H1188M1136 24.4V71.2M1188 24.4H1240M1188 24.4V71.2M1240 24.4H1292M1240 24.4V71.2M1292 24.4H1344M1292 24.4V71.2M1344 24.4H1396M1344 24.4V71.2M1396 24.4H1448M1396 24.4V71.2M1448 24.4H1500M1448 24.4V71.2M1500 24.4H1552M1500 24.4V71.2M1552 24.4H1604M1552 24.4V71.2M1604 24.4V71.2M772 71.2H824M772 71.2V118M824 71.2H876M824 71.2V118M876 71.2H928M876 71.2V118M928 71.2H980M928 71.2V118M980 71.2H1032M980 71.2V118M1032 71.2H1084M1032 71.2V118M1084 71.2H1136M1084 71.2V118M1136 71.2H1188M1136 71.2V118M1188 71.2H1240M1188 71.2V118M1240 71.2H1292M1240 71.2V118M1292 71.2H1344M1292 71.2V118M1344 71.2H1396M1344 71.2V118M1396 71.2H1448M1396 71.2V118M1448 71.2H1500M1448 71.2V118M1500 71.2H1552M1500 71.2V118M1552 71.2H1604M1552 71.2V118M1604 71.2V118M772 118H824M772 118V164.8M824 118H876M824 118V164.8M876 118H928M876 118V164.8M928 118H980M928 118V164.8M980 118H1032M980 118V164.8M1032 118H1084M1032 118V164.8M1084 118H1136M1084 118V164.8M1136 118H1188M1136 118V164.8M1188 118H1240M1188 118V164.8M1240 118H1292M1240 118V164.8M1292 118H1344M1292 118V164.8M1344 118H1396M1344 118V164.8M1396 118H1448M1396 118V164.8M1448 118H1500M1448 118V164.8M1500 118H1552M1500 118V164.8M1552 118H1604M1552 118V164.8M1604 118V164.8M772 164.8H824M772 164.8V211.6M824 164.8H876M824 164.8V211.6M876 164.8H928M876 164.8V211.6M928 164.8H980M928 164.8V211.6M980 164.8H1032M980 164.8V211.6M1032 164.8H1084M1032 164.8V211.6M1084 164.8H1136M1084 164.8V211.6M1136 164.8H1188M1136 164.8V211.6M1188 164.8H1240M1188 164.8V211.6M1240 164.8H1292M1240 164.8V211.6M1292 164.8H1344M1292 164.8V211.6M1344 164.8H1396M1344 164.8V211.6M1396 164.8H1448M1396 164.8V211.6M1448 164.8H1500M1448 164.8V211.6M1500 164.8H1552M1500 164.8V211.6M1552 164.8H1604M1552 164.8V211.6M1604 164.8V211.6M772 211.6H824M772 211.6V258.4M824 211.6H876M824 211.6V258.4M876 211.6H928M876 211.6V258.4M928 211.6H980M928 211.6V258.4M980 211.6H1032M980 211.6V258.4M1032 211.6H1084M1032 211.6V258.4M1084 211.6H1136M1084 211.6V258.4M1136 211.6H1188M1136 211.6V258.4M1188 211.6H1240M1188 211.6V258.4M1240 211.6H1292M1240 211.6V258.4M1292 211.6H1344M1292 211.6V258.4M1344 211.6H1396M1344 211.6V258.4M1396 211.6H1448M1396 211.6V258.4M1448 211.6H1500M1448 211.6V258.4M1500 211.6H1552M1500 211.6V258.4M1552 211.6H1604M1552 211.6V258.4M1604 211.6V258.4M772 258.4H824M772 258.4V305.2M824 258.4H876M824 258.4V305.2M876 258.4H928M876 258.4V305.2M928 258.4H980M928 258.4V305.2M980 258.4H1032M980 258.4V305.2M1032 258.4H1084M1032 258.4V305.2M1084 258.4H1136M1084 258.4V305.2M1136 258.4H1188M1136 258.4V305.2M1188 258.4H1240M1188 258.4V305.2M1240 258.4H1292M1240 258.4V305.2M1292 258.4H1344M1292 258.4V305.2M1344 258.4H1396M1344 258.4V305.2M1396 258.4H1448M1396 258.4V305.2M1448 258.4H1500M1448 258.4V305.2M1500 258.4H1552M1500 258.4V305.2M1552 258.4H1604M1552 258.4V305.2M1604 258.4V305.2M772 305.2H824M772 305.2V352M824 305.2H876M824 305.2V352M876 305.2H928M876 305.2V352M928 305.2H980M928 305.2V352M980 305.2H1032M980 305.2V352M1032 305.2H1084M1032 305.2V352M1084 305.2H1136M1084 305.2V352M1136 305.2H1188M1136 305.2V352M1188 305.2H1240M1188 305.2V352M1240 305.2H1292M1240 305.2V352M1292 305.2H1344M1292 305.2V352M1344 305.2H1396M1344 305.2V352M1396 305.2H1448M1396 305.2V352M1448 305.2H1500M1448 305.2V352M1500 305.2H1552M1500 305.2V352M1552 305.2H1604M1552 305.2V352M1604 305.2V352M772 352H824M772 352V398.8M824 352H876M824 352V398.8M876 352H928M876 352V398.8M928 352H980M928 352V398.8M980 352H1032M980 352V398.8M1032 352H1084M1032 352V398.8M1084 352H1136M1084 352V398.8M1136 352H1188M1136 352V398.8M1188 352H1240M1188 352V398.8M1240 352H1292M1240 352V398.8M1292 352H1344M1292 352V398.8M1344 352H1396M1344 352V398.8M1396 352H1448M1396 352V398.8M1448 352H1500M1448 352V398.8M1500 352H1552M1500 352V398.8M1552 352H1604M1552 352V398.8M1604 352V398.8M772 398.8H824M772 398.8V445.6M824 398.8H876M824 398.8V445.6M876 398.8H928M876 398.8V445.6M928 398.8H980M928 398.8V445.6M980 398.8H1032M980 398.8V445.6M1032 398.8H1084M1032 398.8V445.6M1084 398.8H1136M1084 398.8V445.6M1136 398.8H1188M1136 398.8V445.6M1188 398.8H1240M1188 398.8V445.6M1240 398.8H1292M1240 398.8V445.6M1292 398.8H1344M1292 398.8V445.6M1344 398.8H1396M1344 398.8V445.6M1396 398.8H1448M1396 398.8V445.6M1448 398.8H1500M1448 398.8V445.6M1500 398.8H1552M1500 398.8V445.6M1552 398.8H1604M1552 398.8V445.6M1604 398.8V445.6H1552M772 445.6H824M824 445.6H876M876 445.6H928M928 445.6H980M980 445.6H1032M1032 445.6H1084M1084 445.6H1136M1136 445.6H1188M1188 445.6H1240M1240 445.6H1292M1292 445.6H1344M1344 445.6H1396M1396 445.6H1448M1448 445.6H1500M1500 445.6H1552M772 445.4V492.2M772 445.4H824M772 492.2H824M772 492.2V539M824 445.4V492.2M824 445.4H876M824 492.2H876M824 492.2V539M876 445.4V492.2M876 445.4H928M876 492.2H928M876 492.2V539M928 445.4V492.2M928 445.4H980M928 492.2H980M928 492.2V539M980 445.4V492.2M980 445.4H1032M980 492.2H1032M980 492.2V539M1032 445.4V492.2M1032 445.4H1084M1032 492.2H1084M1032 492.2V539M1084 445.4V492.2M1084 445.4H1136M1084 492.2H1136M1084 492.2V539M1136 445.4V492.2M1136 445.4H1188M1136 492.2H1188M1136 492.2V539M1188 445.4V492.2M1188 445.4H1240M1188 492.2H1240M1188 492.2V539M1240 445.4V492.2M1240 445.4H1292M1240 492.2H1292M1240 492.2V539M1292 445.4V492.2M1292 445.4H1344M1292 492.2H1344M1292 492.2V539M1344 445.4V492.2M1344 445.4H1396M1344 492.2H1396M1344 492.2V539M1396 445.4V492.2M1396 445.4H1448M1396 492.2H1448M1396 492.2V539M1448 445.4V492.2M1448 445.4H1500M1448 492.2H1500M1448 492.2V539M1500 445.4V492.2M1500 445.4H1552M1500 492.2H1552M1500 492.2V539M1552 445.4V492.2M1552 445.4H1604V492.2M1552 492.2H1604M1552 492.2V539M1604 492.2V539M772 539H824M772 539V585.8M824 539H876M824 539V585.8M876 539H928M876 539V585.8M928 539H980M928 539V585.8M980 539H1032M980 539V585.8M1032 539H1084M1032 539V585.8M1084 539H1136M1084 539V585.8M1136 539H1188M1136 539V585.8M1188 539H1240M1188 539V585.8M1240 539H1292M1240 539V585.8M1292 539H1344M1292 539V585.8M1344 539H1396M1344 539V585.8M1396 539H1448M1396 539V585.8M1448 539H1500M1448 539V585.8M1500 539H1552M1500 539V585.8M1552 539H1604M1552 539V585.8M1604 539V585.8M772 585.8H824M772 585.8V632.6M824 585.8H876M824 585.8V632.6M876 585.8H928M876 585.8V632.6M928 585.8H980M928 585.8V632.6M980 585.8H1032M980 585.8V632.6M1032 585.8H1084M1032 585.8V632.6M1084 585.8H1136M1084 585.8V632.6M1136 585.8H1188M1136 585.8V632.6M1188 585.8H1240M1188 585.8V632.6M1240 585.8H1292M1240 585.8V632.6M1292 585.8H1344M1292 585.8V632.6M1344 585.8H1396M1344 585.8V632.6M1396 585.8H1448M1396 585.8V632.6M1448 585.8H1500M1448 585.8V632.6M1500 585.8H1552M1500 585.8V632.6M1552 585.8H1604M1552 585.8V632.6M1604 585.8V632.6M772 632.6H824M772 632.6V679.4M824 632.6H876M824 632.6V679.4M876 632.6H928M876 632.6V679.4M928 632.6H980M928 632.6V679.4M980 632.6H1032M980 632.6V679.4M1032 632.6H1084M1032 632.6V679.4M1084 632.6H1136M1084 632.6V679.4M1136 632.6H1188M1136 632.6V679.4M1188 632.6H1240M1188 632.6V679.4M1240 632.6H1292M1240 632.6V679.4M1292 632.6H1344M1292 632.6V679.4M1344 632.6H1396M1344 632.6V679.4M1396 632.6H1448M1396 632.6V679.4M1448 632.6H1500M1448 632.6V679.4M1500 632.6H1552M1500 632.6V679.4M1552 632.6H1604M1552 632.6V679.4M1604 632.6V679.4M772 679.4H824M772 679.4V726.2M824 679.4H876M824 679.4V726.2M876 679.4H928M876 679.4V726.2M928 679.4H980M928 679.4V726.2M980 679.4H1032M980 679.4V726.2M1032 679.4H1084M1032 679.4V726.2M1084 679.4H1136M1084 679.4V726.2M1136 679.4H1188M1136 679.4V726.2M1188 679.4H1240M1188 679.4V726.2M1240 679.4H1292M1240 679.4V726.2M1292 679.4H1344M1292 679.4V726.2M1344 679.4H1396M1344 679.4V726.2M1396 679.4H1448M1396 679.4V726.2M1448 679.4H1500M1448 679.4V726.2M1500 679.4H1552M1500 679.4V726.2M1552 679.4H1604M1552 679.4V726.2M1604 679.4V726.2M772 726.2H824M772 726.2V773M824 726.2H876M824 726.2V773M876 726.2H928M876 726.2V773M928 726.2H980M928 726.2V773M980 726.2H1032M980 726.2V773M1032 726.2H1084M1032 726.2V773M1084 726.2H1136M1084 726.2V773M1136 726.2H1188M1136 726.2V773M1188 726.2H1240M1188 726.2V773M1240 726.2H1292M1240 726.2V773M1292 726.2H1344M1292 726.2V773M1344 726.2H1396M1344 726.2V773M1396 726.2H1448M1396 726.2V773M1448 726.2H1500M1448 726.2V773M1500 726.2H1552M1500 726.2V773M1552 726.2H1604M1552 726.2V773M1604 726.2V773M772 773H824M772 773V819.8M824 773H876M824 773V819.8M876 773H928M876 773V819.8M928 773H980M928 773V819.8M980 773H1032M980 773V819.8M1032 773H1084M1032 773V819.8M1084 773H1136M1084 773V819.8M1136 773H1188M1136 773V819.8M1188 773H1240M1188 773V819.8M1240 773H1292M1240 773V819.8M1292 773H1344M1292 773V819.8M1344 773H1396M1344 773V819.8M1396 773H1448M1396 773V819.8M1448 773H1500M1448 773V819.8M1500 773H1552M1500 773V819.8M1552 773H1604M1552 773V819.8M1604 773V819.8M772 819.8H824M772 819.8V866.6M824 819.8H876M824 819.8V866.6M876 819.8H928M876 819.8V866.6M928 819.8H980M928 819.8V866.6M980 819.8H1032M980 819.8V866.6M1032 819.8H1084M1032 819.8V866.6M1084 819.8H1136M1084 819.8V866.6M1136 819.8H1188M1136 819.8V866.6M1188 819.8H1240M1188 819.8V866.6M1240 819.8H1292M1240 819.8V866.6M1292 819.8H1344M1292 819.8V866.6M1344 819.8H1396M1344 819.8V866.6M1396 819.8H1448M1396 819.8V866.6M1448 819.8H1500M1448 819.8V866.6M1500 819.8H1552M1500 819.8V866.6M1552 819.8H1604M1552 819.8V866.6M1604 819.8V866.6M772 866.6H824M772 866.6V913.4M824 866.6H876M824 866.6V913.4M876 866.6H928M876 866.6V913.4M928 866.6H980M928 866.6V913.4M980 866.6H1032M980 866.6V913.4M1032 866.6H1084M1032 866.6V913.4M1084 866.6H1136M1084 866.6V913.4M1136 866.6H1188M1136 866.6V913.4M1188 866.6H1240M1188 866.6V913.4M1240 866.6H1292M1240 866.6V913.4M1292 866.6H1344M1292 866.6V913.4M1344 866.6H1396M1344 866.6V913.4M1396 866.6H1448M1396 866.6V913.4M1448 866.6H1500M1448 866.6V913.4M1500 866.6H1552M1500 866.6V913.4M1552 866.6H1604M1552 866.6V913.4M1604 866.6V913.4M772 913.4H824M772 913.4V960.2M824 913.4H876M824 913.4V960.2M876 913.4H928M876 913.4V960.2M928 913.4H980M928 913.4V960.2M980 913.4H1032M980 913.4V960.2M1032 913.4H1084M1032 913.4V960.2M1084 913.4H1136M1084 913.4V960.2M1136 913.4H1188M1136 913.4V960.2M1188 913.4H1240M1188 913.4V960.2M1240 913.4H1292M1240 913.4V960.2M1292 913.4H1344M1292 913.4V960.2M1344 913.4H1396M1344 913.4V960.2M1396 913.4H1448M1396 913.4V960.2M1448 913.4H1500M1448 913.4V960.2M1500 913.4H1552M1500 913.4V960.2M1552 913.4H1604M1552 913.4V960.2M1604 913.4V960.2M772 960.2H824M772 960.2V1007M824 960.2H876M824 960.2V1007M876 960.2H928M876 960.2V1007M928 960.2H980M928 960.2V1007M980 960.2H1032M980 960.2V1007M1032 960.2H1084M1032 960.2V1007M1084 960.2H1136M1084 960.2V1007M1136 960.2H1188M1136 960.2V1007M1188 960.2H1240M1188 960.2V1007M1240 960.2H1292M1240 960.2V1007M1292 960.2H1344M1292 960.2V1007M1344 960.2H1396M1344 960.2V1007M1396 960.2H1448M1396 960.2V1007M1448 960.2H1500M1448 960.2V1007M1500 960.2H1552M1500 960.2V1007M1552 960.2H1604M1552 960.2V1007M1604 960.2V1007H1552M772 1007H824M824 1007H876M876 1007H928M928 1007H980M980 1007H1032M1032 1007H1084M1084 1007H1136M1136 1007H1188M1188 1007H1240M1240 1007H1292M1292 1007H1344M1344 1007H1396M1396 1007H1448M1448 1007H1500M1500 1007H1552" stroke="url(#paint0_radial_27_685)"/>
<defs>
<radialGradient id="paint0_radial_27_685" cx="0" cy="0" r="1" gradientUnits="userSpaceOnUse" gradientTransform="translate(720 219) rotate(90) scale(383.5 383.5)">
<stop stop-color="white"/>
<stop offset="1" stop-color="white" stop-opacity="0"/>
</radialGradient>
</defs>
</svg>
