<svg width="2502" height="1590" viewBox="0 0 2502 1590" fill="none" xmlns="http://www.w3.org/2000/svg">
<path opacity="0.08" d="M74.5294 1H1V67.1765M74.5294 1V67.1765M74.5294 1H148.059M74.5294 67.1765H1M74.5294 67.1765H148.059M74.5294 67.1765V133.353M1 67.1765V133.353M148.059 1V67.1765M148.059 1H221.588M148.059 67.1765H221.588M148.059 67.1765V133.353M221.588 1V67.1765M221.588 1H295.118M221.588 67.1765H295.118M221.588 67.1765V133.353M295.118 1V67.1765M295.118 1H368.647M295.118 67.1765H368.647M295.118 67.1765V133.353M368.647 1V67.1765M368.647 1H442.176M368.647 67.1765H442.176M368.647 67.1765V133.353M442.176 1V67.1765M442.176 1H515.706M442.176 67.1765H515.706M442.176 67.1765V133.353M515.706 1V67.1765M515.706 1H589.235M515.706 67.1765H589.235M515.706 67.1765V133.353M589.235 1V67.1765M589.235 1H662.765M589.235 67.1765H662.765M589.235 67.1765V133.353M662.765 1V67.1765M662.765 1H736.294M662.765 67.1765H736.294M662.765 67.1765V133.353M736.294 1V67.1765M736.294 1H809.823M736.294 67.1765H809.823M736.294 67.1765V133.353M809.823 1V67.1765M809.823 1H883.353M809.823 67.1765H883.353M809.823 67.1765V133.353M883.353 1V67.1765M883.353 1H956.882M883.353 67.1765H956.882M883.353 67.1765V133.353M956.882 1V67.1765M956.882 1H1030.41M956.882 67.1765H1030.41M956.882 67.1765V133.353M1030.41 1V67.1765M1030.41 1H1103.94M1030.41 67.1765H1103.94M1030.41 67.1765V133.353M1103.94 1V67.1765M1103.94 1H1177.47M1103.94 67.1765H1177.47M1103.94 67.1765V133.353M1177.47 1V67.1765M1177.47 1H1251M1177.47 67.1765H1251M1177.47 67.1765V133.353M1251 1V67.1765M1251 1H1324.53M1251 67.1765V133.353M1251 67.1765H1324.53M74.5294 133.353H1M74.5294 133.353H148.059M74.5294 133.353V199.529M1 133.353V199.529M148.059 133.353H221.588M148.059 133.353V199.529M221.588 133.353H295.118M221.588 133.353V199.529M295.118 133.353H368.647M295.118 133.353V199.529M368.647 133.353H442.176M368.647 133.353V199.529M442.176 133.353H515.706M442.176 133.353V199.529M515.706 133.353H589.235M515.706 133.353V199.529M589.235 133.353H662.765M589.235 133.353V199.529M662.765 133.353H736.294M662.765 133.353V199.529M736.294 133.353H809.823M736.294 133.353V199.529M809.823 133.353H883.353M809.823 133.353V199.529M883.353 133.353H956.882M883.353 133.353V199.529M956.882 133.353H1030.41M956.882 133.353V199.529M1030.41 133.353H1103.94M1030.41 133.353V199.529M1103.94 133.353H1177.47M1103.94 133.353V199.529M1177.47 133.353H1251M1177.47 133.353V199.529M1251 133.353V199.529M1251 133.353H1324.53M74.5294 199.529H1M74.5294 199.529H148.059M74.5294 199.529V265.706M1 199.529V265.706M148.059 199.529H221.588M148.059 199.529V265.706M221.588 199.529H295.118M221.588 199.529V265.706M295.118 199.529H368.647M295.118 199.529V265.706M368.647 199.529H442.176M368.647 199.529V265.706M442.176 199.529H515.706M442.176 199.529V265.706M515.706 199.529H589.235M515.706 199.529V265.706M589.235 199.529H662.765M589.235 199.529V265.706M662.765 199.529H736.294M662.765 199.529V265.706M736.294 199.529H809.823M736.294 199.529V265.706M809.823 199.529H883.353M809.823 199.529V265.706M883.353 199.529H956.882M883.353 199.529V265.706M956.882 199.529H1030.41M956.882 199.529V265.706M1030.41 199.529H1103.94M1030.41 199.529V265.706M1103.94 199.529H1177.47M1103.94 199.529V265.706M1177.47 199.529H1251M1177.47 199.529V265.706M1251 199.529V265.706M1251 199.529H1324.53M74.5294 265.706H1M74.5294 265.706H148.059M74.5294 265.706V331.882M1 265.706V331.882M148.059 265.706H221.588M148.059 265.706V331.882M221.588 265.706H295.118M221.588 265.706V331.882M295.118 265.706H368.647M295.118 265.706V331.882M368.647 265.706H442.176M368.647 265.706V331.882M442.176 265.706H515.706M442.176 265.706V331.882M515.706 265.706H589.235M515.706 265.706V331.882M589.235 265.706H662.765M589.235 265.706V331.882M662.765 265.706H736.294M662.765 265.706V331.882M736.294 265.706H809.823M736.294 265.706V331.882M809.823 265.706H883.353M809.823 265.706V331.882M883.353 265.706H956.882M883.353 265.706V331.882M956.882 265.706H1030.41M956.882 265.706V331.882M1030.41 265.706H1103.94M1030.41 265.706V331.882M1103.94 265.706H1177.47M1103.94 265.706V331.882M1177.47 265.706H1251M1177.47 265.706V331.882M1251 265.706V331.882M1251 265.706H1324.53M74.5294 331.882H1M74.5294 331.882H148.059M74.5294 331.882V398.059M1 331.882V398.059M148.059 331.882H221.588M148.059 331.882V398.059M221.588 331.882H295.118M221.588 331.882V398.059M295.118 331.882H368.647M295.118 331.882V398.059M368.647 331.882H442.176M368.647 331.882V398.059M442.176 331.882H515.706M442.176 331.882V398.059M515.706 331.882H589.235M515.706 331.882V398.059M589.235 331.882H662.765M589.235 331.882V398.059M662.765 331.882H736.294M662.765 331.882V398.059M736.294 331.882H809.823M736.294 331.882V398.059M809.823 331.882H883.353M809.823 331.882V398.059M883.353 331.882H956.882M883.353 331.882V398.059M956.882 331.882H1030.41M956.882 331.882V398.059M1030.41 331.882H1103.94M1030.41 331.882V398.059M1103.94 331.882H1177.47M1103.94 331.882V398.059M1177.47 331.882H1251M1177.47 331.882V398.059M1251 331.882V398.059M1251 331.882H1324.53M74.5294 398.059H1M74.5294 398.059H148.059M74.5294 398.059V464.235M1 398.059V464.235M148.059 398.059H221.588M148.059 398.059V464.235M221.588 398.059H295.118M221.588 398.059V464.235M295.118 398.059H368.647M295.118 398.059V464.235M368.647 398.059H442.176M368.647 398.059V464.235M442.176 398.059H515.706M442.176 398.059V464.235M515.706 398.059H589.235M515.706 398.059V464.235M589.235 398.059H662.765M589.235 398.059V464.235M662.765 398.059H736.294M662.765 398.059V464.235M736.294 398.059H809.823M736.294 398.059V464.235M809.823 398.059H883.353M809.823 398.059V464.235M883.353 398.059H956.882M883.353 398.059V464.235M956.882 398.059H1030.41M956.882 398.059V464.235M1030.41 398.059H1103.94M1030.41 398.059V464.235M1103.94 398.059H1177.47M1103.94 398.059V464.235M1177.47 398.059H1251M1177.47 398.059V464.235M1251 398.059V464.235M1251 398.059H1324.53M74.5294 464.235H1M74.5294 464.235H148.059M74.5294 464.235V530.412M1 464.235V530.412M148.059 464.235H221.588M148.059 464.235V530.412M221.588 464.235H295.118M221.588 464.235V530.412M295.118 464.235H368.647M295.118 464.235V530.412M368.647 464.235H442.176M368.647 464.235V530.412M442.176 464.235H515.706M442.176 464.235V530.412M515.706 464.235H589.235M515.706 464.235V530.412M589.235 464.235H662.765M589.235 464.235V530.412M662.765 464.235H736.294M662.765 464.235V530.412M736.294 464.235H809.823M736.294 464.235V530.412M809.823 464.235H883.353M809.823 464.235V530.412M883.353 464.235H956.882M883.353 464.235V530.412M956.882 464.235H1030.41M956.882 464.235V530.412M1030.41 464.235H1103.94M1030.41 464.235V530.412M1103.94 464.235H1177.47M1103.94 464.235V530.412M1177.47 464.235H1251M1177.47 464.235V530.412M1251 464.235V530.412M1251 464.235H1324.53M74.5294 530.412H1M74.5294 530.412H148.059M74.5294 530.412V596.588M1 530.412V596.588M148.059 530.412H221.588M148.059 530.412V596.588M221.588 530.412H295.118M221.588 530.412V596.588M295.118 530.412H368.647M295.118 530.412V596.588M368.647 530.412H442.176M368.647 530.412V596.588M442.176 530.412H515.706M442.176 530.412V596.588M515.706 530.412H589.235M515.706 530.412V596.588M589.235 530.412H662.765M589.235 530.412V596.588M662.765 530.412H736.294M662.765 530.412V596.588M736.294 530.412H809.823M736.294 530.412V596.588M809.823 530.412H883.353M809.823 530.412V596.588M883.353 530.412H956.882M883.353 530.412V596.588M956.882 530.412H1030.41M956.882 530.412V596.588M1030.41 530.412H1103.94M1030.41 530.412V596.588M1103.94 530.412H1177.47M1103.94 530.412V596.588M1177.47 530.412H1251M1177.47 530.412V596.588M1251 530.412V596.588M1251 530.412H1324.53M74.5294 596.588H1M74.5294 596.588H148.059M74.5294 596.588V662.765M1 596.588V662.765M148.059 596.588H221.588M148.059 596.588V662.765M221.588 596.588H295.118M221.588 596.588V662.765M295.118 596.588H368.647M295.118 596.588V662.765M368.647 596.588H442.176M368.647 596.588V662.765M442.176 596.588H515.706M442.176 596.588V662.765M515.706 596.588H589.235M515.706 596.588V662.765M589.235 596.588H662.765M589.235 596.588V662.765M662.765 596.588H736.294M662.765 596.588V662.765M736.294 596.588H809.823M736.294 596.588V662.765M809.823 596.588H883.353M809.823 596.588V662.765M883.353 596.588H956.882M883.353 596.588V662.765M956.882 596.588H1030.41M956.882 596.588V662.765M1030.41 596.588H1103.94M1030.41 596.588V662.765M1103.94 596.588H1177.47M1103.94 596.588V662.765M1177.47 596.588H1251M1177.47 596.588V662.765M1251 596.588V662.765M1251 596.588H1324.53M74.5294 662.765H1M74.5294 662.765H148.059M74.5294 662.765V728.941M1 662.765V728.941M148.059 662.765H221.588M148.059 662.765V728.941M221.588 662.765H295.118M221.588 662.765V728.941M295.118 662.765H368.647M295.118 662.765V728.941M368.647 662.765H442.176M368.647 662.765V728.941M442.176 662.765H515.706M442.176 662.765V728.941M515.706 662.765H589.235M515.706 662.765V728.941M589.235 662.765H662.765M589.235 662.765V728.941M662.765 662.765H736.294M662.765 662.765V728.941M736.294 662.765H809.823M736.294 662.765V728.941M809.823 662.765H883.353M809.823 662.765V728.941M883.353 662.765H956.882M883.353 662.765V728.941M956.882 662.765H1030.41M956.882 662.765V728.941M1030.41 662.765H1103.94M1030.41 662.765V728.941M1103.94 662.765H1177.47M1103.94 662.765V728.941M1177.47 662.765H1251M1177.47 662.765V728.941M1251 662.765V728.941M1251 662.765H1324.53M74.5294 728.941H1M74.5294 728.941H148.059M74.5294 728.941V795.118M1 728.941V795.118H74.5294M148.059 728.941H221.588M148.059 728.941V795.118M221.588 728.941H295.118M221.588 728.941V795.118M295.118 728.941H368.647M295.118 728.941V795.118M368.647 728.941H442.176M368.647 728.941V795.118M442.176 728.941H515.706M442.176 728.941V795.118M515.706 728.941H589.235M515.706 728.941V795.118M589.235 728.941H662.765M589.235 728.941V795.118M662.765 728.941H736.294M662.765 728.941V795.118M736.294 728.941H809.823M736.294 728.941V795.118M809.823 728.941H883.353M809.823 728.941V795.118M883.353 728.941H956.882M883.353 728.941V795.118M956.882 728.941H1030.41M956.882 728.941V795.118M1030.41 728.941H1103.94M1030.41 728.941V795.118M1103.94 728.941H1177.47M1103.94 728.941V795.118M1177.47 728.941H1251M1177.47 728.941V795.118M1251 728.941V795.118M1251 728.941H1324.53M74.5294 795.118H148.059M148.059 795.118H221.588M221.588 795.118H295.118M295.118 795.118H368.647M368.647 795.118H442.176M442.176 795.118H515.706M515.706 795.118H589.235M589.235 795.118H662.765M662.765 795.118H736.294M736.294 795.118H809.823M809.823 795.118H883.353M883.353 795.118H956.882M956.882 795.118H1030.41M1030.41 795.118H1103.94M1103.94 795.118H1177.47M1177.47 795.118H1251M1251 795.118H1324.53M74.5294 794.835H1V861.011M74.5294 794.835V861.011M74.5294 794.835H148.059M74.5294 861.011H1M74.5294 861.011H148.059M74.5294 861.011V927.188M1 861.011V927.188M148.059 794.835V861.011M148.059 794.835H221.588M148.059 861.011H221.588M148.059 861.011V927.188M221.588 794.835V861.011M221.588 794.835H295.118M221.588 861.011H295.118M221.588 861.011V927.188M295.118 794.835V861.011M295.118 794.835H368.647M295.118 861.011H368.647M295.118 861.011V927.188M368.647 794.835V861.011M368.647 794.835H442.176M368.647 861.011H442.176M368.647 861.011V927.188M442.176 794.835V861.011M442.176 794.835H515.706M442.176 861.011H515.706M442.176 861.011V927.188M515.706 794.835V861.011M515.706 794.835H589.235M515.706 861.011H589.235M515.706 861.011V927.188M589.235 794.835V861.011M589.235 794.835H662.765M589.235 861.011H662.765M589.235 861.011V927.188M662.765 794.835V861.011M662.765 794.835H736.294M662.765 861.011H736.294M662.765 861.011V927.188M736.294 794.835V861.011M736.294 794.835H809.823M736.294 861.011H809.823M736.294 861.011V927.188M809.823 794.835V861.011M809.823 794.835H883.353M809.823 861.011H883.353M809.823 861.011V927.188M883.353 794.835V861.011M883.353 794.835H956.882M883.353 861.011H956.882M883.353 861.011V927.188M956.882 794.835V861.011M956.882 794.835H1030.41M956.882 861.011H1030.41M956.882 861.011V927.188M1030.41 794.835V861.011M1030.41 794.835H1103.94M1030.41 861.011H1103.94M1030.41 861.011V927.188M1103.94 794.835V861.011M1103.94 794.835H1177.47M1103.94 861.011H1177.47M1103.94 861.011V927.188M1177.47 794.835V861.011M1177.47 794.835H1251M1177.47 861.011H1251M1177.47 861.011V927.188M1251 794.835V861.011M1251 794.835H1324.53M1251 861.011V927.188M1251 861.011H1324.53M74.5294 927.188H1M74.5294 927.188H148.059M74.5294 927.188V993.364M1 927.188V993.364M148.059 927.188H221.588M148.059 927.188V993.364M221.588 927.188H295.118M221.588 927.188V993.364M295.118 927.188H368.647M295.118 927.188V993.364M368.647 927.188H442.176M368.647 927.188V993.364M442.176 927.188H515.706M442.176 927.188V993.364M515.706 927.188H589.235M515.706 927.188V993.364M589.235 927.188H662.765M589.235 927.188V993.364M662.765 927.188H736.294M662.765 927.188V993.364M736.294 927.188H809.823M736.294 927.188V993.364M809.823 927.188H883.353M809.823 927.188V993.364M883.353 927.188H956.882M883.353 927.188V993.364M956.882 927.188H1030.41M956.882 927.188V993.364M1030.41 927.188H1103.94M1030.41 927.188V993.364M1103.94 927.188H1177.47M1103.94 927.188V993.364M1177.47 927.188H1251M1177.47 927.188V993.364M1251 927.188V993.364M1251 927.188H1324.53M74.5294 993.364H1M74.5294 993.364H148.059M74.5294 993.364V1059.54M1 993.364V1059.54M148.059 993.364H221.588M148.059 993.364V1059.54M221.588 993.364H295.118M221.588 993.364V1059.54M295.118 993.364H368.647M295.118 993.364V1059.54M368.647 993.364H442.176M368.647 993.364V1059.54M442.176 993.364H515.706M442.176 993.364V1059.54M515.706 993.364H589.235M515.706 993.364V1059.54M589.235 993.364H662.765M589.235 993.364V1059.54M662.765 993.364H736.294M662.765 993.364V1059.54M736.294 993.364H809.823M736.294 993.364V1059.54M809.823 993.364H883.353M809.823 993.364V1059.54M883.353 993.364H956.882M883.353 993.364V1059.54M956.882 993.364H1030.41M956.882 993.364V1059.54M1030.41 993.364H1103.94M1030.41 993.364V1059.54M1103.94 993.364H1177.47M1103.94 993.364V1059.54M1177.47 993.364H1251M1177.47 993.364V1059.54M1251 993.364V1059.54M1251 993.364H1324.53M74.5294 1059.54H1M74.5294 1059.54H148.059M74.5294 1059.54V1125.72M1 1059.54V1125.72M148.059 1059.54H221.588M148.059 1059.54V1125.72M221.588 1059.54H295.118M221.588 1059.54V1125.72M295.118 1059.54H368.647M295.118 1059.54V1125.72M368.647 1059.54H442.176M368.647 1059.54V1125.72M442.176 1059.54H515.706M442.176 1059.54V1125.72M515.706 1059.54H589.235M515.706 1059.54V1125.72M589.235 1059.54H662.765M589.235 1059.54V1125.72M662.765 1059.54H736.294M662.765 1059.54V1125.72M736.294 1059.54H809.823M736.294 1059.54V1125.72M809.823 1059.54H883.353M809.823 1059.54V1125.72M883.353 1059.54H956.882M883.353 1059.54V1125.72M956.882 1059.54H1030.41M956.882 1059.54V1125.72M1030.41 1059.54H1103.94M1030.41 1059.54V1125.72M1103.94 1059.54H1177.47M1103.94 1059.54V1125.72M1177.47 1059.54H1251M1177.47 1059.54V1125.72M1251 1059.54V1125.72M1251 1059.54H1324.53M74.5294 1125.72H1M74.5294 1125.72H148.059M74.5294 1125.72V1191.89M1 1125.72V1191.89M148.059 1125.72H221.588M148.059 1125.72V1191.89M221.588 1125.72H295.118M221.588 1125.72V1191.89M295.118 1125.72H368.647M295.118 1125.72V1191.89M368.647 1125.72H442.176M368.647 1125.72V1191.89M442.176 1125.72H515.706M442.176 1125.72V1191.89M515.706 1125.72H589.235M515.706 1125.72V1191.89M589.235 1125.72H662.765M589.235 1125.72V1191.89M662.765 1125.72H736.294M662.765 1125.72V1191.89M736.294 1125.72H809.823M736.294 1125.72V1191.89M809.823 1125.72H883.353M809.823 1125.72V1191.89M883.353 1125.72H956.882M883.353 1125.72V1191.89M956.882 1125.72H1030.41M956.882 1125.72V1191.89M1030.41 1125.72H1103.94M1030.41 1125.72V1191.89M1103.94 1125.72H1177.47M1103.94 1125.72V1191.89M1177.47 1125.72H1251M1177.47 1125.72V1191.89M1251 1125.72V1191.89M1251 1125.72H1324.53M74.5294 1191.89H1M74.5294 1191.89H148.059M74.5294 1191.89V1258.07M1 1191.89V1258.07M148.059 1191.89H221.588M148.059 1191.89V1258.07M221.588 1191.89H295.118M221.588 1191.89V1258.07M295.118 1191.89H368.647M295.118 1191.89V1258.07M368.647 1191.89H442.176M368.647 1191.89V1258.07M442.176 1191.89H515.706M442.176 1191.89V1258.07M515.706 1191.89H589.235M515.706 1191.89V1258.07M589.235 1191.89H662.765M589.235 1191.89V1258.07M662.765 1191.89H736.294M662.765 1191.89V1258.07M736.294 1191.89H809.823M736.294 1191.89V1258.07M809.823 1191.89H883.353M809.823 1191.89V1258.07M883.353 1191.89H956.882M883.353 1191.89V1258.07M956.882 1191.89H1030.41M956.882 1191.89V1258.07M1030.41 1191.89H1103.94M1030.41 1191.89V1258.07M1103.94 1191.89H1177.47M1103.94 1191.89V1258.07M1177.47 1191.89H1251M1177.47 1191.89V1258.07M1251 1191.89V1258.07M1251 1191.89H1324.53M74.5294 1258.07H1M74.5294 1258.07H148.059M74.5294 1258.07V1324.25M1 1258.07V1324.25M148.059 1258.07H221.588M148.059 1258.07V1324.25M221.588 1258.07H295.118M221.588 1258.07V1324.25M295.118 1258.07H368.647M295.118 1258.07V1324.25M368.647 1258.07H442.176M368.647 1258.07V1324.25M442.176 1258.07H515.706M442.176 1258.07V1324.25M515.706 1258.07H589.235M515.706 1258.07V1324.25M589.235 1258.07H662.765M589.235 1258.07V1324.25M662.765 1258.07H736.294M662.765 1258.07V1324.25M736.294 1258.07H809.823M736.294 1258.07V1324.25M809.823 1258.07H883.353M809.823 1258.07V1324.25M883.353 1258.07H956.882M883.353 1258.07V1324.25M956.882 1258.07H1030.41M956.882 1258.07V1324.25M1030.41 1258.07H1103.94M1030.41 1258.07V1324.25M1103.94 1258.07H1177.47M1103.94 1258.07V1324.25M1177.47 1258.07H1251M1177.47 1258.07V1324.25M1251 1258.07V1324.25M1251 1258.07H1324.53M74.5294 1324.25H1M74.5294 1324.25H148.059M74.5294 1324.25V1390.42M1 1324.25V1390.42M148.059 1324.25H221.588M148.059 1324.25V1390.42M221.588 1324.25H295.118M221.588 1324.25V1390.42M295.118 1324.25H368.647M295.118 1324.25V1390.42M368.647 1324.25H442.176M368.647 1324.25V1390.42M442.176 1324.25H515.706M442.176 1324.25V1390.42M515.706 1324.25H589.235M515.706 1324.25V1390.42M589.235 1324.25H662.765M589.235 1324.25V1390.42M662.765 1324.25H736.294M662.765 1324.25V1390.42M736.294 1324.25H809.823M736.294 1324.25V1390.42M809.823 1324.25H883.353M809.823 1324.25V1390.42M883.353 1324.25H956.882M883.353 1324.25V1390.42M956.882 1324.25H1030.41M956.882 1324.25V1390.42M1030.41 1324.25H1103.94M1030.41 1324.25V1390.42M1103.94 1324.25H1177.47M1103.94 1324.25V1390.42M1177.47 1324.25H1251M1177.47 1324.25V1390.42M1251 1324.25V1390.42M1251 1324.25H1324.53M74.5294 1390.42H1M74.5294 1390.42H148.059M74.5294 1390.42V1456.6M1 1390.42V1456.6M148.059 1390.42H221.588M148.059 1390.42V1456.6M221.588 1390.42H295.118M221.588 1390.42V1456.6M295.118 1390.42H368.647M295.118 1390.42V1456.6M368.647 1390.42H442.176M368.647 1390.42V1456.6M442.176 1390.42H515.706M442.176 1390.42V1456.6M515.706 1390.42H589.235M515.706 1390.42V1456.6M589.235 1390.42H662.765M589.235 1390.42V1456.6M662.765 1390.42H736.294M662.765 1390.42V1456.6M736.294 1390.42H809.823M736.294 1390.42V1456.6M809.823 1390.42H883.353M809.823 1390.42V1456.6M883.353 1390.42H956.882M883.353 1390.42V1456.6M956.882 1390.42H1030.41M956.882 1390.42V1456.6M1030.41 1390.42H1103.94M1030.41 1390.42V1456.6M1103.94 1390.42H1177.47M1103.94 1390.42V1456.6M1177.47 1390.42H1251M1177.47 1390.42V1456.6M1251 1390.42V1456.6M1251 1390.42H1324.53M74.5294 1456.6H1M74.5294 1456.6H148.059M74.5294 1456.6V1522.78M1 1456.6V1522.78M148.059 1456.6H221.588M148.059 1456.6V1522.78M221.588 1456.6H295.118M221.588 1456.6V1522.78M295.118 1456.6H368.647M295.118 1456.6V1522.78M368.647 1456.6H442.176M368.647 1456.6V1522.78M442.176 1456.6H515.706M442.176 1456.6V1522.78M515.706 1456.6H589.235M515.706 1456.6V1522.78M589.235 1456.6H662.765M589.235 1456.6V1522.78M662.765 1456.6H736.294M662.765 1456.6V1522.78M736.294 1456.6H809.823M736.294 1456.6V1522.78M809.823 1456.6H883.353M809.823 1456.6V1522.78M883.353 1456.6H956.882M883.353 1456.6V1522.78M956.882 1456.6H1030.41M956.882 1456.6V1522.78M1030.41 1456.6H1103.94M1030.41 1456.6V1522.78M1103.94 1456.6H1177.47M1103.94 1456.6V1522.78M1177.47 1456.6H1251M1177.47 1456.6V1522.78M1251 1456.6V1522.78M1251 1456.6H1324.53M74.5294 1522.78H1M74.5294 1522.78H148.059M74.5294 1522.78V1588.95M1 1522.78V1588.95H74.5294M148.059 1522.78H221.588M148.059 1522.78V1588.95M221.588 1522.78H295.118M221.588 1522.78V1588.95M295.118 1522.78H368.647M295.118 1522.78V1588.95M368.647 1522.78H442.176M368.647 1522.78V1588.95M442.176 1522.78H515.706M442.176 1522.78V1588.95M515.706 1522.78H589.235M515.706 1522.78V1588.95M589.235 1522.78H662.765M589.235 1522.78V1588.95M662.765 1522.78H736.294M662.765 1522.78V1588.95M736.294 1522.78H809.823M736.294 1522.78V1588.95M809.823 1522.78H883.353M809.823 1522.78V1588.95M883.353 1522.78H956.882M883.353 1522.78V1588.95M956.882 1522.78H1030.41M956.882 1522.78V1588.95M1030.41 1522.78H1103.94M1030.41 1522.78V1588.95M1103.94 1522.78H1177.47M1103.94 1522.78V1588.95M1177.47 1522.78H1251M1177.47 1522.78V1588.95M1251 1522.78V1588.95M1251 1522.78H1324.53M74.5294 1588.95H148.059M148.059 1588.95H221.588M221.588 1588.95H295.118M295.118 1588.95H368.647M368.647 1588.95H442.176M442.176 1588.95H515.706M515.706 1588.95H589.235M589.235 1588.95H662.765M662.765 1588.95H736.294M736.294 1588.95H809.823M809.823 1588.95H883.353M883.353 1588.95H956.882M956.882 1588.95H1030.41M1030.41 1588.95H1103.94M1103.94 1588.95H1177.47M1177.47 1588.95H1251M1251 1588.95H1324.53M1324.53 1V67.1765M1324.53 1H1398.06M1324.53 67.1765H1398.06M1324.53 67.1765V133.353M1398.06 1V67.1765M1398.06 1H1471.59M1398.06 67.1765H1471.59M1398.06 67.1765V133.353M1471.59 1V67.1765M1471.59 1H1545.12M1471.59 67.1765H1545.12M1471.59 67.1765V133.353M1545.12 1V67.1765M1545.12 1H1618.65M1545.12 67.1765H1618.65M1545.12 67.1765V133.353M1618.65 1V67.1765M1618.65 1H1692.18M1618.65 67.1765H1692.18M1618.65 67.1765V133.353M1692.18 1V67.1765M1692.18 1H1765.71M1692.18 67.1765H1765.71M1692.18 67.1765V133.353M1765.71 1V67.1765M1765.71 1H1839.24M1765.71 67.1765H1839.24M1765.71 67.1765V133.353M1839.24 1V67.1765M1839.24 1H1912.76M1839.24 67.1765H1912.76M1839.24 67.1765V133.353M1912.76 1V67.1765M1912.76 1H1986.29M1912.76 67.1765H1986.29M1912.76 67.1765V133.353M1986.29 1V67.1765M1986.29 1H2059.82M1986.29 67.1765H2059.82M1986.29 67.1765V133.353M2059.82 1V67.1765M2059.82 1H2133.35M2059.82 67.1765H2133.35M2059.82 67.1765V133.353M2133.35 1V67.1765M2133.35 1H2206.88M2133.35 67.1765H2206.88M2133.35 67.1765V133.353M2206.88 1V67.1765M2206.88 1H2280.41M2206.88 67.1765H2280.41M2206.88 67.1765V133.353M2280.41 1V67.1765M2280.41 1H2353.94M2280.41 67.1765H2353.94M2280.41 67.1765V133.353M2353.94 1V67.1765M2353.94 1H2427.47M2353.94 67.1765H2427.47M2353.94 67.1765V133.353M2427.47 1V67.1765M2427.47 1H2501V67.1765M2427.47 67.1765H2501M2427.47 67.1765V133.353M2501 67.1765V133.353M1324.53 133.353H1398.06M1324.53 133.353V199.529M1398.06 133.353H1471.59M1398.06 133.353V199.529M1471.59 133.353H1545.12M1471.59 133.353V199.529M1545.12 133.353H1618.65M1545.12 133.353V199.529M1618.65 133.353H1692.18M1618.65 133.353V199.529M1692.18 133.353H1765.71M1692.18 133.353V199.529M1765.71 133.353H1839.24M1765.71 133.353V199.529M1839.24 133.353H1912.76M1839.24 133.353V199.529M1912.76 133.353H1986.29M1912.76 133.353V199.529M1986.29 133.353H2059.82M1986.29 133.353V199.529M2059.82 133.353H2133.35M2059.82 133.353V199.529M2133.35 133.353H2206.88M2133.35 133.353V199.529M2206.88 133.353H2280.41M2206.88 133.353V199.529M2280.41 133.353H2353.94M2280.41 133.353V199.529M2353.94 133.353H2427.47M2353.94 133.353V199.529M2427.47 133.353H2501M2427.47 133.353V199.529M2501 133.353V199.529M1324.53 199.529H1398.06M1324.53 199.529V265.706M1398.06 199.529H1471.59M1398.06 199.529V265.706M1471.59 199.529H1545.12M1471.59 199.529V265.706M1545.12 199.529H1618.65M1545.12 199.529V265.706M1618.65 199.529H1692.18M1618.65 199.529V265.706M1692.18 199.529H1765.71M1692.18 199.529V265.706M1765.71 199.529H1839.24M1765.71 199.529V265.706M1839.24 199.529H1912.76M1839.24 199.529V265.706M1912.76 199.529H1986.29M1912.76 199.529V265.706M1986.29 199.529H2059.82M1986.29 199.529V265.706M2059.82 199.529H2133.35M2059.82 199.529V265.706M2133.35 199.529H2206.88M2133.35 199.529V265.706M2206.88 199.529H2280.41M2206.88 199.529V265.706M2280.41 199.529H2353.94M2280.41 199.529V265.706M2353.94 199.529H2427.47M2353.94 199.529V265.706M2427.47 199.529H2501M2427.47 199.529V265.706M2501 199.529V265.706M1324.53 265.706H1398.06M1324.53 265.706V331.882M1398.06 265.706H1471.59M1398.06 265.706V331.882M1471.59 265.706H1545.12M1471.59 265.706V331.882M1545.12 265.706H1618.65M1545.12 265.706V331.882M1618.65 265.706H1692.18M1618.65 265.706V331.882M1692.18 265.706H1765.71M1692.18 265.706V331.882M1765.71 265.706H1839.24M1765.71 265.706V331.882M1839.24 265.706H1912.76M1839.24 265.706V331.882M1912.76 265.706H1986.29M1912.76 265.706V331.882M1986.29 265.706H2059.82M1986.29 265.706V331.882M2059.82 265.706H2133.35M2059.82 265.706V331.882M2133.35 265.706H2206.88M2133.35 265.706V331.882M2206.88 265.706H2280.41M2206.88 265.706V331.882M2280.41 265.706H2353.94M2280.41 265.706V331.882M2353.94 265.706H2427.47M2353.94 265.706V331.882M2427.47 265.706H2501M2427.47 265.706V331.882M2501 265.706V331.882M1324.53 331.882H1398.06M1324.53 331.882V398.059M1398.06 331.882H1471.59M1398.06 331.882V398.059M1471.59 331.882H1545.12M1471.59 331.882V398.059M1545.12 331.882H1618.65M1545.12 331.882V398.059M1618.65 331.882H1692.18M1618.65 331.882V398.059M1692.18 331.882H1765.71M1692.18 331.882V398.059M1765.71 331.882H1839.24M1765.71 331.882V398.059M1839.24 331.882H1912.76M1839.24 331.882V398.059M1912.76 331.882H1986.29M1912.76 331.882V398.059M1986.29 331.882H2059.82M1986.29 331.882V398.059M2059.82 331.882H2133.35M2059.82 331.882V398.059M2133.35 331.882H2206.88M2133.35 331.882V398.059M2206.88 331.882H2280.41M2206.88 331.882V398.059M2280.41 331.882H2353.94M2280.41 331.882V398.059M2353.94 331.882H2427.47M2353.94 331.882V398.059M2427.47 331.882H2501M2427.47 331.882V398.059M2501 331.882V398.059M1324.53 398.059H1398.06M1324.53 398.059V464.235M1398.06 398.059H1471.59M1398.06 398.059V464.235M1471.59 398.059H1545.12M1471.59 398.059V464.235M1545.12 398.059H1618.65M1545.12 398.059V464.235M1618.65 398.059H1692.18M1618.65 398.059V464.235M1692.18 398.059H1765.71M1692.18 398.059V464.235M1765.71 398.059H1839.24M1765.71 398.059V464.235M1839.24 398.059H1912.76M1839.24 398.059V464.235M1912.76 398.059H1986.29M1912.76 398.059V464.235M1986.29 398.059H2059.82M1986.29 398.059V464.235M2059.82 398.059H2133.35M2059.82 398.059V464.235M2133.35 398.059H2206.88M2133.35 398.059V464.235M2206.88 398.059H2280.41M2206.88 398.059V464.235M2280.41 398.059H2353.94M2280.41 398.059V464.235M2353.94 398.059H2427.47M2353.94 398.059V464.235M2427.47 398.059H2501M2427.47 398.059V464.235M2501 398.059V464.235M1324.53 464.235H1398.06M1324.53 464.235V530.412M1398.06 464.235H1471.59M1398.06 464.235V530.412M1471.59 464.235H1545.12M1471.59 464.235V530.412M1545.12 464.235H1618.65M1545.12 464.235V530.412M1618.65 464.235H1692.18M1618.65 464.235V530.412M1692.18 464.235H1765.71M1692.18 464.235V530.412M1765.71 464.235H1839.24M1765.71 464.235V530.412M1839.24 464.235H1912.76M1839.24 464.235V530.412M1912.76 464.235H1986.29M1912.76 464.235V530.412M1986.29 464.235H2059.82M1986.29 464.235V530.412M2059.82 464.235H2133.35M2059.82 464.235V530.412M2133.35 464.235H2206.88M2133.35 464.235V530.412M2206.88 464.235H2280.41M2206.88 464.235V530.412M2280.41 464.235H2353.94M2280.41 464.235V530.412M2353.94 464.235H2427.47M2353.94 464.235V530.412M2427.47 464.235H2501M2427.47 464.235V530.412M2501 464.235V530.412M1324.53 530.412H1398.06M1324.53 530.412V596.588M1398.06 530.412H1471.59M1398.06 530.412V596.588M1471.59 530.412H1545.12M1471.59 530.412V596.588M1545.12 530.412H1618.65M1545.12 530.412V596.588M1618.65 530.412H1692.18M1618.65 530.412V596.588M1692.18 530.412H1765.71M1692.18 530.412V596.588M1765.71 530.412H1839.24M1765.71 530.412V596.588M1839.24 530.412H1912.76M1839.24 530.412V596.588M1912.76 530.412H1986.29M1912.76 530.412V596.588M1986.29 530.412H2059.82M1986.29 530.412V596.588M2059.82 530.412H2133.35M2059.82 530.412V596.588M2133.35 530.412H2206.88M2133.35 530.412V596.588M2206.88 530.412H2280.41M2206.88 530.412V596.588M2280.41 530.412H2353.94M2280.41 530.412V596.588M2353.94 530.412H2427.47M2353.94 530.412V596.588M2427.47 530.412H2501M2427.47 530.412V596.588M2501 530.412V596.588M1324.53 596.588H1398.06M1324.53 596.588V662.765M1398.06 596.588H1471.59M1398.06 596.588V662.765M1471.59 596.588H1545.12M1471.59 596.588V662.765M1545.12 596.588H1618.65M1545.12 596.588V662.765M1618.65 596.588H1692.18M1618.65 596.588V662.765M1692.18 596.588H1765.71M1692.18 596.588V662.765M1765.71 596.588H1839.24M1765.71 596.588V662.765M1839.24 596.588H1912.76M1839.24 596.588V662.765M1912.76 596.588H1986.29M1912.76 596.588V662.765M1986.29 596.588H2059.82M1986.29 596.588V662.765M2059.82 596.588H2133.35M2059.82 596.588V662.765M2133.35 596.588H2206.88M2133.35 596.588V662.765M2206.88 596.588H2280.41M2206.88 596.588V662.765M2280.41 596.588H2353.94M2280.41 596.588V662.765M2353.94 596.588H2427.47M2353.94 596.588V662.765M2427.47 596.588H2501M2427.47 596.588V662.765M2501 596.588V662.765M1324.53 662.765H1398.06M1324.53 662.765V728.941M1398.06 662.765H1471.59M1398.06 662.765V728.941M1471.59 662.765H1545.12M1471.59 662.765V728.941M1545.12 662.765H1618.65M1545.12 662.765V728.941M1618.65 662.765H1692.18M1618.65 662.765V728.941M1692.18 662.765H1765.71M1692.18 662.765V728.941M1765.71 662.765H1839.24M1765.71 662.765V728.941M1839.24 662.765H1912.76M1839.24 662.765V728.941M1912.76 662.765H1986.29M1912.76 662.765V728.941M1986.29 662.765H2059.82M1986.29 662.765V728.941M2059.82 662.765H2133.35M2059.82 662.765V728.941M2133.35 662.765H2206.88M2133.35 662.765V728.941M2206.88 662.765H2280.41M2206.88 662.765V728.941M2280.41 662.765H2353.94M2280.41 662.765V728.941M2353.94 662.765H2427.47M2353.94 662.765V728.941M2427.47 662.765H2501M2427.47 662.765V728.941M2501 662.765V728.941M1324.53 728.941H1398.06M1324.53 728.941V795.118M1398.06 728.941H1471.59M1398.06 728.941V795.118M1471.59 728.941H1545.12M1471.59 728.941V795.118M1545.12 728.941H1618.65M1545.12 728.941V795.118M1618.65 728.941H1692.18M1618.65 728.941V795.118M1692.18 728.941H1765.71M1692.18 728.941V795.118M1765.71 728.941H1839.24M1765.71 728.941V795.118M1839.24 728.941H1912.76M1839.24 728.941V795.118M1912.76 728.941H1986.29M1912.76 728.941V795.118M1986.29 728.941H2059.82M1986.29 728.941V795.118M2059.82 728.941H2133.35M2059.82 728.941V795.118M2133.35 728.941H2206.88M2133.35 728.941V795.118M2206.88 728.941H2280.41M2206.88 728.941V795.118M2280.41 728.941H2353.94M2280.41 728.941V795.118M2353.94 728.941H2427.47M2353.94 728.941V795.118M2427.47 728.941H2501M2427.47 728.941V795.118M2501 728.941V795.118H2427.47M1324.53 795.118H1398.06M1398.06 795.118H1471.59M1471.59 795.118H1545.12M1545.12 795.118H1618.65M1618.65 795.118H1692.18M1692.18 795.118H1765.71M1765.71 795.118H1839.24M1839.24 795.118H1912.76M1912.76 795.118H1986.29M1986.29 795.118H2059.82M2059.82 795.118H2133.35M2133.35 795.118H2206.88M2206.88 795.118H2280.41M2280.41 795.118H2353.94M2353.94 795.118H2427.47M1324.53 794.835V861.011M1324.53 794.835H1398.06M1324.53 861.011H1398.06M1324.53 861.011V927.188M1398.06 794.835V861.011M1398.06 794.835H1471.59M1398.06 861.011H1471.59M1398.06 861.011V927.188M1471.59 794.835V861.011M1471.59 794.835H1545.12M1471.59 861.011H1545.12M1471.59 861.011V927.188M1545.12 794.835V861.011M1545.12 794.835H1618.65M1545.12 861.011H1618.65M1545.12 861.011V927.188M1618.65 794.835V861.011M1618.65 794.835H1692.18M1618.65 861.011H1692.18M1618.65 861.011V927.188M1692.18 794.835V861.011M1692.18 794.835H1765.71M1692.18 861.011H1765.71M1692.18 861.011V927.188M1765.71 794.835V861.011M1765.71 794.835H1839.24M1765.71 861.011H1839.24M1765.71 861.011V927.188M1839.24 794.835V861.011M1839.24 794.835H1912.76M1839.24 861.011H1912.76M1839.24 861.011V927.188M1912.76 794.835V861.011M1912.76 794.835H1986.29M1912.76 861.011H1986.29M1912.76 861.011V927.188M1986.29 794.835V861.011M1986.29 794.835H2059.82M1986.29 861.011H2059.82M1986.29 861.011V927.188M2059.82 794.835V861.011M2059.82 794.835H2133.35M2059.82 861.011H2133.35M2059.82 861.011V927.188M2133.35 794.835V861.011M2133.35 794.835H2206.88M2133.35 861.011H2206.88M2133.35 861.011V927.188M2206.88 794.835V861.011M2206.88 794.835H2280.41M2206.88 861.011H2280.41M2206.88 861.011V927.188M2280.41 794.835V861.011M2280.41 794.835H2353.94M2280.41 861.011H2353.94M2280.41 861.011V927.188M2353.94 794.835V861.011M2353.94 794.835H2427.47M2353.94 861.011H2427.47M2353.94 861.011V927.188M2427.47 794.835V861.011M2427.47 794.835H2501V861.011M2427.47 861.011H2501M2427.47 861.011V927.188M2501 861.011V927.188M1324.53 927.188H1398.06M1324.53 927.188V993.364M1398.06 927.188H1471.59M1398.06 927.188V993.364M1471.59 927.188H1545.12M1471.59 927.188V993.364M1545.12 927.188H1618.65M1545.12 927.188V993.364M1618.65 927.188H1692.18M1618.65 927.188V993.364M1692.18 927.188H1765.71M1692.18 927.188V993.364M1765.71 927.188H1839.24M1765.71 927.188V993.364M1839.24 927.188H1912.76M1839.24 927.188V993.364M1912.76 927.188H1986.29M1912.76 927.188V993.364M1986.29 927.188H2059.82M1986.29 927.188V993.364M2059.82 927.188H2133.35M2059.82 927.188V993.364M2133.35 927.188H2206.88M2133.35 927.188V993.364M2206.88 927.188H2280.41M2206.88 927.188V993.364M2280.41 927.188H2353.94M2280.41 927.188V993.364M2353.94 927.188H2427.47M2353.94 927.188V993.364M2427.47 927.188H2501M2427.47 927.188V993.364M2501 927.188V993.364M1324.53 993.364H1398.06M1324.53 993.364V1059.54M1398.06 993.364H1471.59M1398.06 993.364V1059.54M1471.59 993.364H1545.12M1471.59 993.364V1059.54M1545.12 993.364H1618.65M1545.12 993.364V1059.54M1618.65 993.364H1692.18M1618.65 993.364V1059.54M1692.18 993.364H1765.71M1692.18 993.364V1059.54M1765.71 993.364H1839.24M1765.71 993.364V1059.54M1839.24 993.364H1912.76M1839.24 993.364V1059.54M1912.76 993.364H1986.29M1912.76 993.364V1059.54M1986.29 993.364H2059.82M1986.29 993.364V1059.54M2059.82 993.364H2133.35M2059.82 993.364V1059.54M2133.35 993.364H2206.88M2133.35 993.364V1059.54M2206.88 993.364H2280.41M2206.88 993.364V1059.54M2280.41 993.364H2353.94M2280.41 993.364V1059.54M2353.94 993.364H2427.47M2353.94 993.364V1059.54M2427.47 993.364H2501M2427.47 993.364V1059.54M2501 993.364V1059.54M1324.53 1059.54H1398.06M1324.53 1059.54V1125.72M1398.06 1059.54H1471.59M1398.06 1059.54V1125.72M1471.59 1059.54H1545.12M1471.59 1059.54V1125.72M1545.12 1059.54H1618.65M1545.12 1059.54V1125.72M1618.65 1059.54H1692.18M1618.65 1059.54V1125.72M1692.18 1059.54H1765.71M1692.18 1059.54V1125.72M1765.71 1059.54H1839.24M1765.71 1059.54V1125.72M1839.24 1059.54H1912.76M1839.24 1059.54V1125.72M1912.76 1059.54H1986.29M1912.76 1059.54V1125.72M1986.29 1059.54H2059.82M1986.29 1059.54V1125.72M2059.82 1059.54H2133.35M2059.82 1059.54V1125.72M2133.35 1059.54H2206.88M2133.35 1059.54V1125.72M2206.88 1059.54H2280.41M2206.88 1059.54V1125.72M2280.41 1059.54H2353.94M2280.41 1059.54V1125.72M2353.94 1059.54H2427.47M2353.94 1059.54V1125.72M2427.47 1059.54H2501M2427.47 1059.54V1125.72M2501 1059.54V1125.72M1324.53 1125.72H1398.06M1324.53 1125.72V1191.89M1398.06 1125.72H1471.59M1398.06 1125.72V1191.89M1471.59 1125.72H1545.12M1471.59 1125.72V1191.89M1545.12 1125.72H1618.65M1545.12 1125.72V1191.89M1618.65 1125.72H1692.18M1618.65 1125.72V1191.89M1692.18 1125.72H1765.71M1692.18 1125.72V1191.89M1765.71 1125.72H1839.24M1765.71 1125.72V1191.89M1839.24 1125.72H1912.76M1839.24 1125.72V1191.89M1912.76 1125.72H1986.29M1912.76 1125.72V1191.89M1986.29 1125.72H2059.82M1986.29 1125.72V1191.89M2059.82 1125.72H2133.35M2059.82 1125.72V1191.89M2133.35 1125.72H2206.88M2133.35 1125.72V1191.89M2206.88 1125.72H2280.41M2206.88 1125.72V1191.89M2280.41 1125.72H2353.94M2280.41 1125.72V1191.89M2353.94 1125.72H2427.47M2353.94 1125.72V1191.89M2427.47 1125.72H2501M2427.47 1125.72V1191.89M2501 1125.72V1191.89M1324.53 1191.89H1398.06M1324.53 1191.89V1258.07M1398.06 1191.89H1471.59M1398.06 1191.89V1258.07M1471.59 1191.89H1545.12M1471.59 1191.89V1258.07M1545.12 1191.89H1618.65M1545.12 1191.89V1258.07M1618.65 1191.89H1692.18M1618.65 1191.89V1258.07M1692.18 1191.89H1765.71M1692.18 1191.89V1258.07M1765.71 1191.89H1839.24M1765.71 1191.89V1258.07M1839.24 1191.89H1912.76M1839.24 1191.89V1258.07M1912.76 1191.89H1986.29M1912.76 1191.89V1258.07M1986.29 1191.89H2059.82M1986.29 1191.89V1258.07M2059.82 1191.89H2133.35M2059.82 1191.89V1258.07M2133.35 1191.89H2206.88M2133.35 1191.89V1258.07M2206.88 1191.89H2280.41M2206.88 1191.89V1258.07M2280.41 1191.89H2353.94M2280.41 1191.89V1258.07M2353.94 1191.89H2427.47M2353.94 1191.89V1258.07M2427.47 1191.89H2501M2427.47 1191.89V1258.07M2501 1191.89V1258.07M1324.53 1258.07H1398.06M1324.53 1258.07V1324.25M1398.06 1258.07H1471.59M1398.06 1258.07V1324.25M1471.59 1258.07H1545.12M1471.59 1258.07V1324.25M1545.12 1258.07H1618.65M1545.12 1258.07V1324.25M1618.65 1258.07H1692.18M1618.65 1258.07V1324.25M1692.18 1258.07H1765.71M1692.18 1258.07V1324.25M1765.71 1258.07H1839.24M1765.71 1258.07V1324.25M1839.24 1258.07H1912.76M1839.24 1258.07V1324.25M1912.76 1258.07H1986.29M1912.76 1258.07V1324.25M1986.29 1258.07H2059.82M1986.29 1258.07V1324.25M2059.82 1258.07H2133.35M2059.82 1258.07V1324.25M2133.35 1258.07H2206.88M2133.35 1258.07V1324.25M2206.88 1258.07H2280.41M2206.88 1258.07V1324.25M2280.41 1258.07H2353.94M2280.41 1258.07V1324.25M2353.94 1258.07H2427.47M2353.94 1258.07V1324.25M2427.47 1258.07H2501M2427.47 1258.07V1324.25M2501 1258.07V1324.25M1324.53 1324.25H1398.06M1324.53 1324.25V1390.42M1398.06 1324.25H1471.59M1398.06 1324.25V1390.42M1471.59 1324.25H1545.12M1471.59 1324.25V1390.42M1545.12 1324.25H1618.65M1545.12 1324.25V1390.42M1618.65 1324.25H1692.18M1618.65 1324.25V1390.42M1692.18 1324.25H1765.71M1692.18 1324.25V1390.42M1765.71 1324.25H1839.24M1765.71 1324.25V1390.42M1839.24 1324.25H1912.76M1839.24 1324.25V1390.42M1912.76 1324.25H1986.29M1912.76 1324.25V1390.42M1986.29 1324.25H2059.82M1986.29 1324.25V1390.42M2059.82 1324.25H2133.35M2059.82 1324.25V1390.42M2133.35 1324.25H2206.88M2133.35 1324.25V1390.42M2206.88 1324.25H2280.41M2206.88 1324.25V1390.42M2280.41 1324.25H2353.94M2280.41 1324.25V1390.42M2353.94 1324.25H2427.47M2353.94 1324.25V1390.42M2427.47 1324.25H2501M2427.47 1324.25V1390.42M2501 1324.25V1390.42M1324.53 1390.42H1398.06M1324.53 1390.42V1456.6M1398.06 1390.42H1471.59M1398.06 1390.42V1456.6M1471.59 1390.42H1545.12M1471.59 1390.42V1456.6M1545.12 1390.42H1618.65M1545.12 1390.42V1456.6M1618.65 1390.42H1692.18M1618.65 1390.42V1456.6M1692.18 1390.42H1765.71M1692.18 1390.42V1456.6M1765.71 1390.42H1839.24M1765.71 1390.42V1456.6M1839.24 1390.42H1912.76M1839.24 1390.42V1456.6M1912.76 1390.42H1986.29M1912.76 1390.42V1456.6M1986.29 1390.42H2059.82M1986.29 1390.42V1456.6M2059.82 1390.42H2133.35M2059.82 1390.42V1456.6M2133.35 1390.42H2206.88M2133.35 1390.42V1456.6M2206.88 1390.42H2280.41M2206.88 1390.42V1456.6M2280.41 1390.42H2353.94M2280.41 1390.42V1456.6M2353.94 1390.42H2427.47M2353.94 1390.42V1456.6M2427.47 1390.42H2501M2427.47 1390.42V1456.6M2501 1390.42V1456.6M1324.53 1456.6H1398.06M1324.53 1456.6V1522.78M1398.06 1456.6H1471.59M1398.06 1456.6V1522.78M1471.59 1456.6H1545.12M1471.59 1456.6V1522.78M1545.12 1456.6H1618.65M1545.12 1456.6V1522.78M1618.65 1456.6H1692.18M1618.65 1456.6V1522.78M1692.18 1456.6H1765.71M1692.18 1456.6V1522.78M1765.71 1456.6H1839.24M1765.71 1456.6V1522.78M1839.24 1456.6H1912.76M1839.24 1456.6V1522.78M1912.76 1456.6H1986.29M1912.76 1456.6V1522.78M1986.29 1456.6H2059.82M1986.29 1456.6V1522.78M2059.82 1456.6H2133.35M2059.82 1456.6V1522.78M2133.35 1456.6H2206.88M2133.35 1456.6V1522.78M2206.88 1456.6H2280.41M2206.88 1456.6V1522.78M2280.41 1456.6H2353.94M2280.41 1456.6V1522.78M2353.94 1456.6H2427.47M2353.94 1456.6V1522.78M2427.47 1456.6H2501M2427.47 1456.6V1522.78M2501 1456.6V1522.78M1324.53 1522.78H1398.06M1324.53 1522.78V1588.95M1398.06 1522.78H1471.59M1398.06 1522.78V1588.95M1471.59 1522.78H1545.12M1471.59 1522.78V1588.95M1545.12 1522.78H1618.65M1545.12 1522.78V1588.95M1618.65 1522.78H1692.18M1618.65 1522.78V1588.95M1692.18 1522.78H1765.71M1692.18 1522.78V1588.95M1765.71 1522.78H1839.24M1765.71 1522.78V1588.95M1839.24 1522.78H1912.76M1839.24 1522.78V1588.95M1912.76 1522.78H1986.29M1912.76 1522.78V1588.95M1986.29 1522.78H2059.82M1986.29 1522.78V1588.95M2059.82 1522.78H2133.35M2059.82 1522.78V1588.95M2133.35 1522.78H2206.88M2133.35 1522.78V1588.95M2206.88 1522.78H2280.41M2206.88 1522.78V1588.95M2280.41 1522.78H2353.94M2280.41 1522.78V1588.95M2353.94 1522.78H2427.47M2353.94 1522.78V1588.95M2427.47 1522.78H2501M2427.47 1522.78V1588.95M2501 1522.78V1588.95H2427.47M1324.53 1588.95H1398.06M1398.06 1588.95H1471.59M1471.59 1588.95H1545.12M1545.12 1588.95H1618.65M1618.65 1588.95H1692.18M1692.18 1588.95H1765.71M1765.71 1588.95H1839.24M1839.24 1588.95H1912.76M1912.76 1588.95H1986.29M1986.29 1588.95H2059.82M2059.82 1588.95H2133.35M2133.35 1588.95H2206.88M2206.88 1588.95H2280.41M2280.41 1588.95H2353.94M2353.94 1588.95H2427.47" stroke="url(#paint0_radial_45_9672)"/>
<defs>
<radialGradient id="paint0_radial_45_9672" cx="0" cy="0" r="1" gradientUnits="userSpaceOnUse" gradientTransform="translate(1251 474.699) rotate(90) scale(542.279 542.279)">
<stop stop-color="white"/>
<stop offset="1" stop-color="white" stop-opacity="0"/>
</radialGradient>
</defs>
</svg>
