<svg width="1440" height="900" viewBox="0 0 1440 900" fill="none" xmlns="http://www.w3.org/2000/svg">
<g opacity="0.08">
<path d="M-232 -160H-284V-113.2M-232 -160V-113.2M-232 -160H-180M-232 -113.2H-284M-232 -113.2H-180M-232 -113.2V-66.4M-284 -113.2V-66.4M-180 -160V-113.2M-180 -160H-128M-180 -113.2H-128M-180 -113.2V-66.4M-128 -160V-113.2M-128 -160H-76M-128 -113.2H-76M-128 -113.2V-66.4M-76 -160V-113.2M-76 -160H-24M-76 -113.2H-24M-76 -113.2V-66.4M-24 -160V-113.2M-24 -160H28M-24 -113.2H28M-24 -113.2V-66.4M28 -160V-113.2M28 -160H80M28 -113.2H80M28 -113.2V-66.4M80 -160V-113.2M80 -160H132M80 -113.2H132M80 -113.2V-66.4M132 -160V-113.2M132 -160H184M132 -113.2H184M132 -113.2V-66.4M184 -160V-113.2M184 -160H236M184 -113.2H236M184 -113.2V-66.4M236 -160V-113.2M236 -160H288M236 -113.2H288M236 -113.2V-66.4M288 -160V-113.2M288 -160H340M288 -113.2H340M288 -113.2V-66.4M340 -160V-113.2M340 -160H392M340 -113.2H392M340 -113.2V-66.4M392 -160V-113.2M392 -160H444M392 -113.2H444M392 -113.2V-66.4M444 -160V-113.2M444 -160H496M444 -113.2H496M444 -113.2V-66.4M496 -160V-113.2M496 -160H548M496 -113.2H548M496 -113.2V-66.4M548 -160V-113.2M548 -160H600M548 -113.2H600M548 -113.2V-66.4M600 -160V-113.2M600 -160H652M600 -113.2V-66.4M600 -113.2H652M-232 -66.4H-284M-232 -66.4H-180M-232 -66.4V-19.6M-284 -66.4V-19.6M-180 -66.4H-128M-180 -66.4V-19.6M-128 -66.4H-76M-128 -66.4V-19.6M-76 -66.4H-24M-76 -66.4V-19.6M-24 -66.4H28M-24 -66.4V-19.6M28 -66.4H80M28 -66.4V-19.6M80 -66.4H132M80 -66.4V-19.6M132 -66.4H184M132 -66.4V-19.6M184 -66.4H236M184 -66.4V-19.6M236 -66.4H288M236 -66.4V-19.6M288 -66.4H340M288 -66.4V-19.6M340 -66.4H392M340 -66.4V-19.6M392 -66.4H444M392 -66.4V-19.6M444 -66.4H496M444 -66.4V-19.6M496 -66.4H548M496 -66.4V-19.6M548 -66.4H600M548 -66.4V-19.6M600 -66.4V-19.6M600 -66.4H652M-232 -19.6H-284M-232 -19.6H-180M-232 -19.6V27.2M-284 -19.6V27.2M-180 -19.6H-128M-180 -19.6V27.2M-128 -19.6H-76M-128 -19.6V27.2M-76 -19.6H-24M-76 -19.6V27.2M-24 -19.6H28M-24 -19.6V27.2M28 -19.6H80M28 -19.6V27.2M80 -19.6H132M80 -19.6V27.2M132 -19.6H184M132 -19.6V27.2M184 -19.6H236M184 -19.6V27.2M236 -19.6H288M236 -19.6V27.2M288 -19.6H340M288 -19.6V27.2M340 -19.6H392M340 -19.6V27.2M392 -19.6H444M392 -19.6V27.2M444 -19.6H496M444 -19.6V27.2M496 -19.6H548M496 -19.6V27.2M548 -19.6H600M548 -19.6V27.2M600 -19.6V27.2M600 -19.6H652M-232 27.2H-284M-232 27.2H-180M-232 27.2V74M-284 27.2V74M-180 27.2H-128M-180 27.2V74M-128 27.2H-76M-128 27.2V74M-76 27.2H-24M-76 27.2V74M-24 27.2H28M-24 27.2V74M28 27.2H80M28 27.2V74M80 27.2H132M80 27.2V74M132 27.2H184M132 27.2V74M184 27.2H236M184 27.2V74M236 27.2H288M236 27.2V74M288 27.2H340M288 27.2V74M340 27.2H392M340 27.2V74M392 27.2H444M392 27.2V74M444 27.2H496M444 27.2V74M496 27.2H548M496 27.2V74M548 27.2H600M548 27.2V74M600 27.2V74M600 27.2H652M-232 74H-284M-232 74H-180M-232 74V120.8M-284 74V120.8M-180 74H-128M-180 74V120.8M-128 74H-76M-128 74V120.8M-76 74H-24M-76 74V120.8M-24 74H28M-24 74V120.8M28 74H80M28 74V120.8M80 74H132M80 74V120.8M132 74H184M132 74V120.8M184 74H236M184 74V120.8M236 74H288M236 74V120.8M288 74H340M288 74V120.8M340 74H392M340 74V120.8M392 74H444M392 74V120.8M444 74H496M444 74V120.8M496 74H548M496 74V120.8M548 74H600M548 74V120.8M600 74V120.8M600 74H652M-232 120.8H-284M-232 120.8H-180M-232 120.8V167.6M-284 120.8V167.6M-180 120.8H-128M-180 120.8V167.6M-128 120.8H-76M-128 120.8V167.6M-76 120.8H-24M-76 120.8V167.6M-24 120.8H28M-24 120.8V167.6M28 120.8H80M28 120.8V167.6M80 120.8H132M80 120.8V167.6M132 120.8H184M132 120.8V167.6M184 120.8H236M184 120.8V167.6M236 120.8H288M236 120.8V167.6M288 120.8H340M288 120.8V167.6M340 120.8H392M340 120.8V167.6M392 120.8H444M392 120.8V167.6M444 120.8H496M444 120.8V167.6M496 120.8H548M496 120.8V167.6M548 120.8H600M548 120.8V167.6M600 120.8V167.6M600 120.8H652M-232 167.6H-284M-232 167.6H-180M-232 167.6V214.4M-284 167.6V214.4M-180 167.6H-128M-180 167.6V214.4M-128 167.6H-76M-128 167.6V214.4M-76 167.6H-24M-76 167.6V214.4M-24 167.6H28M-24 167.6V214.4M28 167.6H80M28 167.6V214.4M80 167.6H132M80 167.6V214.4M132 167.6H184M132 167.6V214.4M184 167.6H236M184 167.6V214.4M236 167.6H288M236 167.6V214.4M288 167.6H340M288 167.6V214.4M340 167.6H392M340 167.6V214.4M392 167.6H444M392 167.6V214.4M444 167.6H496M444 167.6V214.4M496 167.6H548M496 167.6V214.4M548 167.6H600M548 167.6V214.4M600 167.6V214.4M600 167.6H652M-232 214.4H-284M-232 214.4H-180M-232 214.4V261.2M-284 214.4V261.2M-180 214.4H-128M-180 214.4V261.2M-128 214.4H-76M-128 214.4V261.2M-76 214.4H-24M-76 214.4V261.2M-24 214.4H28M-24 214.4V261.2M28 214.4H80M28 214.4V261.2M80 214.4H132M80 214.4V261.2M132 214.4H184M132 214.4V261.2M184 214.4H236M184 214.4V261.2M236 214.4H288M236 214.4V261.2M288 214.4H340M288 214.4V261.2M340 214.4H392M340 214.4V261.2M392 214.4H444M392 214.4V261.2M444 214.4H496M444 214.4V261.2M496 214.4H548M496 214.4V261.2M548 214.4H600M548 214.4V261.2M600 214.4V261.2M600 214.4H652M-232 261.2H-284M-232 261.2H-180M-232 261.2V308M-284 261.2V308M-180 261.2H-128M-180 261.2V308M-128 261.2H-76M-128 261.2V308M-76 261.2H-24M-76 261.2V308M-24 261.2H28M-24 261.2V308M28 261.2H80M28 261.2V308M80 261.2H132M80 261.2V308M132 261.2H184M132 261.2V308M184 261.2H236M184 261.2V308M236 261.2H288M236 261.2V308M288 261.2H340M288 261.2V308M340 261.2H392M340 261.2V308M392 261.2H444M392 261.2V308M444 261.2H496M444 261.2V308M496 261.2H548M496 261.2V308M548 261.2H600M548 261.2V308M600 261.2V308M600 261.2H652M-232 308H-284M-232 308H-180M-232 308V354.8M-284 308V354.8M-180 308H-128M-180 308V354.8M-128 308H-76M-128 308V354.8M-76 308H-24M-76 308V354.8M-24 308H28M-24 308V354.8M28 308H80M28 308V354.8M80 308H132M80 308V354.8M132 308H184M132 308V354.8M184 308H236M184 308V354.8M236 308H288M236 308V354.8M288 308H340M288 308V354.8M340 308H392M340 308V354.8M392 308H444M392 308V354.8M444 308H496M444 308V354.8M496 308H548M496 308V354.8M548 308H600M548 308V354.8M600 308V354.8M600 308H652M-232 354.8H-284M-232 354.8H-180M-232 354.8V401.6M-284 354.8V401.6H-232M-180 354.8H-128M-180 354.8V401.6M-128 354.8H-76M-128 354.8V401.6M-76 354.8H-24M-76 354.8V401.6M-24 354.8H28M-24 354.8V401.6M28 354.8H80M28 354.8V401.6M80 354.8H132M80 354.8V401.6M132 354.8H184M132 354.8V401.6M184 354.8H236M184 354.8V401.6M236 354.8H288M236 354.8V401.6M288 354.8H340M288 354.8V401.6M340 354.8H392M340 354.8V401.6M392 354.8H444M392 354.8V401.6M444 354.8H496M444 354.8V401.6M496 354.8H548M496 354.8V401.6M548 354.8H600M548 354.8V401.6M600 354.8V401.6M600 354.8H652M-232 401.6H-180M-180 401.6H-128M-128 401.6H-76M-76 401.6H-24M-24 401.6H28M28 401.6H80M80 401.6H132M132 401.6H184M184 401.6H236M236 401.6H288M288 401.6H340M340 401.6H392M392 401.6H444M444 401.6H496M496 401.6H548M548 401.6H600M600 401.6H652M-232 401.4H-284V448.2M-232 401.4V448.2M-232 401.4H-180M-232 448.2H-284M-232 448.2H-180M-232 448.2V495M-284 448.2V495M-180 401.4V448.2M-180 401.4H-128M-180 448.2H-128M-180 448.2V495M-128 401.4V448.2M-128 401.4H-76M-128 448.2H-76M-128 448.2V495M-76 401.4V448.2M-76 401.4H-24M-76 448.2H-24M-76 448.2V495M-24 401.4V448.2M-24 401.4H28M-24 448.2H28M-24 448.2V495M28 401.4V448.2M28 401.4H80M28 448.2H80M28 448.2V495M80 401.4V448.2M80 401.4H132M80 448.2H132M80 448.2V495M132 401.4V448.2M132 401.4H184M132 448.2H184M132 448.2V495M184 401.4V448.2M184 401.4H236M184 448.2H236M184 448.2V495M236 401.4V448.2M236 401.4H288M236 448.2H288M236 448.2V495M288 401.4V448.2M288 401.4H340M288 448.2H340M288 448.2V495M340 401.4V448.2M340 401.4H392M340 448.2H392M340 448.2V495M392 401.4V448.2M392 401.4H444M392 448.2H444M392 448.2V495M444 401.4V448.2M444 401.4H496M444 448.2H496M444 448.2V495M496 401.4V448.2M496 401.4H548M496 448.2H548M496 448.2V495M548 401.4V448.2M548 401.4H600M548 448.2H600M548 448.2V495M600 401.4V448.2M600 401.4H652M600 448.2V495M600 448.2H652M-232 495H-284M-232 495H-180M-232 495V541.8M-284 495V541.8M-180 495H-128M-180 495V541.8M-128 495H-76M-128 495V541.8M-76 495H-24M-76 495V541.8M-24 495H28M-24 495V541.8M28 495H80M28 495V541.8M80 495H132M80 495V541.8M132 495H184M132 495V541.8M184 495H236M184 495V541.8M236 495H288M236 495V541.8M288 495H340M288 495V541.8M340 495H392M340 495V541.8M392 495H444M392 495V541.8M444 495H496M444 495V541.8M496 495H548M496 495V541.8M548 495H600M548 495V541.8M600 495V541.8M600 495H652M-232 541.8H-284M-232 541.8H-180M-232 541.8V588.6M-284 541.8V588.6M-180 541.8H-128M-180 541.8V588.6M-128 541.8H-76M-128 541.8V588.6M-76 541.8H-24M-76 541.8V588.6M-24 541.8H28M-24 541.8V588.6M28 541.8H80M28 541.8V588.6M80 541.8H132M80 541.8V588.6M132 541.8H184M132 541.8V588.6M184 541.8H236M184 541.8V588.6M236 541.8H288M236 541.8V588.6M288 541.8H340M288 541.8V588.6M340 541.8H392M340 541.8V588.6M392 541.8H444M392 541.8V588.6M444 541.8H496M444 541.8V588.6M496 541.8H548M496 541.8V588.6M548 541.8H600M548 541.8V588.6M600 541.8V588.6M600 541.8H652M-232 588.6H-284M-232 588.6H-180M-232 588.6V635.4M-284 588.6V635.4M-180 588.6H-128M-180 588.6V635.4M-128 588.6H-76M-128 588.6V635.4M-76 588.6H-24M-76 588.6V635.4M-24 588.6H28M-24 588.6V635.4M28 588.6H80M28 588.6V635.4M80 588.6H132M80 588.6V635.4M132 588.6H184M132 588.6V635.4M184 588.6H236M184 588.6V635.4M236 588.6H288M236 588.6V635.4M288 588.6H340M288 588.6V635.4M340 588.6H392M340 588.6V635.4M392 588.6H444M392 588.6V635.4M444 588.6H496M444 588.6V635.4M496 588.6H548M496 588.6V635.4M548 588.6H600M548 588.6V635.4M600 588.6V635.4M600 588.6H652M-232 635.4H-284M-232 635.4H-180M-232 635.4V682.2M-284 635.4V682.2M-180 635.4H-128M-180 635.4V682.2M-128 635.4H-76M-128 635.4V682.2M-76 635.4H-24M-76 635.4V682.2M-24 635.4H28M-24 635.4V682.2M28 635.4H80M28 635.4V682.2M80 635.4H132M80 635.4V682.2M132 635.4H184M132 635.4V682.2M184 635.4H236M184 635.4V682.2M236 635.4H288M236 635.4V682.2M288 635.4H340M288 635.4V682.2M340 635.4H392M340 635.4V682.2M392 635.4H444M392 635.4V682.2M444 635.4H496M444 635.4V682.2M496 635.4H548M496 635.4V682.2M548 635.4H600M548 635.4V682.2M600 635.4V682.2M600 635.4H652M-232 682.2H-284M-232 682.2H-180M-232 682.2V729M-284 682.2V729M-180 682.2H-128M-180 682.2V729M-128 682.2H-76M-128 682.2V729M-76 682.2H-24M-76 682.2V729M-24 682.2H28M-24 682.2V729M28 682.2H80M28 682.2V729M80 682.2H132M80 682.2V729M132 682.2H184M132 682.2V729M184 682.2H236M184 682.2V729M236 682.2H288M236 682.2V729M288 682.2H340M288 682.2V729M340 682.2H392M340 682.2V729M392 682.2H444M392 682.2V729M444 682.2H496M444 682.2V729M496 682.2H548M496 682.2V729M548 682.2H600M548 682.2V729M600 682.2V729M600 682.2H652M-232 729H-284M-232 729H-180M-232 729V775.8M-284 729V775.8M-180 729H-128M-180 729V775.8M-128 729H-76M-128 729V775.8M-76 729H-24M-76 729V775.8M-24 729H28M-24 729V775.8M28 729H80M28 729V775.8M80 729H132M80 729V775.8M132 729H184M132 729V775.8M184 729H236M184 729V775.8M236 729H288M236 729V775.8M288 729H340M288 729V775.8M340 729H392M340 729V775.8M392 729H444M392 729V775.8M444 729H496M444 729V775.8M496 729H548M496 729V775.8M548 729H600M548 729V775.8M600 729V775.8M600 729H652M-232 775.8H-284M-232 775.8H-180M-232 775.8V822.6M-284 775.8V822.6M-180 775.8H-128M-180 775.8V822.6M-128 775.8H-76M-128 775.8V822.6M-76 775.8H-24M-76 775.8V822.6M-24 775.8H28M-24 775.8V822.6M28 775.8H80M28 775.8V822.6M80 775.8H132M80 775.8V822.6M132 775.8H184M132 775.8V822.6M184 775.8H236M184 775.8V822.6M236 775.8H288M236 775.8V822.6M288 775.8H340M288 775.8V822.6M340 775.8H392M340 775.8V822.6M392 775.8H444M392 775.8V822.6M444 775.8H496M444 775.8V822.6M496 775.8H548M496 775.8V822.6M548 775.8H600M548 775.8V822.6M600 775.8V822.6M600 775.8H652M-232 822.6H-284M-232 822.6H-180M-232 822.6V869.4M-284 822.6V869.4M-180 822.6H-128M-180 822.6V869.4M-128 822.6H-76M-128 822.6V869.4M-76 822.6H-24M-76 822.6V869.4M-24 822.6H28M-24 822.6V869.4M28 822.6H80M28 822.6V869.4M80 822.6H132M80 822.6V869.4M132 822.6H184M132 822.6V869.4M184 822.6H236M184 822.6V869.4M236 822.6H288M236 822.6V869.4M288 822.6H340M288 822.6V869.4M340 822.6H392M340 822.6V869.4M392 822.6H444M392 822.6V869.4M444 822.6H496M444 822.6V869.4M496 822.6H548M496 822.6V869.4M548 822.6H600M548 822.6V869.4M600 822.6V869.4M600 822.6H652M-232 869.4H-284M-232 869.4H-180M-232 869.4V916.2M-284 869.4V916.2M-180 869.4H-128M-180 869.4V916.2M-128 869.4H-76M-128 869.4V916.2M-76 869.4H-24M-76 869.4V916.2M-24 869.4H28M-24 869.4V916.2M28 869.4H80M28 869.4V916.2M80 869.4H132M80 869.4V916.2M132 869.4H184M132 869.4V916.2M184 869.4H236M184 869.4V916.2M236 869.4H288M236 869.4V916.2M288 869.4H340M288 869.4V916.2M340 869.4H392M340 869.4V916.2M392 869.4H444M392 869.4V916.2M444 869.4H496M444 869.4V916.2M496 869.4H548M496 869.4V916.2M548 869.4H600M548 869.4V916.2M600 869.4V916.2M600 869.4H652M-232 916.2H-284M-232 916.2H-180M-232 916.2V963M-284 916.2V963H-232M-180 916.2H-128M-180 916.2V963M-128 916.2H-76M-128 916.2V963M-76 916.2H-24M-76 916.2V963M-24 916.2H28M-24 916.2V963M28 916.2H80M28 916.2V963M80 916.2H132M80 916.2V963M132 916.2H184M132 916.2V963M184 916.2H236M184 916.2V963M236 916.2H288M236 916.2V963M288 916.2H340M288 916.2V963M340 916.2H392M340 916.2V963M392 916.2H444M392 916.2V963M444 916.2H496M444 916.2V963M496 916.2H548M496 916.2V963M548 916.2H600M548 916.2V963M600 916.2V963M600 916.2H652M-232 963H-180M-180 963H-128M-128 963H-76M-76 963H-24M-24 963H28M28 963H80M80 963H132M132 963H184M184 963H236M236 963H288M288 963H340M340 963H392M392 963H444M444 963H496M496 963H548M548 963H600M600 963H652M652 -160V-113.2M652 -160H704M652 -113.2H704M652 -113.2V-66.4M704 -160V-113.2M704 -160H756M704 -113.2H756M704 -113.2V-66.4M756 -160V-113.2M756 -160H808M756 -113.2H808M756 -113.2V-66.4M808 -160V-113.2M808 -160H860M808 -113.2H860M808 -113.2V-66.4M860 -160V-113.2M860 -160H912M860 -113.2H912M860 -113.2V-66.4M912 -160V-113.2M912 -160H964M912 -113.2H964M912 -113.2V-66.4M964 -160V-113.2M964 -160H1016M964 -113.2H1016M964 -113.2V-66.4M1016 -160V-113.2M1016 -160H1068M1016 -113.2H1068M1016 -113.2V-66.4M1068 -160V-113.2M1068 -160H1120M1068 -113.2H1120M1068 -113.2V-66.4M1120 -160V-113.2M1120 -160H1172M1120 -113.2H1172M1120 -113.2V-66.4M1172 -160V-113.2M1172 -160H1224M1172 -113.2H1224M1172 -113.2V-66.4M1224 -160V-113.2M1224 -160H1276M1224 -113.2H1276M1224 -113.2V-66.4M1276 -160V-113.2M1276 -160H1328M1276 -113.2H1328M1276 -113.2V-66.4M1328 -160V-113.2M1328 -160H1380M1328 -113.2H1380M1328 -113.2V-66.4M1380 -160V-113.2M1380 -160H1432M1380 -113.2H1432M1380 -113.2V-66.4M1432 -160V-113.2M1432 -160H1484V-113.2M1432 -113.2H1484M1432 -113.2V-66.4M1484 -113.2V-66.4M652 -66.4H704M652 -66.4V-19.6M704 -66.4H756M704 -66.4V-19.6M756 -66.4H808M756 -66.4V-19.6M808 -66.4H860M808 -66.4V-19.6M860 -66.4H912M860 -66.4V-19.6M912 -66.4H964M912 -66.4V-19.6M964 -66.4H1016M964 -66.4V-19.6M1016 -66.4H1068M1016 -66.4V-19.6M1068 -66.4H1120M1068 -66.4V-19.6M1120 -66.4H1172M1120 -66.4V-19.6M1172 -66.4H1224M1172 -66.4V-19.6M1224 -66.4H1276M1224 -66.4V-19.6M1276 -66.4H1328M1276 -66.4V-19.6M1328 -66.4H1380M1328 -66.4V-19.6M1380 -66.4H1432M1380 -66.4V-19.6M1432 -66.4H1484M1432 -66.4V-19.6M1484 -66.4V-19.6M652 -19.6H704M652 -19.6V27.2M704 -19.6H756M704 -19.6V27.2M756 -19.6H808M756 -19.6V27.2M808 -19.6H860M808 -19.6V27.2M860 -19.6H912M860 -19.6V27.2M912 -19.6H964M912 -19.6V27.2M964 -19.6H1016M964 -19.6V27.2M1016 -19.6H1068M1016 -19.6V27.2M1068 -19.6H1120M1068 -19.6V27.2M1120 -19.6H1172M1120 -19.6V27.2M1172 -19.6H1224M1172 -19.6V27.2M1224 -19.6H1276M1224 -19.6V27.2M1276 -19.6H1328M1276 -19.6V27.2M1328 -19.6H1380M1328 -19.6V27.2M1380 -19.6H1432M1380 -19.6V27.2M1432 -19.6H1484M1432 -19.6V27.2M1484 -19.6V27.2M652 27.2H704M652 27.2V74M704 27.2H756M704 27.2V74M756 27.2H808M756 27.2V74M808 27.2H860M808 27.2V74M860 27.2H912M860 27.2V74M912 27.2H964M912 27.2V74M964 27.2H1016M964 27.2V74M1016 27.2H1068M1016 27.2V74M1068 27.2H1120M1068 27.2V74M1120 27.2H1172M1120 27.2V74M1172 27.2H1224M1172 27.2V74M1224 27.2H1276M1224 27.2V74M1276 27.2H1328M1276 27.2V74M1328 27.2H1380M1328 27.2V74M1380 27.2H1432M1380 27.2V74M1432 27.2H1484M1432 27.2V74M1484 27.2V74M652 74H704M652 74V120.8M704 74H756M704 74V120.8M756 74H808M756 74V120.8M808 74H860M808 74V120.8M860 74H912M860 74V120.8M912 74H964M912 74V120.8M964 74H1016M964 74V120.8M1016 74H1068M1016 74V120.8M1068 74H1120M1068 74V120.8M1120 74H1172M1120 74V120.8M1172 74H1224M1172 74V120.8M1224 74H1276M1224 74V120.8M1276 74H1328M1276 74V120.8M1328 74H1380M1328 74V120.8M1380 74H1432M1380 74V120.8M1432 74H1484M1432 74V120.8M1484 74V120.8M652 120.8H704M652 120.8V167.6M704 120.8H756M704 120.8V167.6M756 120.8H808M756 120.8V167.6M808 120.8H860M808 120.8V167.6M860 120.8H912M860 120.8V167.6M912 120.8H964M912 120.8V167.6M964 120.8H1016M964 120.8V167.6M1016 120.8H1068M1016 120.8V167.6M1068 120.8H1120M1068 120.8V167.6M1120 120.8H1172M1120 120.8V167.6M1172 120.8H1224M1172 120.8V167.6M1224 120.8H1276M1224 120.8V167.6M1276 120.8H1328M1276 120.8V167.6M1328 120.8H1380M1328 120.8V167.6M1380 120.8H1432M1380 120.8V167.6M1432 120.8H1484M1432 120.8V167.6M1484 120.8V167.6M652 167.6H704M652 167.6V214.4M704 167.6H756M704 167.6V214.4M756 167.6H808M756 167.6V214.4M808 167.6H860M808 167.6V214.4M860 167.6H912M860 167.6V214.4M912 167.6H964M912 167.6V214.4M964 167.6H1016M964 167.6V214.4M1016 167.6H1068M1016 167.6V214.4M1068 167.6H1120M1068 167.6V214.4M1120 167.6H1172M1120 167.6V214.4M1172 167.6H1224M1172 167.6V214.4M1224 167.6H1276M1224 167.6V214.4M1276 167.6H1328M1276 167.6V214.4M1328 167.6H1380M1328 167.6V214.4M1380 167.6H1432M1380 167.6V214.4M1432 167.6H1484M1432 167.6V214.4M1484 167.6V214.4M652 214.4H704M652 214.4V261.2M704 214.4H756M704 214.4V261.2M756 214.4H808M756 214.4V261.2M808 214.4H860M808 214.4V261.2M860 214.4H912M860 214.4V261.2M912 214.4H964M912 214.4V261.2M964 214.4H1016M964 214.4V261.2M1016 214.4H1068M1016 214.4V261.2M1068 214.4H1120M1068 214.4V261.2M1120 214.4H1172M1120 214.4V261.2M1172 214.4H1224M1172 214.4V261.2M1224 214.4H1276M1224 214.4V261.2M1276 214.4H1328M1276 214.4V261.2M1328 214.4H1380M1328 214.4V261.2M1380 214.4H1432M1380 214.4V261.2M1432 214.4H1484M1432 214.4V261.2M1484 214.4V261.2M652 261.2H704M652 261.2V308M704 261.2H756M704 261.2V308M756 261.2H808M756 261.2V308M808 261.2H860M808 261.2V308M860 261.2H912M860 261.2V308M912 261.2H964M912 261.2V308M964 261.2H1016M964 261.2V308M1016 261.2H1068M1016 261.2V308M1068 261.2H1120M1068 261.2V308M1120 261.2H1172M1120 261.2V308M1172 261.2H1224M1172 261.2V308M1224 261.2H1276M1224 261.2V308M1276 261.2H1328M1276 261.2V308M1328 261.2H1380M1328 261.2V308M1380 261.2H1432M1380 261.2V308M1432 261.2H1484M1432 261.2V308M1484 261.2V308M652 308H704M652 308V354.8M704 308H756M704 308V354.8M756 308H808M756 308V354.8M808 308H860M808 308V354.8M860 308H912M860 308V354.8M912 308H964M912 308V354.8M964 308H1016M964 308V354.8M1016 308H1068M1016 308V354.8M1068 308H1120M1068 308V354.8M1120 308H1172M1120 308V354.8M1172 308H1224M1172 308V354.8M1224 308H1276M1224 308V354.8M1276 308H1328M1276 308V354.8M1328 308H1380M1328 308V354.8M1380 308H1432M1380 308V354.8M1432 308H1484M1432 308V354.8M1484 308V354.8M652 354.8H704M652 354.8V401.6M704 354.8H756M704 354.8V401.6M756 354.8H808M756 354.8V401.6M808 354.8H860M808 354.8V401.6M860 354.8H912M860 354.8V401.6M912 354.8H964M912 354.8V401.6M964 354.8H1016M964 354.8V401.6M1016 354.8H1068M1016 354.8V401.6M1068 354.8H1120M1068 354.8V401.6M1120 354.8H1172M1120 354.8V401.6M1172 354.8H1224M1172 354.8V401.6M1224 354.8H1276M1224 354.8V401.6M1276 354.8H1328M1276 354.8V401.6M1328 354.8H1380M1328 354.8V401.6M1380 354.8H1432M1380 354.8V401.6M1432 354.8H1484M1432 354.8V401.6M1484 354.8V401.6H1432M652 401.6H704M704 401.6H756M756 401.6H808M808 401.6H860M860 401.6H912M912 401.6H964M964 401.6H1016M1016 401.6H1068M1068 401.6H1120M1120 401.6H1172M1172 401.6H1224M1224 401.6H1276M1276 401.6H1328M1328 401.6H1380M1380 401.6H1432M652 401.4V448.2M652 401.4H704M652 448.2H704M652 448.2V495M704 401.4V448.2M704 401.4H756M704 448.2H756M704 448.2V495M756 401.4V448.2M756 401.4H808M756 448.2H808M756 448.2V495M808 401.4V448.2M808 401.4H860M808 448.2H860M808 448.2V495M860 401.4V448.2M860 401.4H912M860 448.2H912M860 448.2V495M912 401.4V448.2M912 401.4H964M912 448.2H964M912 448.2V495M964 401.4V448.2M964 401.4H1016M964 448.2H1016M964 448.2V495M1016 401.4V448.2M1016 401.4H1068M1016 448.2H1068M1016 448.2V495M1068 401.4V448.2M1068 401.4H1120M1068 448.2H1120M1068 448.2V495M1120 401.4V448.2M1120 401.4H1172M1120 448.2H1172M1120 448.2V495M1172 401.4V448.2M1172 401.4H1224M1172 448.2H1224M1172 448.2V495M1224 401.4V448.2M1224 401.4H1276M1224 448.2H1276M1224 448.2V495M1276 401.4V448.2M1276 401.4H1328M1276 448.2H1328M1276 448.2V495M1328 401.4V448.2M1328 401.4H1380M1328 448.2H1380M1328 448.2V495M1380 401.4V448.2M1380 401.4H1432M1380 448.2H1432M1380 448.2V495M1432 401.4V448.2M1432 401.4H1484V448.2M1432 448.2H1484M1432 448.2V495M1484 448.2V495M652 495H704M652 495V541.8M704 495H756M704 495V541.8M756 495H808M756 495V541.8M808 495H860M808 495V541.8M860 495H912M860 495V541.8M912 495H964M912 495V541.8M964 495H1016M964 495V541.8M1016 495H1068M1016 495V541.8M1068 495H1120M1068 495V541.8M1120 495H1172M1120 495V541.8M1172 495H1224M1172 495V541.8M1224 495H1276M1224 495V541.8M1276 495H1328M1276 495V541.8M1328 495H1380M1328 495V541.8M1380 495H1432M1380 495V541.8M1432 495H1484M1432 495V541.8M1484 495V541.8M652 541.8H704M652 541.8V588.6M704 541.8H756M704 541.8V588.6M756 541.8H808M756 541.8V588.6M808 541.8H860M808 541.8V588.6M860 541.8H912M860 541.8V588.6M912 541.8H964M912 541.8V588.6M964 541.8H1016M964 541.8V588.6M1016 541.8H1068M1016 541.8V588.6M1068 541.8H1120M1068 541.8V588.6M1120 541.8H1172M1120 541.8V588.6M1172 541.8H1224M1172 541.8V588.6M1224 541.8H1276M1224 541.8V588.6M1276 541.8H1328M1276 541.8V588.6M1328 541.8H1380M1328 541.8V588.6M1380 541.8H1432M1380 541.8V588.6M1432 541.8H1484M1432 541.8V588.6M1484 541.8V588.6M652 588.6H704M652 588.6V635.4M704 588.6H756M704 588.6V635.4M756 588.6H808M756 588.6V635.4M808 588.6H860M808 588.6V635.4M860 588.6H912M860 588.6V635.4M912 588.6H964M912 588.6V635.4M964 588.6H1016M964 588.6V635.4M1016 588.6H1068M1016 588.6V635.4M1068 588.6H1120M1068 588.6V635.4M1120 588.6H1172M1120 588.6V635.4M1172 588.6H1224M1172 588.6V635.4M1224 588.6H1276M1224 588.6V635.4M1276 588.6H1328M1276 588.6V635.4M1328 588.6H1380M1328 588.6V635.4M1380 588.6H1432M1380 588.6V635.4M1432 588.6H1484M1432 588.6V635.4M1484 588.6V635.4M652 635.4H704M652 635.4V682.2M704 635.4H756M704 635.4V682.2M756 635.4H808M756 635.4V682.2M808 635.4H860M808 635.4V682.2M860 635.4H912M860 635.4V682.2M912 635.4H964M912 635.4V682.2M964 635.4H1016M964 635.4V682.2M1016 635.4H1068M1016 635.4V682.2M1068 635.4H1120M1068 635.4V682.2M1120 635.4H1172M1120 635.4V682.2M1172 635.4H1224M1172 635.4V682.2M1224 635.4H1276M1224 635.4V682.2M1276 635.4H1328M1276 635.4V682.2M1328 635.4H1380M1328 635.4V682.2M1380 635.4H1432M1380 635.4V682.2M1432 635.4H1484M1432 635.4V682.2M1484 635.4V682.2M652 682.2H704M652 682.2V729M704 682.2H756M704 682.2V729M756 682.2H808M756 682.2V729M808 682.2H860M808 682.2V729M860 682.2H912M860 682.2V729M912 682.2H964M912 682.2V729M964 682.2H1016M964 682.2V729M1016 682.2H1068M1016 682.2V729M1068 682.2H1120M1068 682.2V729M1120 682.2H1172M1120 682.2V729M1172 682.2H1224M1172 682.2V729M1224 682.2H1276M1224 682.2V729M1276 682.2H1328M1276 682.2V729M1328 682.2H1380M1328 682.2V729M1380 682.2H1432M1380 682.2V729M1432 682.2H1484M1432 682.2V729M1484 682.2V729M652 729H704M652 729V775.8M704 729H756M704 729V775.8M756 729H808M756 729V775.8M808 729H860M808 729V775.8M860 729H912M860 729V775.8M912 729H964M912 729V775.8M964 729H1016M964 729V775.8M1016 729H1068M1016 729V775.8M1068 729H1120M1068 729V775.8M1120 729H1172M1120 729V775.8M1172 729H1224M1172 729V775.8M1224 729H1276M1224 729V775.8M1276 729H1328M1276 729V775.8M1328 729H1380M1328 729V775.8M1380 729H1432M1380 729V775.8M1432 729H1484M1432 729V775.8M1484 729V775.8M652 775.8H704M652 775.8V822.6M704 775.8H756M704 775.8V822.6M756 775.8H808M756 775.8V822.6M808 775.8H860M808 775.8V822.6M860 775.8H912M860 775.8V822.6M912 775.8H964M912 775.8V822.6M964 775.8H1016M964 775.8V822.6M1016 775.8H1068M1016 775.8V822.6M1068 775.8H1120M1068 775.8V822.6M1120 775.8H1172M1120 775.8V822.6M1172 775.8H1224M1172 775.8V822.6M1224 775.8H1276M1224 775.8V822.6M1276 775.8H1328M1276 775.8V822.6M1328 775.8H1380M1328 775.8V822.6M1380 775.8H1432M1380 775.8V822.6M1432 775.8H1484M1432 775.8V822.6M1484 775.8V822.6M652 822.6H704M652 822.6V869.4M704 822.6H756M704 822.6V869.4M756 822.6H808M756 822.6V869.4M808 822.6H860M808 822.6V869.4M860 822.6H912M860 822.6V869.4M912 822.6H964M912 822.6V869.4M964 822.6H1016M964 822.6V869.4M1016 822.6H1068M1016 822.6V869.4M1068 822.6H1120M1068 822.6V869.4M1120 822.6H1172M1120 822.6V869.4M1172 822.6H1224M1172 822.6V869.4M1224 822.6H1276M1224 822.6V869.4M1276 822.6H1328M1276 822.6V869.4M1328 822.6H1380M1328 822.6V869.4M1380 822.6H1432M1380 822.6V869.4M1432 822.6H1484M1432 822.6V869.4M1484 822.6V869.4M652 869.4H704M652 869.4V916.2M704 869.4H756M704 869.4V916.2M756 869.4H808M756 869.4V916.2M808 869.4H860M808 869.4V916.2M860 869.4H912M860 869.4V916.2M912 869.4H964M912 869.4V916.2M964 869.4H1016M964 869.4V916.2M1016 869.4H1068M1016 869.4V916.2M1068 869.4H1120M1068 869.4V916.2M1120 869.4H1172M1120 869.4V916.2M1172 869.4H1224M1172 869.4V916.2M1224 869.4H1276M1224 869.4V916.2M1276 869.4H1328M1276 869.4V916.2M1328 869.4H1380M1328 869.4V916.2M1380 869.4H1432M1380 869.4V916.2M1432 869.4H1484M1432 869.4V916.2M1484 869.4V916.2M652 916.2H704M652 916.2V963M704 916.2H756M704 916.2V963M756 916.2H808M756 916.2V963M808 916.2H860M808 916.2V963M860 916.2H912M860 916.2V963M912 916.2H964M912 916.2V963M964 916.2H1016M964 916.2V963M1016 916.2H1068M1016 916.2V963M1068 916.2H1120M1068 916.2V963M1120 916.2H1172M1120 916.2V963M1172 916.2H1224M1172 916.2V963M1224 916.2H1276M1224 916.2V963M1276 916.2H1328M1276 916.2V963M1328 916.2H1380M1328 916.2V963M1380 916.2H1432M1380 916.2V963M1432 916.2H1484M1432 916.2V963M1484 916.2V963H1432M652 963H704M704 963H756M756 963H808M808 963H860M860 963H912M912 963H964M964 963H1016M1016 963H1068M1068 963H1120M1120 963H1172M1172 963H1224M1224 963H1276M1276 963H1328M1328 963H1380M1380 963H1432" stroke="url(#paint0_radial_0_467)"/>
<path d="M-232 -160H-284V-113.2M-232 -160V-113.2M-232 -160H-180M-232 -113.2H-284M-232 -113.2H-180M-232 -113.2V-66.4M-284 -113.2V-66.4M-180 -160V-113.2M-180 -160H-128M-180 -113.2H-128M-180 -113.2V-66.4M-128 -160V-113.2M-128 -160H-76M-128 -113.2H-76M-128 -113.2V-66.4M-76 -160V-113.2M-76 -160H-24M-76 -113.2H-24M-76 -113.2V-66.4M-24 -160V-113.2M-24 -160H28M-24 -113.2H28M-24 -113.2V-66.4M28 -160V-113.2M28 -160H80M28 -113.2H80M28 -113.2V-66.4M80 -160V-113.2M80 -160H132M80 -113.2H132M80 -113.2V-66.4M132 -160V-113.2M132 -160H184M132 -113.2H184M132 -113.2V-66.4M184 -160V-113.2M184 -160H236M184 -113.2H236M184 -113.2V-66.4M236 -160V-113.2M236 -160H288M236 -113.2H288M236 -113.2V-66.4M288 -160V-113.2M288 -160H340M288 -113.2H340M288 -113.2V-66.4M340 -160V-113.2M340 -160H392M340 -113.2H392M340 -113.2V-66.4M392 -160V-113.2M392 -160H444M392 -113.2H444M392 -113.2V-66.4M444 -160V-113.2M444 -160H496M444 -113.2H496M444 -113.2V-66.4M496 -160V-113.2M496 -160H548M496 -113.2H548M496 -113.2V-66.4M548 -160V-113.2M548 -160H600M548 -113.2H600M548 -113.2V-66.4M600 -160V-113.2M600 -160H652M600 -113.2V-66.4M600 -113.2H652M-232 -66.4H-284M-232 -66.4H-180M-232 -66.4V-19.6M-284 -66.4V-19.6M-180 -66.4H-128M-180 -66.4V-19.6M-128 -66.4H-76M-128 -66.4V-19.6M-76 -66.4H-24M-76 -66.4V-19.6M-24 -66.4H28M-24 -66.4V-19.6M28 -66.4H80M28 -66.4V-19.6M80 -66.4H132M80 -66.4V-19.6M132 -66.4H184M132 -66.4V-19.6M184 -66.4H236M184 -66.4V-19.6M236 -66.4H288M236 -66.4V-19.6M288 -66.4H340M288 -66.4V-19.6M340 -66.4H392M340 -66.4V-19.6M392 -66.4H444M392 -66.4V-19.6M444 -66.4H496M444 -66.4V-19.6M496 -66.4H548M496 -66.4V-19.6M548 -66.4H600M548 -66.4V-19.6M600 -66.4V-19.6M600 -66.4H652M-232 -19.6H-284M-232 -19.6H-180M-232 -19.6V27.2M-284 -19.6V27.2M-180 -19.6H-128M-180 -19.6V27.2M-128 -19.6H-76M-128 -19.6V27.2M-76 -19.6H-24M-76 -19.6V27.2M-24 -19.6H28M-24 -19.6V27.2M28 -19.6H80M28 -19.6V27.2M80 -19.6H132M80 -19.6V27.2M132 -19.6H184M132 -19.6V27.2M184 -19.6H236M184 -19.6V27.2M236 -19.6H288M236 -19.6V27.2M288 -19.6H340M288 -19.6V27.2M340 -19.6H392M340 -19.6V27.2M392 -19.6H444M392 -19.6V27.2M444 -19.6H496M444 -19.6V27.2M496 -19.6H548M496 -19.6V27.2M548 -19.6H600M548 -19.6V27.2M600 -19.6V27.2M600 -19.6H652M-232 27.2H-284M-232 27.2H-180M-232 27.2V74M-284 27.2V74M-180 27.2H-128M-180 27.2V74M-128 27.2H-76M-128 27.2V74M-76 27.2H-24M-76 27.2V74M-24 27.2H28M-24 27.2V74M28 27.2H80M28 27.2V74M80 27.2H132M80 27.2V74M132 27.2H184M132 27.2V74M184 27.2H236M184 27.2V74M236 27.2H288M236 27.2V74M288 27.2H340M288 27.2V74M340 27.2H392M340 27.2V74M392 27.2H444M392 27.2V74M444 27.2H496M444 27.2V74M496 27.2H548M496 27.2V74M548 27.2H600M548 27.2V74M600 27.2V74M600 27.2H652M-232 74H-284M-232 74H-180M-232 74V120.8M-284 74V120.8M-180 74H-128M-180 74V120.8M-128 74H-76M-128 74V120.8M-76 74H-24M-76 74V120.8M-24 74H28M-24 74V120.8M28 74H80M28 74V120.8M80 74H132M80 74V120.8M132 74H184M132 74V120.8M184 74H236M184 74V120.8M236 74H288M236 74V120.8M288 74H340M288 74V120.8M340 74H392M340 74V120.8M392 74H444M392 74V120.8M444 74H496M444 74V120.8M496 74H548M496 74V120.8M548 74H600M548 74V120.8M600 74V120.8M600 74H652M-232 120.8H-284M-232 120.8H-180M-232 120.8V167.6M-284 120.8V167.6M-180 120.8H-128M-180 120.8V167.6M-128 120.8H-76M-128 120.8V167.6M-76 120.8H-24M-76 120.8V167.6M-24 120.8H28M-24 120.8V167.6M28 120.8H80M28 120.8V167.6M80 120.8H132M80 120.8V167.6M132 120.8H184M132 120.8V167.6M184 120.8H236M184 120.8V167.6M236 120.8H288M236 120.8V167.6M288 120.8H340M288 120.8V167.6M340 120.8H392M340 120.8V167.6M392 120.8H444M392 120.8V167.6M444 120.8H496M444 120.8V167.6M496 120.8H548M496 120.8V167.6M548 120.8H600M548 120.8V167.6M600 120.8V167.6M600 120.8H652M-232 167.6H-284M-232 167.6H-180M-232 167.6V214.4M-284 167.6V214.4M-180 167.6H-128M-180 167.6V214.4M-128 167.6H-76M-128 167.6V214.4M-76 167.6H-24M-76 167.6V214.4M-24 167.6H28M-24 167.6V214.4M28 167.6H80M28 167.6V214.4M80 167.6H132M80 167.6V214.4M132 167.6H184M132 167.6V214.4M184 167.6H236M184 167.6V214.4M236 167.6H288M236 167.6V214.4M288 167.6H340M288 167.6V214.4M340 167.6H392M340 167.6V214.4M392 167.6H444M392 167.6V214.4M444 167.6H496M444 167.6V214.4M496 167.6H548M496 167.6V214.4M548 167.6H600M548 167.6V214.4M600 167.6V214.4M600 167.6H652M-232 214.4H-284M-232 214.4H-180M-232 214.4V261.2M-284 214.4V261.2M-180 214.4H-128M-180 214.4V261.2M-128 214.4H-76M-128 214.4V261.2M-76 214.4H-24M-76 214.4V261.2M-24 214.4H28M-24 214.4V261.2M28 214.4H80M28 214.4V261.2M80 214.4H132M80 214.4V261.2M132 214.4H184M132 214.4V261.2M184 214.4H236M184 214.4V261.2M236 214.4H288M236 214.4V261.2M288 214.4H340M288 214.4V261.2M340 214.4H392M340 214.4V261.2M392 214.4H444M392 214.4V261.2M444 214.4H496M444 214.4V261.2M496 214.4H548M496 214.4V261.2M548 214.4H600M548 214.4V261.2M600 214.4V261.2M600 214.4H652M-232 261.2H-284M-232 261.2H-180M-232 261.2V308M-284 261.2V308M-180 261.2H-128M-180 261.2V308M-128 261.2H-76M-128 261.2V308M-76 261.2H-24M-76 261.2V308M-24 261.2H28M-24 261.2V308M28 261.2H80M28 261.2V308M80 261.2H132M80 261.2V308M132 261.2H184M132 261.2V308M184 261.2H236M184 261.2V308M236 261.2H288M236 261.2V308M288 261.2H340M288 261.2V308M340 261.2H392M340 261.2V308M392 261.2H444M392 261.2V308M444 261.2H496M444 261.2V308M496 261.2H548M496 261.2V308M548 261.2H600M548 261.2V308M600 261.2V308M600 261.2H652M-232 308H-284M-232 308H-180M-232 308V354.8M-284 308V354.8M-180 308H-128M-180 308V354.8M-128 308H-76M-128 308V354.8M-76 308H-24M-76 308V354.8M-24 308H28M-24 308V354.8M28 308H80M28 308V354.8M80 308H132M80 308V354.8M132 308H184M132 308V354.8M184 308H236M184 308V354.8M236 308H288M236 308V354.8M288 308H340M288 308V354.8M340 308H392M340 308V354.8M392 308H444M392 308V354.8M444 308H496M444 308V354.8M496 308H548M496 308V354.8M548 308H600M548 308V354.8M600 308V354.8M600 308H652M-232 354.8H-284M-232 354.8H-180M-232 354.8V401.6M-284 354.8V401.6H-232M-180 354.8H-128M-180 354.8V401.6M-128 354.8H-76M-128 354.8V401.6M-76 354.8H-24M-76 354.8V401.6M-24 354.8H28M-24 354.8V401.6M28 354.8H80M28 354.8V401.6M80 354.8H132M80 354.8V401.6M132 354.8H184M132 354.8V401.6M184 354.8H236M184 354.8V401.6M236 354.8H288M236 354.8V401.6M288 354.8H340M288 354.8V401.6M340 354.8H392M340 354.8V401.6M392 354.8H444M392 354.8V401.6M444 354.8H496M444 354.8V401.6M496 354.8H548M496 354.8V401.6M548 354.8H600M548 354.8V401.6M600 354.8V401.6M600 354.8H652M-232 401.6H-180M-180 401.6H-128M-128 401.6H-76M-76 401.6H-24M-24 401.6H28M28 401.6H80M80 401.6H132M132 401.6H184M184 401.6H236M236 401.6H288M288 401.6H340M340 401.6H392M392 401.6H444M444 401.6H496M496 401.6H548M548 401.6H600M600 401.6H652M-232 401.4H-284V448.2M-232 401.4V448.2M-232 401.4H-180M-232 448.2H-284M-232 448.2H-180M-232 448.2V495M-284 448.2V495M-180 401.4V448.2M-180 401.4H-128M-180 448.2H-128M-180 448.2V495M-128 401.4V448.2M-128 401.4H-76M-128 448.2H-76M-128 448.2V495M-76 401.4V448.2M-76 401.4H-24M-76 448.2H-24M-76 448.2V495M-24 401.4V448.2M-24 401.4H28M-24 448.2H28M-24 448.2V495M28 401.4V448.2M28 401.4H80M28 448.2H80M28 448.2V495M80 401.4V448.2M80 401.4H132M80 448.2H132M80 448.2V495M132 401.4V448.2M132 401.4H184M132 448.2H184M132 448.2V495M184 401.4V448.2M184 401.4H236M184 448.2H236M184 448.2V495M236 401.4V448.2M236 401.4H288M236 448.2H288M236 448.2V495M288 401.4V448.2M288 401.4H340M288 448.2H340M288 448.2V495M340 401.4V448.2M340 401.4H392M340 448.2H392M340 448.2V495M392 401.4V448.2M392 401.4H444M392 448.2H444M392 448.2V495M444 401.4V448.2M444 401.4H496M444 448.2H496M444 448.2V495M496 401.4V448.2M496 401.4H548M496 448.2H548M496 448.2V495M548 401.4V448.2M548 401.4H600M548 448.2H600M548 448.2V495M600 401.4V448.2M600 401.4H652M600 448.2V495M600 448.2H652M-232 495H-284M-232 495H-180M-232 495V541.8M-284 495V541.8M-180 495H-128M-180 495V541.8M-128 495H-76M-128 495V541.8M-76 495H-24M-76 495V541.8M-24 495H28M-24 495V541.8M28 495H80M28 495V541.8M80 495H132M80 495V541.8M132 495H184M132 495V541.8M184 495H236M184 495V541.8M236 495H288M236 495V541.8M288 495H340M288 495V541.8M340 495H392M340 495V541.8M392 495H444M392 495V541.8M444 495H496M444 495V541.8M496 495H548M496 495V541.8M548 495H600M548 495V541.8M600 495V541.8M600 495H652M-232 541.8H-284M-232 541.8H-180M-232 541.8V588.6M-284 541.8V588.6M-180 541.8H-128M-180 541.8V588.6M-128 541.8H-76M-128 541.8V588.6M-76 541.8H-24M-76 541.8V588.6M-24 541.8H28M-24 541.8V588.6M28 541.8H80M28 541.8V588.6M80 541.8H132M80 541.8V588.6M132 541.8H184M132 541.8V588.6M184 541.8H236M184 541.8V588.6M236 541.8H288M236 541.8V588.6M288 541.8H340M288 541.8V588.6M340 541.8H392M340 541.8V588.6M392 541.8H444M392 541.8V588.6M444 541.8H496M444 541.8V588.6M496 541.8H548M496 541.8V588.6M548 541.8H600M548 541.8V588.6M600 541.8V588.6M600 541.8H652M-232 588.6H-284M-232 588.6H-180M-232 588.6V635.4M-284 588.6V635.4M-180 588.6H-128M-180 588.6V635.4M-128 588.6H-76M-128 588.6V635.4M-76 588.6H-24M-76 588.6V635.4M-24 588.6H28M-24 588.6V635.4M28 588.6H80M28 588.6V635.4M80 588.6H132M80 588.6V635.4M132 588.6H184M132 588.6V635.4M184 588.6H236M184 588.6V635.4M236 588.6H288M236 588.6V635.4M288 588.6H340M288 588.6V635.4M340 588.6H392M340 588.6V635.4M392 588.6H444M392 588.6V635.4M444 588.6H496M444 588.6V635.4M496 588.6H548M496 588.6V635.4M548 588.6H600M548 588.6V635.4M600 588.6V635.4M600 588.6H652M-232 635.4H-284M-232 635.4H-180M-232 635.4V682.2M-284 635.4V682.2M-180 635.4H-128M-180 635.4V682.2M-128 635.4H-76M-128 635.4V682.2M-76 635.4H-24M-76 635.4V682.2M-24 635.4H28M-24 635.4V682.2M28 635.4H80M28 635.4V682.2M80 635.4H132M80 635.4V682.2M132 635.4H184M132 635.4V682.2M184 635.4H236M184 635.4V682.2M236 635.4H288M236 635.4V682.2M288 635.4H340M288 635.4V682.2M340 635.4H392M340 635.4V682.2M392 635.4H444M392 635.4V682.2M444 635.4H496M444 635.4V682.2M496 635.4H548M496 635.4V682.2M548 635.4H600M548 635.4V682.2M600 635.4V682.2M600 635.4H652M-232 682.2H-284M-232 682.2H-180M-232 682.2V729M-284 682.2V729M-180 682.2H-128M-180 682.2V729M-128 682.2H-76M-128 682.2V729M-76 682.2H-24M-76 682.2V729M-24 682.2H28M-24 682.2V729M28 682.2H80M28 682.2V729M80 682.2H132M80 682.2V729M132 682.2H184M132 682.2V729M184 682.2H236M184 682.2V729M236 682.2H288M236 682.2V729M288 682.2H340M288 682.2V729M340 682.2H392M340 682.2V729M392 682.2H444M392 682.2V729M444 682.2H496M444 682.2V729M496 682.2H548M496 682.2V729M548 682.2H600M548 682.2V729M600 682.2V729M600 682.2H652M-232 729H-284M-232 729H-180M-232 729V775.8M-284 729V775.8M-180 729H-128M-180 729V775.8M-128 729H-76M-128 729V775.8M-76 729H-24M-76 729V775.8M-24 729H28M-24 729V775.8M28 729H80M28 729V775.8M80 729H132M80 729V775.8M132 729H184M132 729V775.8M184 729H236M184 729V775.8M236 729H288M236 729V775.8M288 729H340M288 729V775.8M340 729H392M340 729V775.8M392 729H444M392 729V775.8M444 729H496M444 729V775.8M496 729H548M496 729V775.8M548 729H600M548 729V775.8M600 729V775.8M600 729H652M-232 775.8H-284M-232 775.8H-180M-232 775.8V822.6M-284 775.8V822.6M-180 775.8H-128M-180 775.8V822.6M-128 775.8H-76M-128 775.8V822.6M-76 775.8H-24M-76 775.8V822.6M-24 775.8H28M-24 775.8V822.6M28 775.8H80M28 775.8V822.6M80 775.8H132M80 775.8V822.6M132 775.8H184M132 775.8V822.6M184 775.8H236M184 775.8V822.6M236 775.8H288M236 775.8V822.6M288 775.8H340M288 775.8V822.6M340 775.8H392M340 775.8V822.6M392 775.8H444M392 775.8V822.6M444 775.8H496M444 775.8V822.6M496 775.8H548M496 775.8V822.6M548 775.8H600M548 775.8V822.6M600 775.8V822.6M600 775.8H652M-232 822.6H-284M-232 822.6H-180M-232 822.6V869.4M-284 822.6V869.4M-180 822.6H-128M-180 822.6V869.4M-128 822.6H-76M-128 822.6V869.4M-76 822.6H-24M-76 822.6V869.4M-24 822.6H28M-24 822.6V869.4M28 822.6H80M28 822.6V869.4M80 822.6H132M80 822.6V869.4M132 822.6H184M132 822.6V869.4M184 822.6H236M184 822.6V869.4M236 822.6H288M236 822.6V869.4M288 822.6H340M288 822.6V869.4M340 822.6H392M340 822.6V869.4M392 822.6H444M392 822.6V869.4M444 822.6H496M444 822.6V869.4M496 822.6H548M496 822.6V869.4M548 822.6H600M548 822.6V869.4M600 822.6V869.4M600 822.6H652M-232 869.4H-284M-232 869.4H-180M-232 869.4V916.2M-284 869.4V916.2M-180 869.4H-128M-180 869.4V916.2M-128 869.4H-76M-128 869.4V916.2M-76 869.4H-24M-76 869.4V916.2M-24 869.4H28M-24 869.4V916.2M28 869.4H80M28 869.4V916.2M80 869.4H132M80 869.4V916.2M132 869.4H184M132 869.4V916.2M184 869.4H236M184 869.4V916.2M236 869.4H288M236 869.4V916.2M288 869.4H340M288 869.4V916.2M340 869.4H392M340 869.4V916.2M392 869.4H444M392 869.4V916.2M444 869.4H496M444 869.4V916.2M496 869.4H548M496 869.4V916.2M548 869.4H600M548 869.4V916.2M600 869.4V916.2M600 869.4H652M-232 916.2H-284M-232 916.2H-180M-232 916.2V963M-284 916.2V963H-232M-180 916.2H-128M-180 916.2V963M-128 916.2H-76M-128 916.2V963M-76 916.2H-24M-76 916.2V963M-24 916.2H28M-24 916.2V963M28 916.2H80M28 916.2V963M80 916.2H132M80 916.2V963M132 916.2H184M132 916.2V963M184 916.2H236M184 916.2V963M236 916.2H288M236 916.2V963M288 916.2H340M288 916.2V963M340 916.2H392M340 916.2V963M392 916.2H444M392 916.2V963M444 916.2H496M444 916.2V963M496 916.2H548M496 916.2V963M548 916.2H600M548 916.2V963M600 916.2V963M600 916.2H652M-232 963H-180M-180 963H-128M-128 963H-76M-76 963H-24M-24 963H28M28 963H80M80 963H132M132 963H184M184 963H236M236 963H288M288 963H340M340 963H392M392 963H444M444 963H496M496 963H548M548 963H600M600 963H652M652 -160V-113.2M652 -160H704M652 -113.2H704M652 -113.2V-66.4M704 -160V-113.2M704 -160H756M704 -113.2H756M704 -113.2V-66.4M756 -160V-113.2M756 -160H808M756 -113.2H808M756 -113.2V-66.4M808 -160V-113.2M808 -160H860M808 -113.2H860M808 -113.2V-66.4M860 -160V-113.2M860 -160H912M860 -113.2H912M860 -113.2V-66.4M912 -160V-113.2M912 -160H964M912 -113.2H964M912 -113.2V-66.4M964 -160V-113.2M964 -160H1016M964 -113.2H1016M964 -113.2V-66.4M1016 -160V-113.2M1016 -160H1068M1016 -113.2H1068M1016 -113.2V-66.4M1068 -160V-113.2M1068 -160H1120M1068 -113.2H1120M1068 -113.2V-66.4M1120 -160V-113.2M1120 -160H1172M1120 -113.2H1172M1120 -113.2V-66.4M1172 -160V-113.2M1172 -160H1224M1172 -113.2H1224M1172 -113.2V-66.4M1224 -160V-113.2M1224 -160H1276M1224 -113.2H1276M1224 -113.2V-66.4M1276 -160V-113.2M1276 -160H1328M1276 -113.2H1328M1276 -113.2V-66.4M1328 -160V-113.2M1328 -160H1380M1328 -113.2H1380M1328 -113.2V-66.4M1380 -160V-113.2M1380 -160H1432M1380 -113.2H1432M1380 -113.2V-66.4M1432 -160V-113.2M1432 -160H1484V-113.2M1432 -113.2H1484M1432 -113.2V-66.4M1484 -113.2V-66.4M652 -66.4H704M652 -66.4V-19.6M704 -66.4H756M704 -66.4V-19.6M756 -66.4H808M756 -66.4V-19.6M808 -66.4H860M808 -66.4V-19.6M860 -66.4H912M860 -66.4V-19.6M912 -66.4H964M912 -66.4V-19.6M964 -66.4H1016M964 -66.4V-19.6M1016 -66.4H1068M1016 -66.4V-19.6M1068 -66.4H1120M1068 -66.4V-19.6M1120 -66.4H1172M1120 -66.4V-19.6M1172 -66.4H1224M1172 -66.4V-19.6M1224 -66.4H1276M1224 -66.4V-19.6M1276 -66.4H1328M1276 -66.4V-19.6M1328 -66.4H1380M1328 -66.4V-19.6M1380 -66.4H1432M1380 -66.4V-19.6M1432 -66.4H1484M1432 -66.4V-19.6M1484 -66.4V-19.6M652 -19.6H704M652 -19.6V27.2M704 -19.6H756M704 -19.6V27.2M756 -19.6H808M756 -19.6V27.2M808 -19.6H860M808 -19.6V27.2M860 -19.6H912M860 -19.6V27.2M912 -19.6H964M912 -19.6V27.2M964 -19.6H1016M964 -19.6V27.2M1016 -19.6H1068M1016 -19.6V27.2M1068 -19.6H1120M1068 -19.6V27.2M1120 -19.6H1172M1120 -19.6V27.2M1172 -19.6H1224M1172 -19.6V27.2M1224 -19.6H1276M1224 -19.6V27.2M1276 -19.6H1328M1276 -19.6V27.2M1328 -19.6H1380M1328 -19.6V27.2M1380 -19.6H1432M1380 -19.6V27.2M1432 -19.6H1484M1432 -19.6V27.2M1484 -19.6V27.2M652 27.2H704M652 27.2V74M704 27.2H756M704 27.2V74M756 27.2H808M756 27.2V74M808 27.2H860M808 27.2V74M860 27.2H912M860 27.2V74M912 27.2H964M912 27.2V74M964 27.2H1016M964 27.2V74M1016 27.2H1068M1016 27.2V74M1068 27.2H1120M1068 27.2V74M1120 27.2H1172M1120 27.2V74M1172 27.2H1224M1172 27.2V74M1224 27.2H1276M1224 27.2V74M1276 27.2H1328M1276 27.2V74M1328 27.2H1380M1328 27.2V74M1380 27.2H1432M1380 27.2V74M1432 27.2H1484M1432 27.2V74M1484 27.2V74M652 74H704M652 74V120.8M704 74H756M704 74V120.8M756 74H808M756 74V120.8M808 74H860M808 74V120.8M860 74H912M860 74V120.8M912 74H964M912 74V120.8M964 74H1016M964 74V120.8M1016 74H1068M1016 74V120.8M1068 74H1120M1068 74V120.8M1120 74H1172M1120 74V120.8M1172 74H1224M1172 74V120.8M1224 74H1276M1224 74V120.8M1276 74H1328M1276 74V120.8M1328 74H1380M1328 74V120.8M1380 74H1432M1380 74V120.8M1432 74H1484M1432 74V120.8M1484 74V120.8M652 120.8H704M652 120.8V167.6M704 120.8H756M704 120.8V167.6M756 120.8H808M756 120.8V167.6M808 120.8H860M808 120.8V167.6M860 120.8H912M860 120.8V167.6M912 120.8H964M912 120.8V167.6M964 120.8H1016M964 120.8V167.6M1016 120.8H1068M1016 120.8V167.6M1068 120.8H1120M1068 120.8V167.6M1120 120.8H1172M1120 120.8V167.6M1172 120.8H1224M1172 120.8V167.6M1224 120.8H1276M1224 120.8V167.6M1276 120.8H1328M1276 120.8V167.6M1328 120.8H1380M1328 120.8V167.6M1380 120.8H1432M1380 120.8V167.6M1432 120.8H1484M1432 120.8V167.6M1484 120.8V167.6M652 167.6H704M652 167.6V214.4M704 167.6H756M704 167.6V214.4M756 167.6H808M756 167.6V214.4M808 167.6H860M808 167.6V214.4M860 167.6H912M860 167.6V214.4M912 167.6H964M912 167.6V214.4M964 167.6H1016M964 167.6V214.4M1016 167.6H1068M1016 167.6V214.4M1068 167.6H1120M1068 167.6V214.4M1120 167.6H1172M1120 167.6V214.4M1172 167.6H1224M1172 167.6V214.4M1224 167.6H1276M1224 167.6V214.4M1276 167.6H1328M1276 167.6V214.4M1328 167.6H1380M1328 167.6V214.4M1380 167.6H1432M1380 167.6V214.4M1432 167.6H1484M1432 167.6V214.4M1484 167.6V214.4M652 214.4H704M652 214.4V261.2M704 214.4H756M704 214.4V261.2M756 214.4H808M756 214.4V261.2M808 214.4H860M808 214.4V261.2M860 214.4H912M860 214.4V261.2M912 214.4H964M912 214.4V261.2M964 214.4H1016M964 214.4V261.2M1016 214.4H1068M1016 214.4V261.2M1068 214.4H1120M1068 214.4V261.2M1120 214.4H1172M1120 214.4V261.2M1172 214.4H1224M1172 214.4V261.2M1224 214.4H1276M1224 214.4V261.2M1276 214.4H1328M1276 214.4V261.2M1328 214.4H1380M1328 214.4V261.2M1380 214.4H1432M1380 214.4V261.2M1432 214.4H1484M1432 214.4V261.2M1484 214.4V261.2M652 261.2H704M652 261.2V308M704 261.2H756M704 261.2V308M756 261.2H808M756 261.2V308M808 261.2H860M808 261.2V308M860 261.2H912M860 261.2V308M912 261.2H964M912 261.2V308M964 261.2H1016M964 261.2V308M1016 261.2H1068M1016 261.2V308M1068 261.2H1120M1068 261.2V308M1120 261.2H1172M1120 261.2V308M1172 261.2H1224M1172 261.2V308M1224 261.2H1276M1224 261.2V308M1276 261.2H1328M1276 261.2V308M1328 261.2H1380M1328 261.2V308M1380 261.2H1432M1380 261.2V308M1432 261.2H1484M1432 261.2V308M1484 261.2V308M652 308H704M652 308V354.8M704 308H756M704 308V354.8M756 308H808M756 308V354.8M808 308H860M808 308V354.8M860 308H912M860 308V354.8M912 308H964M912 308V354.8M964 308H1016M964 308V354.8M1016 308H1068M1016 308V354.8M1068 308H1120M1068 308V354.8M1120 308H1172M1120 308V354.8M1172 308H1224M1172 308V354.8M1224 308H1276M1224 308V354.8M1276 308H1328M1276 308V354.8M1328 308H1380M1328 308V354.8M1380 308H1432M1380 308V354.8M1432 308H1484M1432 308V354.8M1484 308V354.8M652 354.8H704M652 354.8V401.6M704 354.8H756M704 354.8V401.6M756 354.8H808M756 354.8V401.6M808 354.8H860M808 354.8V401.6M860 354.8H912M860 354.8V401.6M912 354.8H964M912 354.8V401.6M964 354.8H1016M964 354.8V401.6M1016 354.8H1068M1016 354.8V401.6M1068 354.8H1120M1068 354.8V401.6M1120 354.8H1172M1120 354.8V401.6M1172 354.8H1224M1172 354.8V401.6M1224 354.8H1276M1224 354.8V401.6M1276 354.8H1328M1276 354.8V401.6M1328 354.8H1380M1328 354.8V401.6M1380 354.8H1432M1380 354.8V401.6M1432 354.8H1484M1432 354.8V401.6M1484 354.8V401.6H1432M652 401.6H704M704 401.6H756M756 401.6H808M808 401.6H860M860 401.6H912M912 401.6H964M964 401.6H1016M1016 401.6H1068M1068 401.6H1120M1120 401.6H1172M1172 401.6H1224M1224 401.6H1276M1276 401.6H1328M1328 401.6H1380M1380 401.6H1432M652 401.4V448.2M652 401.4H704M652 448.2H704M652 448.2V495M704 401.4V448.2M704 401.4H756M704 448.2H756M704 448.2V495M756 401.4V448.2M756 401.4H808M756 448.2H808M756 448.2V495M808 401.4V448.2M808 401.4H860M808 448.2H860M808 448.2V495M860 401.4V448.2M860 401.4H912M860 448.2H912M860 448.2V495M912 401.4V448.2M912 401.4H964M912 448.2H964M912 448.2V495M964 401.4V448.2M964 401.4H1016M964 448.2H1016M964 448.2V495M1016 401.4V448.2M1016 401.4H1068M1016 448.2H1068M1016 448.2V495M1068 401.4V448.2M1068 401.4H1120M1068 448.2H1120M1068 448.2V495M1120 401.4V448.2M1120 401.4H1172M1120 448.2H1172M1120 448.2V495M1172 401.4V448.2M1172 401.4H1224M1172 448.2H1224M1172 448.2V495M1224 401.4V448.2M1224 401.4H1276M1224 448.2H1276M1224 448.2V495M1276 401.4V448.2M1276 401.4H1328M1276 448.2H1328M1276 448.2V495M1328 401.4V448.2M1328 401.4H1380M1328 448.2H1380M1328 448.2V495M1380 401.4V448.2M1380 401.4H1432M1380 448.2H1432M1380 448.2V495M1432 401.4V448.2M1432 401.4H1484V448.2M1432 448.2H1484M1432 448.2V495M1484 448.2V495M652 495H704M652 495V541.8M704 495H756M704 495V541.8M756 495H808M756 495V541.8M808 495H860M808 495V541.8M860 495H912M860 495V541.8M912 495H964M912 495V541.8M964 495H1016M964 495V541.8M1016 495H1068M1016 495V541.8M1068 495H1120M1068 495V541.8M1120 495H1172M1120 495V541.8M1172 495H1224M1172 495V541.8M1224 495H1276M1224 495V541.8M1276 495H1328M1276 495V541.8M1328 495H1380M1328 495V541.8M1380 495H1432M1380 495V541.8M1432 495H1484M1432 495V541.8M1484 495V541.8M652 541.8H704M652 541.8V588.6M704 541.8H756M704 541.8V588.6M756 541.8H808M756 541.8V588.6M808 541.8H860M808 541.8V588.6M860 541.8H912M860 541.8V588.6M912 541.8H964M912 541.8V588.6M964 541.8H1016M964 541.8V588.6M1016 541.8H1068M1016 541.8V588.6M1068 541.8H1120M1068 541.8V588.6M1120 541.8H1172M1120 541.8V588.6M1172 541.8H1224M1172 541.8V588.6M1224 541.8H1276M1224 541.8V588.6M1276 541.8H1328M1276 541.8V588.6M1328 541.8H1380M1328 541.8V588.6M1380 541.8H1432M1380 541.8V588.6M1432 541.8H1484M1432 541.8V588.6M1484 541.8V588.6M652 588.6H704M652 588.6V635.4M704 588.6H756M704 588.6V635.4M756 588.6H808M756 588.6V635.4M808 588.6H860M808 588.6V635.4M860 588.6H912M860 588.6V635.4M912 588.6H964M912 588.6V635.4M964 588.6H1016M964 588.6V635.4M1016 588.6H1068M1016 588.6V635.4M1068 588.6H1120M1068 588.6V635.4M1120 588.6H1172M1120 588.6V635.4M1172 588.6H1224M1172 588.6V635.4M1224 588.6H1276M1224 588.6V635.4M1276 588.6H1328M1276 588.6V635.4M1328 588.6H1380M1328 588.6V635.4M1380 588.6H1432M1380 588.6V635.4M1432 588.6H1484M1432 588.6V635.4M1484 588.6V635.4M652 635.4H704M652 635.4V682.2M704 635.4H756M704 635.4V682.2M756 635.4H808M756 635.4V682.2M808 635.4H860M808 635.4V682.2M860 635.4H912M860 635.4V682.2M912 635.4H964M912 635.4V682.2M964 635.4H1016M964 635.4V682.2M1016 635.4H1068M1016 635.4V682.2M1068 635.4H1120M1068 635.4V682.2M1120 635.4H1172M1120 635.4V682.2M1172 635.4H1224M1172 635.4V682.2M1224 635.4H1276M1224 635.4V682.2M1276 635.4H1328M1276 635.4V682.2M1328 635.4H1380M1328 635.4V682.2M1380 635.4H1432M1380 635.4V682.2M1432 635.4H1484M1432 635.4V682.2M1484 635.4V682.2M652 682.2H704M652 682.2V729M704 682.2H756M704 682.2V729M756 682.2H808M756 682.2V729M808 682.2H860M808 682.2V729M860 682.2H912M860 682.2V729M912 682.2H964M912 682.2V729M964 682.2H1016M964 682.2V729M1016 682.2H1068M1016 682.2V729M1068 682.2H1120M1068 682.2V729M1120 682.2H1172M1120 682.2V729M1172 682.2H1224M1172 682.2V729M1224 682.2H1276M1224 682.2V729M1276 682.2H1328M1276 682.2V729M1328 682.2H1380M1328 682.2V729M1380 682.2H1432M1380 682.2V729M1432 682.2H1484M1432 682.2V729M1484 682.2V729M652 729H704M652 729V775.8M704 729H756M704 729V775.8M756 729H808M756 729V775.8M808 729H860M808 729V775.8M860 729H912M860 729V775.8M912 729H964M912 729V775.8M964 729H1016M964 729V775.8M1016 729H1068M1016 729V775.8M1068 729H1120M1068 729V775.8M1120 729H1172M1120 729V775.8M1172 729H1224M1172 729V775.8M1224 729H1276M1224 729V775.8M1276 729H1328M1276 729V775.8M1328 729H1380M1328 729V775.8M1380 729H1432M1380 729V775.8M1432 729H1484M1432 729V775.8M1484 729V775.8M652 775.8H704M652 775.8V822.6M704 775.8H756M704 775.8V822.6M756 775.8H808M756 775.8V822.6M808 775.8H860M808 775.8V822.6M860 775.8H912M860 775.8V822.6M912 775.8H964M912 775.8V822.6M964 775.8H1016M964 775.8V822.6M1016 775.8H1068M1016 775.8V822.6M1068 775.8H1120M1068 775.8V822.6M1120 775.8H1172M1120 775.8V822.6M1172 775.8H1224M1172 775.8V822.6M1224 775.8H1276M1224 775.8V822.6M1276 775.8H1328M1276 775.8V822.6M1328 775.8H1380M1328 775.8V822.6M1380 775.8H1432M1380 775.8V822.6M1432 775.8H1484M1432 775.8V822.6M1484 775.8V822.6M652 822.6H704M652 822.6V869.4M704 822.6H756M704 822.6V869.4M756 822.6H808M756 822.6V869.4M808 822.6H860M808 822.6V869.4M860 822.6H912M860 822.6V869.4M912 822.6H964M912 822.6V869.4M964 822.6H1016M964 822.6V869.4M1016 822.6H1068M1016 822.6V869.4M1068 822.6H1120M1068 822.6V869.4M1120 822.6H1172M1120 822.6V869.4M1172 822.6H1224M1172 822.6V869.4M1224 822.6H1276M1224 822.6V869.4M1276 822.6H1328M1276 822.6V869.4M1328 822.6H1380M1328 822.6V869.4M1380 822.6H1432M1380 822.6V869.4M1432 822.6H1484M1432 822.6V869.4M1484 822.6V869.4M652 869.4H704M652 869.4V916.2M704 869.4H756M704 869.4V916.2M756 869.4H808M756 869.4V916.2M808 869.4H860M808 869.4V916.2M860 869.4H912M860 869.4V916.2M912 869.4H964M912 869.4V916.2M964 869.4H1016M964 869.4V916.2M1016 869.4H1068M1016 869.4V916.2M1068 869.4H1120M1068 869.4V916.2M1120 869.4H1172M1120 869.4V916.2M1172 869.4H1224M1172 869.4V916.2M1224 869.4H1276M1224 869.4V916.2M1276 869.4H1328M1276 869.4V916.2M1328 869.4H1380M1328 869.4V916.2M1380 869.4H1432M1380 869.4V916.2M1432 869.4H1484M1432 869.4V916.2M1484 869.4V916.2M652 916.2H704M652 916.2V963M704 916.2H756M704 916.2V963M756 916.2H808M756 916.2V963M808 916.2H860M808 916.2V963M860 916.2H912M860 916.2V963M912 916.2H964M912 916.2V963M964 916.2H1016M964 916.2V963M1016 916.2H1068M1016 916.2V963M1068 916.2H1120M1068 916.2V963M1120 916.2H1172M1120 916.2V963M1172 916.2H1224M1172 916.2V963M1224 916.2H1276M1224 916.2V963M1276 916.2H1328M1276 916.2V963M1328 916.2H1380M1328 916.2V963M1380 916.2H1432M1380 916.2V963M1432 916.2H1484M1432 916.2V963M1484 916.2V963H1432M652 963H704M704 963H756M756 963H808M808 963H860M860 963H912M912 963H964M964 963H1016M1016 963H1068M1068 963H1120M1120 963H1172M1172 963H1224M1224 963H1276M1276 963H1328M1328 963H1380M1380 963H1432" stroke="url(#paint1_radial_0_467)"/>
</g>
<defs>
<radialGradient id="paint0_radial_0_467" cx="0" cy="0" r="1" gradientUnits="userSpaceOnUse" gradientTransform="translate(681 145.5) rotate(90) scale(218 561.494)">
<stop stop-color="white"/>
<stop offset="1" stop-color="white" stop-opacity="0"/>
</radialGradient>
<radialGradient id="paint1_radial_0_467" cx="0" cy="0" r="1" gradientUnits="userSpaceOnUse" gradientTransform="translate(1104 373.5) rotate(90) scale(206.5 325.104)">
<stop stop-color="white"/>
<stop offset="1" stop-color="white" stop-opacity="0"/>
</radialGradient>
</defs>
</svg>
