<svg width="1770" height="1125" viewBox="0 0 1770 1125" fill="none" xmlns="http://www.w3.org/2000/svg">
<path d="M53 1H1V47.8M53 1V47.8M53 1H105M53 47.8H1M53 47.8H105M53 47.8V94.6M1 47.8V94.6M105 1V47.8M105 1H157M105 47.8H157M105 47.8V94.6M157 1V47.8M157 1H209M157 47.8H209M157 47.8V94.6M209 1V47.8M209 1H261M209 47.8H261M209 47.8V94.6M261 1V47.8M261 1H313M261 47.8H313M261 47.8V94.6M313 1V47.8M313 1H365M313 47.8H365M313 47.8V94.6M365 1V47.8M365 1H417M365 47.8H417M365 47.8V94.6M417 1V47.8M417 1H469M417 47.8H469M417 47.8V94.6M469 1V47.8M469 1H521M469 47.8H521M469 47.8V94.6M521 1V47.8M521 1H573M521 47.8H573M521 47.8V94.6M573 1V47.8M573 1H625M573 47.8H625M573 47.8V94.6M625 1V47.8M625 1H677M625 47.8H677M625 47.8V94.6M677 1V47.8M677 1H729M677 47.8H729M677 47.8V94.6M729 1V47.8M729 1H781M729 47.8H781M729 47.8V94.6M781 1V47.8M781 1H833M781 47.8H833M781 47.8V94.6M833 1V47.8M833 1H885M833 47.8H885M833 47.8V94.6M885 1V47.8M885 1H937M885 47.8V94.6M885 47.8H937M53 94.6H1M53 94.6H105M53 94.6V141.4M1 94.6V141.4M105 94.6H157M105 94.6V141.4M157 94.6H209M157 94.6V141.4M209 94.6H261M209 94.6V141.4M261 94.6H313M261 94.6V141.4M313 94.6H365M313 94.6V141.4M365 94.6H417M365 94.6V141.4M417 94.6H469M417 94.6V141.4M469 94.6H521M469 94.6V141.4M521 94.6H573M521 94.6V141.4M573 94.6H625M573 94.6V141.4M625 94.6H677M625 94.6V141.4M677 94.6H729M677 94.6V141.4M729 94.6H781M729 94.6V141.4M781 94.6H833M781 94.6V141.4M833 94.6H885M833 94.6V141.4M885 94.6V141.4M885 94.6H937M53 141.4H1M53 141.4H105M53 141.4V188.2M1 141.4V188.2M105 141.4H157M105 141.4V188.2M157 141.4H209M157 141.4V188.2M209 141.4H261M209 141.4V188.2M261 141.4H313M261 141.4V188.2M313 141.4H365M313 141.4V188.2M365 141.4H417M365 141.4V188.2M417 141.4H469M417 141.4V188.2M469 141.4H521M469 141.4V188.2M521 141.4H573M521 141.4V188.2M573 141.4H625M573 141.4V188.2M625 141.4H677M625 141.4V188.2M677 141.4H729M677 141.4V188.2M729 141.4H781M729 141.4V188.2M781 141.4H833M781 141.4V188.2M833 141.4H885M833 141.4V188.2M885 141.4V188.2M885 141.4H937M53 188.2H1M53 188.2H105M53 188.2V235M1 188.2V235M105 188.2H157M105 188.2V235M157 188.2H209M157 188.2V235M209 188.2H261M209 188.2V235M261 188.2H313M261 188.2V235M313 188.2H365M313 188.2V235M365 188.2H417M365 188.2V235M417 188.2H469M417 188.2V235M469 188.2H521M469 188.2V235M521 188.2H573M521 188.2V235M573 188.2H625M573 188.2V235M625 188.2H677M625 188.2V235M677 188.2H729M677 188.2V235M729 188.2H781M729 188.2V235M781 188.2H833M781 188.2V235M833 188.2H885M833 188.2V235M885 188.2V235M885 188.2H937M53 235H1M53 235H105M53 235V281.8M1 235V281.8M105 235H157M105 235V281.8M157 235H209M157 235V281.8M209 235H261M209 235V281.8M261 235H313M261 235V281.8M313 235H365M313 235V281.8M365 235H417M365 235V281.8M417 235H469M417 235V281.8M469 235H521M469 235V281.8M521 235H573M521 235V281.8M573 235H625M573 235V281.8M625 235H677M625 235V281.8M677 235H729M677 235V281.8M729 235H781M729 235V281.8M781 235H833M781 235V281.8M833 235H885M833 235V281.8M885 235V281.8M885 235H937M53 281.8H1M53 281.8H105M53 281.8V328.6M1 281.8V328.6M105 281.8H157M105 281.8V328.6M157 281.8H209M157 281.8V328.6M209 281.8H261M209 281.8V328.6M261 281.8H313M261 281.8V328.6M313 281.8H365M313 281.8V328.6M365 281.8H417M365 281.8V328.6M417 281.8H469M417 281.8V328.6M469 281.8H521M469 281.8V328.6M521 281.8H573M521 281.8V328.6M573 281.8H625M573 281.8V328.6M625 281.8H677M625 281.8V328.6M677 281.8H729M677 281.8V328.6M729 281.8H781M729 281.8V328.6M781 281.8H833M781 281.8V328.6M833 281.8H885M833 281.8V328.6M885 281.8V328.6M885 281.8H937M53 328.6H1M53 328.6H105M53 328.6V375.4M1 328.6V375.4M105 328.6H157M105 328.6V375.4M157 328.6H209M157 328.6V375.4M209 328.6H261M209 328.6V375.4M261 328.6H313M261 328.6V375.4M313 328.6H365M313 328.6V375.4M365 328.6H417M365 328.6V375.4M417 328.6H469M417 328.6V375.4M469 328.6H521M469 328.6V375.4M521 328.6H573M521 328.6V375.4M573 328.6H625M573 328.6V375.4M625 328.6H677M625 328.6V375.4M677 328.6H729M677 328.6V375.4M729 328.6H781M729 328.6V375.4M781 328.6H833M781 328.6V375.4M833 328.6H885M833 328.6V375.4M885 328.6V375.4M885 328.6H937M53 375.4H1M53 375.4H105M53 375.4V422.2M1 375.4V422.2M105 375.4H157M105 375.4V422.2M157 375.4H209M157 375.4V422.2M209 375.4H261M209 375.4V422.2M261 375.4H313M261 375.4V422.2M313 375.4H365M313 375.4V422.2M365 375.4H417M365 375.4V422.2M417 375.4H469M417 375.4V422.2M469 375.4H521M469 375.4V422.2M521 375.4H573M521 375.4V422.2M573 375.4H625M573 375.4V422.2M625 375.4H677M625 375.4V422.2M677 375.4H729M677 375.4V422.2M729 375.4H781M729 375.4V422.2M781 375.4H833M781 375.4V422.2M833 375.4H885M833 375.4V422.2M885 375.4V422.2M885 375.4H937M53 422.2H1M53 422.2H105M53 422.2V469M1 422.2V469M105 422.2H157M105 422.2V469M157 422.2H209M157 422.2V469M209 422.2H261M209 422.2V469M261 422.2H313M261 422.2V469M313 422.2H365M313 422.2V469M365 422.2H417M365 422.2V469M417 422.2H469M417 422.2V469M469 422.2H521M469 422.2V469M521 422.2H573M521 422.2V469M573 422.2H625M573 422.2V469M625 422.2H677M625 422.2V469M677 422.2H729M677 422.2V469M729 422.2H781M729 422.2V469M781 422.2H833M781 422.2V469M833 422.2H885M833 422.2V469M885 422.2V469M885 422.2H937M53 469H1M53 469H105M53 469V515.8M1 469V515.8M105 469H157M105 469V515.8M157 469H209M157 469V515.8M209 469H261M209 469V515.8M261 469H313M261 469V515.8M313 469H365M313 469V515.8M365 469H417M365 469V515.8M417 469H469M417 469V515.8M469 469H521M469 469V515.8M521 469H573M521 469V515.8M573 469H625M573 469V515.8M625 469H677M625 469V515.8M677 469H729M677 469V515.8M729 469H781M729 469V515.8M781 469H833M781 469V515.8M833 469H885M833 469V515.8M885 469V515.8M885 469H937M53 515.8H1M53 515.8H105M53 515.8V562.6M1 515.8V562.6H53M105 515.8H157M105 515.8V562.6M157 515.8H209M157 515.8V562.6M209 515.8H261M209 515.8V562.6M261 515.8H313M261 515.8V562.6M313 515.8H365M313 515.8V562.6M365 515.8H417M365 515.8V562.6M417 515.8H469M417 515.8V562.6M469 515.8H521M469 515.8V562.6M521 515.8H573M521 515.8V562.6M573 515.8H625M573 515.8V562.6M625 515.8H677M625 515.8V562.6M677 515.8H729M677 515.8V562.6M729 515.8H781M729 515.8V562.6M781 515.8H833M781 515.8V562.6M833 515.8H885M833 515.8V562.6M885 515.8V562.6M885 515.8H937M53 562.6H105M105 562.6H157M157 562.6H209M209 562.6H261M261 562.6H313M313 562.6H365M365 562.6H417M417 562.6H469M469 562.6H521M521 562.6H573M573 562.6H625M625 562.6H677M677 562.6H729M729 562.6H781M781 562.6H833M833 562.6H885M885 562.6H937M53 562.4H1V609.2M53 562.4V609.2M53 562.4H105M53 609.2H1M53 609.2H105M53 609.2V656M1 609.2V656M105 562.4V609.2M105 562.4H157M105 609.2H157M105 609.2V656M157 562.4V609.2M157 562.4H209M157 609.2H209M157 609.2V656M209 562.4V609.2M209 562.4H261M209 609.2H261M209 609.2V656M261 562.4V609.2M261 562.4H313M261 609.2H313M261 609.2V656M313 562.4V609.2M313 562.4H365M313 609.2H365M313 609.2V656M365 562.4V609.2M365 562.4H417M365 609.2H417M365 609.2V656M417 562.4V609.2M417 562.4H469M417 609.2H469M417 609.2V656M469 562.4V609.2M469 562.4H521M469 609.2H521M469 609.2V656M521 562.4V609.2M521 562.4H573M521 609.2H573M521 609.2V656M573 562.4V609.2M573 562.4H625M573 609.2H625M573 609.2V656M625 562.4V609.2M625 562.4H677M625 609.2H677M625 609.2V656M677 562.4V609.2M677 562.4H729M677 609.2H729M677 609.2V656M729 562.4V609.2M729 562.4H781M729 609.2H781M729 609.2V656M781 562.4V609.2M781 562.4H833M781 609.2H833M781 609.2V656M833 562.4V609.2M833 562.4H885M833 609.2H885M833 609.2V656M885 562.4V609.2M885 562.4H937M885 609.2V656M885 609.2H937M53 656H1M53 656H105M53 656V702.8M1 656V702.8M105 656H157M105 656V702.8M157 656H209M157 656V702.8M209 656H261M209 656V702.8M261 656H313M261 656V702.8M313 656H365M313 656V702.8M365 656H417M365 656V702.8M417 656H469M417 656V702.8M469 656H521M469 656V702.8M521 656H573M521 656V702.8M573 656H625M573 656V702.8M625 656H677M625 656V702.8M677 656H729M677 656V702.8M729 656H781M729 656V702.8M781 656H833M781 656V702.8M833 656H885M833 656V702.8M885 656V702.8M885 656H937M53 702.8H1M53 702.8H105M53 702.8V749.6M1 702.8V749.6M105 702.8H157M105 702.8V749.6M157 702.8H209M157 702.8V749.6M209 702.8H261M209 702.8V749.6M261 702.8H313M261 702.8V749.6M313 702.8H365M313 702.8V749.6M365 702.8H417M365 702.8V749.6M417 702.8H469M417 702.8V749.6M469 702.8H521M469 702.8V749.6M521 702.8H573M521 702.8V749.6M573 702.8H625M573 702.8V749.6M625 702.8H677M625 702.8V749.6M677 702.8H729M677 702.8V749.6M729 702.8H781M729 702.8V749.6M781 702.8H833M781 702.8V749.6M833 702.8H885M833 702.8V749.6M885 702.8V749.6M885 702.8H937M53 749.6H1M53 749.6H105M53 749.6V796.4M1 749.6V796.4M105 749.6H157M105 749.6V796.4M157 749.6H209M157 749.6V796.4M209 749.6H261M209 749.6V796.4M261 749.6H313M261 749.6V796.4M313 749.6H365M313 749.6V796.4M365 749.6H417M365 749.6V796.4M417 749.6H469M417 749.6V796.4M469 749.6H521M469 749.6V796.4M521 749.6H573M521 749.6V796.4M573 749.6H625M573 749.6V796.4M625 749.6H677M625 749.6V796.4M677 749.6H729M677 749.6V796.4M729 749.6H781M729 749.6V796.4M781 749.6H833M781 749.6V796.4M833 749.6H885M833 749.6V796.4M885 749.6V796.4M885 749.6H937M53 796.4H1M53 796.4H105M53 796.4V843.2M1 796.4V843.2M105 796.4H157M105 796.4V843.2M157 796.4H209M157 796.4V843.2M209 796.4H261M209 796.4V843.2M261 796.4H313M261 796.4V843.2M313 796.4H365M313 796.4V843.2M365 796.4H417M365 796.4V843.2M417 796.4H469M417 796.4V843.2M469 796.4H521M469 796.4V843.2M521 796.4H573M521 796.4V843.2M573 796.4H625M573 796.4V843.2M625 796.4H677M625 796.4V843.2M677 796.4H729M677 796.4V843.2M729 796.4H781M729 796.4V843.2M781 796.4H833M781 796.4V843.2M833 796.4H885M833 796.4V843.2M885 796.4V843.2M885 796.4H937M53 843.2H1M53 843.2H105M53 843.2V890M1 843.2V890M105 843.2H157M105 843.2V890M157 843.2H209M157 843.2V890M209 843.2H261M209 843.2V890M261 843.2H313M261 843.2V890M313 843.2H365M313 843.2V890M365 843.2H417M365 843.2V890M417 843.2H469M417 843.2V890M469 843.2H521M469 843.2V890M521 843.2H573M521 843.2V890M573 843.2H625M573 843.2V890M625 843.2H677M625 843.2V890M677 843.2H729M677 843.2V890M729 843.2H781M729 843.2V890M781 843.2H833M781 843.2V890M833 843.2H885M833 843.2V890M885 843.2V890M885 843.2H937M53 890H1M53 890H105M53 890V936.8M1 890V936.8M105 890H157M105 890V936.8M157 890H209M157 890V936.8M209 890H261M209 890V936.8M261 890H313M261 890V936.8M313 890H365M313 890V936.8M365 890H417M365 890V936.8M417 890H469M417 890V936.8M469 890H521M469 890V936.8M521 890H573M521 890V936.8M573 890H625M573 890V936.8M625 890H677M625 890V936.8M677 890H729M677 890V936.8M729 890H781M729 890V936.8M781 890H833M781 890V936.8M833 890H885M833 890V936.8M885 890V936.8M885 890H937M53 936.8H1M53 936.8H105M53 936.8V983.6M1 936.8V983.6M105 936.8H157M105 936.8V983.6M157 936.8H209M157 936.8V983.6M209 936.8H261M209 936.8V983.6M261 936.8H313M261 936.8V983.6M313 936.8H365M313 936.8V983.6M365 936.8H417M365 936.8V983.6M417 936.8H469M417 936.8V983.6M469 936.8H521M469 936.8V983.6M521 936.8H573M521 936.8V983.6M573 936.8H625M573 936.8V983.6M625 936.8H677M625 936.8V983.6M677 936.8H729M677 936.8V983.6M729 936.8H781M729 936.8V983.6M781 936.8H833M781 936.8V983.6M833 936.8H885M833 936.8V983.6M885 936.8V983.6M885 936.8H937M53 983.6H1M53 983.6H105M53 983.6V1030.4M1 983.6V1030.4M105 983.6H157M105 983.6V1030.4M157 983.6H209M157 983.6V1030.4M209 983.6H261M209 983.6V1030.4M261 983.6H313M261 983.6V1030.4M313 983.6H365M313 983.6V1030.4M365 983.6H417M365 983.6V1030.4M417 983.6H469M417 983.6V1030.4M469 983.6H521M469 983.6V1030.4M521 983.6H573M521 983.6V1030.4M573 983.6H625M573 983.6V1030.4M625 983.6H677M625 983.6V1030.4M677 983.6H729M677 983.6V1030.4M729 983.6H781M729 983.6V1030.4M781 983.6H833M781 983.6V1030.4M833 983.6H885M833 983.6V1030.4M885 983.6V1030.4M885 983.6H937M53 1030.4H1M53 1030.4H105M53 1030.4V1077.2M1 1030.4V1077.2M105 1030.4H157M105 1030.4V1077.2M157 1030.4H209M157 1030.4V1077.2M209 1030.4H261M209 1030.4V1077.2M261 1030.4H313M261 1030.4V1077.2M313 1030.4H365M313 1030.4V1077.2M365 1030.4H417M365 1030.4V1077.2M417 1030.4H469M417 1030.4V1077.2M469 1030.4H521M469 1030.4V1077.2M521 1030.4H573M521 1030.4V1077.2M573 1030.4H625M573 1030.4V1077.2M625 1030.4H677M625 1030.4V1077.2M677 1030.4H729M677 1030.4V1077.2M729 1030.4H781M729 1030.4V1077.2M781 1030.4H833M781 1030.4V1077.2M833 1030.4H885M833 1030.4V1077.2M885 1030.4V1077.2M885 1030.4H937M53 1077.2H1M53 1077.2H105M53 1077.2V1124M1 1077.2V1124H53M105 1077.2H157M105 1077.2V1124M157 1077.2H209M157 1077.2V1124M209 1077.2H261M209 1077.2V1124M261 1077.2H313M261 1077.2V1124M313 1077.2H365M313 1077.2V1124M365 1077.2H417M365 1077.2V1124M417 1077.2H469M417 1077.2V1124M469 1077.2H521M469 1077.2V1124M521 1077.2H573M521 1077.2V1124M573 1077.2H625M573 1077.2V1124M625 1077.2H677M625 1077.2V1124M677 1077.2H729M677 1077.2V1124M729 1077.2H781M729 1077.2V1124M781 1077.2H833M781 1077.2V1124M833 1077.2H885M833 1077.2V1124M885 1077.2V1124M885 1077.2H937M53 1124H105M105 1124H157M157 1124H209M209 1124H261M261 1124H313M313 1124H365M365 1124H417M417 1124H469M469 1124H521M521 1124H573M573 1124H625M625 1124H677M677 1124H729M729 1124H781M781 1124H833M833 1124H885M885 1124H937M937 1V47.8M937 1H989M937 47.8H989M937 47.8V94.6M989 1V47.8M989 1H1041M989 47.8H1041M989 47.8V94.6M1041 1V47.8M1041 1H1093M1041 47.8H1093M1041 47.8V94.6M1093 1V47.8M1093 1H1145M1093 47.8H1145M1093 47.8V94.6M1145 1V47.8M1145 1H1197M1145 47.8H1197M1145 47.8V94.6M1197 1V47.8M1197 1H1249M1197 47.8H1249M1197 47.8V94.6M1249 1V47.8M1249 1H1301M1249 47.8H1301M1249 47.8V94.6M1301 1V47.8M1301 1H1353M1301 47.8H1353M1301 47.8V94.6M1353 1V47.8M1353 1H1405M1353 47.8H1405M1353 47.8V94.6M1405 1V47.8M1405 1H1457M1405 47.8H1457M1405 47.8V94.6M1457 1V47.8M1457 1H1509M1457 47.8H1509M1457 47.8V94.6M1509 1V47.8M1509 1H1561M1509 47.8H1561M1509 47.8V94.6M1561 1V47.8M1561 1H1613M1561 47.8H1613M1561 47.8V94.6M1613 1V47.8M1613 1H1665M1613 47.8H1665M1613 47.8V94.6M1665 1V47.8M1665 1H1717M1665 47.8H1717M1665 47.8V94.6M1717 1V47.8M1717 1H1769V47.8M1717 47.8H1769M1717 47.8V94.6M1769 47.8V94.6M937 94.6H989M937 94.6V141.4M989 94.6H1041M989 94.6V141.4M1041 94.6H1093M1041 94.6V141.4M1093 94.6H1145M1093 94.6V141.4M1145 94.6H1197M1145 94.6V141.4M1197 94.6H1249M1197 94.6V141.4M1249 94.6H1301M1249 94.6V141.4M1301 94.6H1353M1301 94.6V141.4M1353 94.6H1405M1353 94.6V141.4M1405 94.6H1457M1405 94.6V141.4M1457 94.6H1509M1457 94.6V141.4M1509 94.6H1561M1509 94.6V141.4M1561 94.6H1613M1561 94.6V141.4M1613 94.6H1665M1613 94.6V141.4M1665 94.6H1717M1665 94.6V141.4M1717 94.6H1769M1717 94.6V141.4M1769 94.6V141.4M937 141.4H989M937 141.4V188.2M989 141.4H1041M989 141.4V188.2M1041 141.4H1093M1041 141.4V188.2M1093 141.4H1145M1093 141.4V188.2M1145 141.4H1197M1145 141.4V188.2M1197 141.4H1249M1197 141.4V188.2M1249 141.4H1301M1249 141.4V188.2M1301 141.4H1353M1301 141.4V188.2M1353 141.4H1405M1353 141.4V188.2M1405 141.4H1457M1405 141.4V188.2M1457 141.4H1509M1457 141.4V188.2M1509 141.4H1561M1509 141.4V188.2M1561 141.4H1613M1561 141.4V188.2M1613 141.4H1665M1613 141.4V188.2M1665 141.4H1717M1665 141.4V188.2M1717 141.4H1769M1717 141.4V188.2M1769 141.4V188.2M937 188.2H989M937 188.2V235M989 188.2H1041M989 188.2V235M1041 188.2H1093M1041 188.2V235M1093 188.2H1145M1093 188.2V235M1145 188.2H1197M1145 188.2V235M1197 188.2H1249M1197 188.2V235M1249 188.2H1301M1249 188.2V235M1301 188.2H1353M1301 188.2V235M1353 188.2H1405M1353 188.2V235M1405 188.2H1457M1405 188.2V235M1457 188.2H1509M1457 188.2V235M1509 188.2H1561M1509 188.2V235M1561 188.2H1613M1561 188.2V235M1613 188.2H1665M1613 188.2V235M1665 188.2H1717M1665 188.2V235M1717 188.2H1769M1717 188.2V235M1769 188.2V235M937 235H989M937 235V281.8M989 235H1041M989 235V281.8M1041 235H1093M1041 235V281.8M1093 235H1145M1093 235V281.8M1145 235H1197M1145 235V281.8M1197 235H1249M1197 235V281.8M1249 235H1301M1249 235V281.8M1301 235H1353M1301 235V281.8M1353 235H1405M1353 235V281.8M1405 235H1457M1405 235V281.8M1457 235H1509M1457 235V281.8M1509 235H1561M1509 235V281.8M1561 235H1613M1561 235V281.8M1613 235H1665M1613 235V281.8M1665 235H1717M1665 235V281.8M1717 235H1769M1717 235V281.8M1769 235V281.8M937 281.8H989M937 281.8V328.6M989 281.8H1041M989 281.8V328.6M1041 281.8H1093M1041 281.8V328.6M1093 281.8H1145M1093 281.8V328.6M1145 281.8H1197M1145 281.8V328.6M1197 281.8H1249M1197 281.8V328.6M1249 281.8H1301M1249 281.8V328.6M1301 281.8H1353M1301 281.8V328.6M1353 281.8H1405M1353 281.8V328.6M1405 281.8H1457M1405 281.8V328.6M1457 281.8H1509M1457 281.8V328.6M1509 281.8H1561M1509 281.8V328.6M1561 281.8H1613M1561 281.8V328.6M1613 281.8H1665M1613 281.8V328.6M1665 281.8H1717M1665 281.8V328.6M1717 281.8H1769M1717 281.8V328.6M1769 281.8V328.6M937 328.6H989M937 328.6V375.4M989 328.6H1041M989 328.6V375.4M1041 328.6H1093M1041 328.6V375.4M1093 328.6H1145M1093 328.6V375.4M1145 328.6H1197M1145 328.6V375.4M1197 328.6H1249M1197 328.6V375.4M1249 328.6H1301M1249 328.6V375.4M1301 328.6H1353M1301 328.6V375.4M1353 328.6H1405M1353 328.6V375.4M1405 328.6H1457M1405 328.6V375.4M1457 328.6H1509M1457 328.6V375.4M1509 328.6H1561M1509 328.6V375.4M1561 328.6H1613M1561 328.6V375.4M1613 328.6H1665M1613 328.6V375.4M1665 328.6H1717M1665 328.6V375.4M1717 328.6H1769M1717 328.6V375.4M1769 328.6V375.4M937 375.4H989M937 375.4V422.2M989 375.4H1041M989 375.4V422.2M1041 375.4H1093M1041 375.4V422.2M1093 375.4H1145M1093 375.4V422.2M1145 375.4H1197M1145 375.4V422.2M1197 375.4H1249M1197 375.4V422.2M1249 375.4H1301M1249 375.4V422.2M1301 375.4H1353M1301 375.4V422.2M1353 375.4H1405M1353 375.4V422.2M1405 375.4H1457M1405 375.4V422.2M1457 375.4H1509M1457 375.4V422.2M1509 375.4H1561M1509 375.4V422.2M1561 375.4H1613M1561 375.4V422.2M1613 375.4H1665M1613 375.4V422.2M1665 375.4H1717M1665 375.4V422.2M1717 375.4H1769M1717 375.4V422.2M1769 375.4V422.2M937 422.2H989M937 422.2V469M989 422.2H1041M989 422.2V469M1041 422.2H1093M1041 422.2V469M1093 422.2H1145M1093 422.2V469M1145 422.2H1197M1145 422.2V469M1197 422.2H1249M1197 422.2V469M1249 422.2H1301M1249 422.2V469M1301 422.2H1353M1301 422.2V469M1353 422.2H1405M1353 422.2V469M1405 422.2H1457M1405 422.2V469M1457 422.2H1509M1457 422.2V469M1509 422.2H1561M1509 422.2V469M1561 422.2H1613M1561 422.2V469M1613 422.2H1665M1613 422.2V469M1665 422.2H1717M1665 422.2V469M1717 422.2H1769M1717 422.2V469M1769 422.2V469M937 469H989M937 469V515.8M989 469H1041M989 469V515.8M1041 469H1093M1041 469V515.8M1093 469H1145M1093 469V515.8M1145 469H1197M1145 469V515.8M1197 469H1249M1197 469V515.8M1249 469H1301M1249 469V515.8M1301 469H1353M1301 469V515.8M1353 469H1405M1353 469V515.8M1405 469H1457M1405 469V515.8M1457 469H1509M1457 469V515.8M1509 469H1561M1509 469V515.8M1561 469H1613M1561 469V515.8M1613 469H1665M1613 469V515.8M1665 469H1717M1665 469V515.8M1717 469H1769M1717 469V515.8M1769 469V515.8M937 515.8H989M937 515.8V562.6M989 515.8H1041M989 515.8V562.6M1041 515.8H1093M1041 515.8V562.6M1093 515.8H1145M1093 515.8V562.6M1145 515.8H1197M1145 515.8V562.6M1197 515.8H1249M1197 515.8V562.6M1249 515.8H1301M1249 515.8V562.6M1301 515.8H1353M1301 515.8V562.6M1353 515.8H1405M1353 515.8V562.6M1405 515.8H1457M1405 515.8V562.6M1457 515.8H1509M1457 515.8V562.6M1509 515.8H1561M1509 515.8V562.6M1561 515.8H1613M1561 515.8V562.6M1613 515.8H1665M1613 515.8V562.6M1665 515.8H1717M1665 515.8V562.6M1717 515.8H1769M1717 515.8V562.6M1769 515.8V562.6H1717M937 562.6H989M989 562.6H1041M1041 562.6H1093M1093 562.6H1145M1145 562.6H1197M1197 562.6H1249M1249 562.6H1301M1301 562.6H1353M1353 562.6H1405M1405 562.6H1457M1457 562.6H1509M1509 562.6H1561M1561 562.6H1613M1613 562.6H1665M1665 562.6H1717M937 562.4V609.2M937 562.4H989M937 609.2H989M937 609.2V656M989 562.4V609.2M989 562.4H1041M989 609.2H1041M989 609.2V656M1041 562.4V609.2M1041 562.4H1093M1041 609.2H1093M1041 609.2V656M1093 562.4V609.2M1093 562.4H1145M1093 609.2H1145M1093 609.2V656M1145 562.4V609.2M1145 562.4H1197M1145 609.2H1197M1145 609.2V656M1197 562.4V609.2M1197 562.4H1249M1197 609.2H1249M1197 609.2V656M1249 562.4V609.2M1249 562.4H1301M1249 609.2H1301M1249 609.2V656M1301 562.4V609.2M1301 562.4H1353M1301 609.2H1353M1301 609.2V656M1353 562.4V609.2M1353 562.4H1405M1353 609.2H1405M1353 609.2V656M1405 562.4V609.2M1405 562.4H1457M1405 609.2H1457M1405 609.2V656M1457 562.4V609.2M1457 562.4H1509M1457 609.2H1509M1457 609.2V656M1509 562.4V609.2M1509 562.4H1561M1509 609.2H1561M1509 609.2V656M1561 562.4V609.2M1561 562.4H1613M1561 609.2H1613M1561 609.2V656M1613 562.4V609.2M1613 562.4H1665M1613 609.2H1665M1613 609.2V656M1665 562.4V609.2M1665 562.4H1717M1665 609.2H1717M1665 609.2V656M1717 562.4V609.2M1717 562.4H1769V609.2M1717 609.2H1769M1717 609.2V656M1769 609.2V656M937 656H989M937 656V702.8M989 656H1041M989 656V702.8M1041 656H1093M1041 656V702.8M1093 656H1145M1093 656V702.8M1145 656H1197M1145 656V702.8M1197 656H1249M1197 656V702.8M1249 656H1301M1249 656V702.8M1301 656H1353M1301 656V702.8M1353 656H1405M1353 656V702.8M1405 656H1457M1405 656V702.8M1457 656H1509M1457 656V702.8M1509 656H1561M1509 656V702.8M1561 656H1613M1561 656V702.8M1613 656H1665M1613 656V702.8M1665 656H1717M1665 656V702.8M1717 656H1769M1717 656V702.8M1769 656V702.8M937 702.8H989M937 702.8V749.6M989 702.8H1041M989 702.8V749.6M1041 702.8H1093M1041 702.8V749.6M1093 702.8H1145M1093 702.8V749.6M1145 702.8H1197M1145 702.8V749.6M1197 702.8H1249M1197 702.8V749.6M1249 702.8H1301M1249 702.8V749.6M1301 702.8H1353M1301 702.8V749.6M1353 702.8H1405M1353 702.8V749.6M1405 702.8H1457M1405 702.8V749.6M1457 702.8H1509M1457 702.8V749.6M1509 702.8H1561M1509 702.8V749.6M1561 702.8H1613M1561 702.8V749.6M1613 702.8H1665M1613 702.8V749.6M1665 702.8H1717M1665 702.8V749.6M1717 702.8H1769M1717 702.8V749.6M1769 702.8V749.6M937 749.6H989M937 749.6V796.4M989 749.6H1041M989 749.6V796.4M1041 749.6H1093M1041 749.6V796.4M1093 749.6H1145M1093 749.6V796.4M1145 749.6H1197M1145 749.6V796.4M1197 749.6H1249M1197 749.6V796.4M1249 749.6H1301M1249 749.6V796.4M1301 749.6H1353M1301 749.6V796.4M1353 749.6H1405M1353 749.6V796.4M1405 749.6H1457M1405 749.6V796.4M1457 749.6H1509M1457 749.6V796.4M1509 749.6H1561M1509 749.6V796.4M1561 749.6H1613M1561 749.6V796.4M1613 749.6H1665M1613 749.6V796.4M1665 749.6H1717M1665 749.6V796.4M1717 749.6H1769M1717 749.6V796.4M1769 749.6V796.4M937 796.4H989M937 796.4V843.2M989 796.4H1041M989 796.4V843.2M1041 796.4H1093M1041 796.4V843.2M1093 796.4H1145M1093 796.4V843.2M1145 796.4H1197M1145 796.4V843.2M1197 796.4H1249M1197 796.4V843.2M1249 796.4H1301M1249 796.4V843.2M1301 796.4H1353M1301 796.4V843.2M1353 796.4H1405M1353 796.4V843.2M1405 796.4H1457M1405 796.4V843.2M1457 796.4H1509M1457 796.4V843.2M1509 796.4H1561M1509 796.4V843.2M1561 796.4H1613M1561 796.4V843.2M1613 796.4H1665M1613 796.4V843.2M1665 796.4H1717M1665 796.4V843.2M1717 796.4H1769M1717 796.4V843.2M1769 796.4V843.2M937 843.2H989M937 843.2V890M989 843.2H1041M989 843.2V890M1041 843.2H1093M1041 843.2V890M1093 843.2H1145M1093 843.2V890M1145 843.2H1197M1145 843.2V890M1197 843.2H1249M1197 843.2V890M1249 843.2H1301M1249 843.2V890M1301 843.2H1353M1301 843.2V890M1353 843.2H1405M1353 843.2V890M1405 843.2H1457M1405 843.2V890M1457 843.2H1509M1457 843.2V890M1509 843.2H1561M1509 843.2V890M1561 843.2H1613M1561 843.2V890M1613 843.2H1665M1613 843.2V890M1665 843.2H1717M1665 843.2V890M1717 843.2H1769M1717 843.2V890M1769 843.2V890M937 890H989M937 890V936.8M989 890H1041M989 890V936.8M1041 890H1093M1041 890V936.8M1093 890H1145M1093 890V936.8M1145 890H1197M1145 890V936.8M1197 890H1249M1197 890V936.8M1249 890H1301M1249 890V936.8M1301 890H1353M1301 890V936.8M1353 890H1405M1353 890V936.8M1405 890H1457M1405 890V936.8M1457 890H1509M1457 890V936.8M1509 890H1561M1509 890V936.8M1561 890H1613M1561 890V936.8M1613 890H1665M1613 890V936.8M1665 890H1717M1665 890V936.8M1717 890H1769M1717 890V936.8M1769 890V936.8M937 936.8H989M937 936.8V983.6M989 936.8H1041M989 936.8V983.6M1041 936.8H1093M1041 936.8V983.6M1093 936.8H1145M1093 936.8V983.6M1145 936.8H1197M1145 936.8V983.6M1197 936.8H1249M1197 936.8V983.6M1249 936.8H1301M1249 936.8V983.6M1301 936.8H1353M1301 936.8V983.6M1353 936.8H1405M1353 936.8V983.6M1405 936.8H1457M1405 936.8V983.6M1457 936.8H1509M1457 936.8V983.6M1509 936.8H1561M1509 936.8V983.6M1561 936.8H1613M1561 936.8V983.6M1613 936.8H1665M1613 936.8V983.6M1665 936.8H1717M1665 936.8V983.6M1717 936.8H1769M1717 936.8V983.6M1769 936.8V983.6M937 983.6H989M937 983.6V1030.4M989 983.6H1041M989 983.6V1030.4M1041 983.6H1093M1041 983.6V1030.4M1093 983.6H1145M1093 983.6V1030.4M1145 983.6H1197M1145 983.6V1030.4M1197 983.6H1249M1197 983.6V1030.4M1249 983.6H1301M1249 983.6V1030.4M1301 983.6H1353M1301 983.6V1030.4M1353 983.6H1405M1353 983.6V1030.4M1405 983.6H1457M1405 983.6V1030.4M1457 983.6H1509M1457 983.6V1030.4M1509 983.6H1561M1509 983.6V1030.4M1561 983.6H1613M1561 983.6V1030.4M1613 983.6H1665M1613 983.6V1030.4M1665 983.6H1717M1665 983.6V1030.4M1717 983.6H1769M1717 983.6V1030.4M1769 983.6V1030.4M937 1030.4H989M937 1030.4V1077.2M989 1030.4H1041M989 1030.4V1077.2M1041 1030.4H1093M1041 1030.4V1077.2M1093 1030.4H1145M1093 1030.4V1077.2M1145 1030.4H1197M1145 1030.4V1077.2M1197 1030.4H1249M1197 1030.4V1077.2M1249 1030.4H1301M1249 1030.4V1077.2M1301 1030.4H1353M1301 1030.4V1077.2M1353 1030.4H1405M1353 1030.4V1077.2M1405 1030.4H1457M1405 1030.4V1077.2M1457 1030.4H1509M1457 1030.4V1077.2M1509 1030.4H1561M1509 1030.4V1077.2M1561 1030.4H1613M1561 1030.4V1077.2M1613 1030.4H1665M1613 1030.4V1077.2M1665 1030.4H1717M1665 1030.4V1077.2M1717 1030.4H1769M1717 1030.4V1077.2M1769 1030.4V1077.2M937 1077.2H989M937 1077.2V1124M989 1077.2H1041M989 1077.2V1124M1041 1077.2H1093M1041 1077.2V1124M1093 1077.2H1145M1093 1077.2V1124M1145 1077.2H1197M1145 1077.2V1124M1197 1077.2H1249M1197 1077.2V1124M1249 1077.2H1301M1249 1077.2V1124M1301 1077.2H1353M1301 1077.2V1124M1353 1077.2H1405M1353 1077.2V1124M1405 1077.2H1457M1405 1077.2V1124M1457 1077.2H1509M1457 1077.2V1124M1509 1077.2H1561M1509 1077.2V1124M1561 1077.2H1613M1561 1077.2V1124M1613 1077.2H1665M1613 1077.2V1124M1665 1077.2H1717M1665 1077.2V1124M1717 1077.2H1769M1717 1077.2V1124M1769 1077.2V1124H1717M937 1124H989M989 1124H1041M1041 1124H1093M1093 1124H1145M1145 1124H1197M1197 1124H1249M1249 1124H1301M1301 1124H1353M1353 1124H1405M1405 1124H1457M1457 1124H1509M1509 1124H1561M1561 1124H1613M1613 1124H1665M1665 1124H1717" stroke="url(#paint0_radial_232_6608)"/>
<defs>
<radialGradient id="paint0_radial_232_6608" cx="0" cy="0" r="1" gradientUnits="userSpaceOnUse" gradientTransform="translate(885 1.00003) rotate(90) scale(522 992.452)">
<stop stop-color="white" stop-opacity="0.1"/>
<stop offset="1" stop-color="white" stop-opacity="0"/>
</radialGradient>
</defs>
</svg>
