<svg width="17" height="16" viewBox="0 0 17 16" fill="none" xmlns="http://www.w3.org/2000/svg">
<path fill-rule="evenodd" clip-rule="evenodd" d="M15.9291 8.91426L13.9459 8.65557C13.9738 8.4419 13.9883 8.22314 13.9883 8C13.9883 7.77686 13.9738 7.5581 13.9459 7.34443L15.9291 7.08573C15.9682 7.38496 15.9883 7.69013 15.9883 8C15.9883 8.30987 15.9682 8.61504 15.9291 8.91426ZM15.4571 5.32049C15.2211 4.7514 14.9122 4.22019 14.5421 3.73851L12.9563 4.95716C13.2211 5.30185 13.4416 5.68119 13.6097 6.08659L15.4571 5.32049ZM13.2498 2.4462L12.0311 4.03204C11.6864 3.76716 11.3071 3.54673 10.9017 3.37862L11.6678 1.53116C12.2369 1.76715 12.7681 2.07605 13.2498 2.4462ZM9.90254 1.05917L9.64385 3.04237C9.43018 3.01449 9.21142 3 8.98828 3C8.76514 3 8.54638 3.01449 8.33271 3.04237L8.07402 1.05917C8.37324 1.02013 8.67841 1 8.98828 1C9.29815 1 9.60332 1.02013 9.90254 1.05917ZM6.30877 1.53116L7.07487 3.37862C6.66947 3.54673 6.29013 3.76716 5.94544 4.03204L4.72679 2.4462C5.20847 2.07605 5.73968 1.76715 6.30877 1.53116ZM3.43448 3.73851L5.02032 4.95716C4.75544 5.30185 4.53501 5.68119 4.3669 6.08659L2.51944 5.32049C2.75543 4.7514 3.06433 4.22019 3.43448 3.73851ZM2.04745 7.08574C2.00841 7.38496 1.98828 7.69013 1.98828 8C1.98828 8.30987 2.00841 8.61504 2.04745 8.91426L4.03065 8.65557C4.00277 8.4419 3.98828 8.22314 3.98828 8C3.98828 7.77686 4.00277 7.5581 4.03065 7.34443L2.04745 7.08574ZM2.51944 10.6795L4.3669 9.91341C4.53501 10.3188 4.75544 10.6981 5.02032 11.0428L3.43448 12.2615C3.06433 11.7798 2.75543 11.2486 2.51944 10.6795ZM4.72679 13.5538L5.94544 11.968C6.29013 12.2328 6.66947 12.4533 7.07487 12.6214L6.30877 14.4688C5.73968 14.2328 5.20847 13.9239 4.72679 13.5538ZM8.07402 14.9408L8.33271 12.9576C8.54638 12.9855 8.76514 13 8.98828 13C9.21142 13 9.43018 12.9855 9.64385 12.9576L9.90255 14.9408C9.60332 14.9799 9.29815 15 8.98828 15C8.67841 15 8.37324 14.9799 8.07402 14.9408ZM11.6678 14.4688L10.9017 12.6214C11.3071 12.4533 11.6864 12.2328 12.0311 11.968L13.2498 13.5538C12.7681 13.9239 12.2369 14.2328 11.6678 14.4688ZM14.5421 12.2615L12.9563 11.0428C13.2211 10.6981 13.4416 10.3188 13.6097 9.91341L15.4571 10.6795C15.2211 11.2486 14.9123 11.7798 14.5421 12.2615Z" fill="white"/>
</svg>
