<svg width="17" height="16" viewBox="0 0 17 16" fill="none" xmlns="http://www.w3.org/2000/svg">
<g clip-path="url(#clip0_146_7671)">
<path d="M12.9894 8.53316C12.9894 10.6371 11.2839 12.3427 9.17995 12.3427L9.17969 4.72363C11.2836 4.72363 12.9894 6.42921 12.9894 8.53316Z" fill="white"/>
<path fill-rule="evenodd" clip-rule="evenodd" d="M9.18151 14.4002C12.4216 14.4002 15.0482 11.7737 15.0482 8.53356C15.0482 5.29349 12.4216 2.66689 9.18151 2.66689C5.94144 2.66689 3.31484 5.29349 3.31484 8.53356C3.31484 11.7737 5.94144 14.4002 9.18151 14.4002ZM9.18151 16.0002C13.3052 16.0002 16.6482 12.6573 16.6482 8.53356C16.6482 4.40984 13.3052 1.06689 9.18151 1.06689C5.05779 1.06689 1.71484 4.40984 1.71484 8.53356C1.71484 12.6573 5.05779 16.0002 9.18151 16.0002Z" fill="white"/>
</g>
<defs>
<clipPath id="clip0_146_7671">
<rect width="16" height="16" fill="white" transform="translate(0.648438)"/>
</clipPath>
</defs>
</svg>
