<svg width="17" height="16" viewBox="0 0 17 16" fill="none" xmlns="http://www.w3.org/2000/svg">
<path fill-rule="evenodd" clip-rule="evenodd" d="M4.4118 5.58155C4.0931 5.55121 3.77168 5.59121 3.47066 5.69854C3.16966 5.80587 2.89681 5.97774 2.67144 6.20142C2.4461 6.42507 2.2738 6.69498 2.16644 6.99159C2.13459 7.07958 2.0987 7.29936 2.07623 7.57561C2.0526 7.86617 2.0526 8.13439 2.07623 8.42495C2.0987 8.7012 2.13459 8.92098 2.16644 9.00897C2.2738 9.30558 2.4461 9.57548 2.67144 9.79914C2.89681 10.0228 3.16966 10.1947 3.47066 10.302C3.77168 10.4093 4.0931 10.4493 4.4118 10.419C4.4388 10.4164 4.4659 10.4151 4.49303 10.4151C4.91917 10.4151 5.38332 10.1874 5.94528 9.63727C6.39287 9.19912 6.8257 8.63397 7.28437 8.00028C6.8257 7.36659 6.39287 6.80144 5.94528 6.36329C5.38332 5.81317 4.91917 5.58541 4.49303 5.58541C4.4659 5.58541 4.4388 5.58412 4.4118 5.58155ZM8.33918 9.45985C7.96332 9.96061 7.5655 10.4502 7.14448 10.8623C6.46187 11.5305 5.60028 12.1143 4.53464 12.1291C3.97932 12.1763 3.42002 12.104 2.89493 11.9167C2.35732 11.725 1.86855 11.4176 1.46383 11.0159C1.05908 10.6142 0.748408 10.1281 0.554501 9.59243C0.435718 9.26426 0.389539 8.83383 0.367588 8.5639C0.352374 8.37682 0.339497 8.18818 0.339851 8.00027C0.340204 7.81233 0.352364 7.62386 0.367588 7.43666C0.389539 7.16673 0.435719 6.7363 0.554501 6.40813C0.748408 5.87241 1.05908 5.3864 1.46383 4.98469C1.86855 4.58299 2.35732 4.27551 2.89493 4.08383C3.42002 3.8966 3.97932 3.82426 4.53464 3.87141C5.60028 3.88627 6.46187 4.47004 7.14448 5.13826C7.5655 5.5504 7.96331 6.03994 8.33918 6.54071C8.71505 6.03994 9.11287 5.5504 9.53388 5.13826C10.2165 4.47004 11.0781 3.88627 12.1437 3.87141C12.699 3.82426 13.2583 3.8966 13.7834 4.08383C14.321 4.27551 14.8098 4.58299 15.2145 4.98469C15.6193 5.3864 15.93 5.87241 16.1239 6.40813C16.2426 6.7363 16.2888 7.16673 16.3108 7.43666C16.326 7.62379 16.3385 7.81236 16.3388 8.00025C16.3391 8.18813 16.326 8.37685 16.3108 8.5639C16.2888 8.83383 16.2426 9.26426 16.1239 9.59243C15.93 10.1281 15.6193 10.6142 15.2145 11.0159C14.8098 11.4176 14.321 11.725 13.7834 11.9167C13.2583 12.104 12.699 12.1763 12.1437 12.1291C11.0781 12.1143 10.2165 11.5305 9.53388 10.8623C9.11287 10.4502 8.71505 9.96061 8.33918 9.45985ZM14.6021 8.42495C14.5797 8.7012 14.5438 8.92098 14.5119 9.00897C14.4046 9.30558 14.2323 9.57548 14.0069 9.79914C13.7816 10.0228 13.5087 10.1947 13.2077 10.302C12.9067 10.4093 12.5853 10.4493 12.2666 10.419C12.2396 10.4164 12.2125 10.4151 12.1853 10.4151C11.7592 10.4151 11.295 10.1874 10.7331 9.63727C10.2855 9.19912 9.85266 8.63397 9.394 8.00028C9.85266 7.36659 10.2855 6.80144 10.7331 6.36329C11.295 5.81317 11.7592 5.58541 12.1853 5.58541C12.2125 5.58541 12.2396 5.58412 12.2666 5.58155C12.5853 5.55121 12.9067 5.59121 13.2077 5.69854C13.5087 5.80587 13.7816 5.97774 14.0069 6.20142C14.2323 6.42507 14.4046 6.69498 14.5119 6.99159C14.5438 7.07958 14.5797 7.29936 14.6021 7.57561C14.6258 7.86617 14.6258 8.13439 14.6021 8.42495Z" fill="white"/>
</svg>
