<svg width="17" height="16" viewBox="0 0 17 16" fill="none" xmlns="http://www.w3.org/2000/svg">
<path fill-rule="evenodd" clip-rule="evenodd" d="M2.37395 0C1.42718 0 0.659668 0.767512 0.659668 1.71429V14.2857C0.659668 15.2325 1.42718 16 2.37395 16H5.2311C6.17787 16 6.94538 15.2325 6.94538 14.2857V1.71429C6.94538 0.767512 6.17787 0 5.2311 0H2.37395ZM9.22998 6.85714C8.5988 6.85714 8.08712 7.36882 8.08712 8C8.08712 8.63118 8.5988 9.14286 9.22998 9.14286H12.6586V10.8569C12.6586 11.088 12.7978 11.2963 13.0113 11.3848C13.2248 11.4732 13.4706 11.4244 13.634 11.2609L16.4912 8.40378C16.7143 8.18063 16.7143 7.81882 16.4912 7.59566L13.634 4.73852C13.4706 4.57509 13.2248 4.5262 13.0113 4.61465C12.7978 4.70309 12.6586 4.91146 12.6586 5.14258V6.85714H9.22998Z" fill="white"/>
</svg>
