<svg width="26" height="26" viewBox="0 0 26 26" fill="none" xmlns="http://www.w3.org/2000/svg">
<path fill-rule="evenodd" clip-rule="evenodd" d="M6.03181 8.09935C6.03181 5.16491 8.41064 2.78608 11.3451 2.78608C14.2795 2.78608 16.6583 5.16491 16.6583 8.09935C16.6583 8.5171 16.6104 8.92188 16.5203 9.30919C16.346 10.0584 16.8121 10.8071 17.5614 10.9814C18.3106 11.1557 19.0593 10.6896 19.2336 9.94033C19.3715 9.34757 19.4441 8.73106 19.4441 8.09935C19.4441 3.6264 15.818 0.000366211 11.3451 0.000366211C6.87213 0.000366211 3.24609 3.6264 3.24609 8.09935C3.24609 8.73106 3.31868 9.34757 3.45657 9.94033C3.63085 10.6896 4.37952 11.1557 5.12878 10.9814C5.87803 10.8071 6.34413 10.0584 6.16984 9.30919C6.07975 8.92188 6.03181 8.5171 6.03181 8.09935ZM9.06747 18.0073L9.06747 7.91058C9.06747 6.61887 10.1146 5.57172 11.4063 5.57172C12.698 5.57172 13.7452 6.61887 13.7452 7.91058L13.7452 15.482H18.3207C20.9598 15.482 23.0992 17.6214 23.0992 20.2605V24.1432C23.0992 25.1688 22.2677 26.0003 21.242 26.0003H8.97106C8.35977 26.0003 7.78762 25.6995 7.44111 25.1959L6.02226 23.1338C4.71671 21.2364 5.79405 18.6233 8.05748 18.1974L9.06747 18.0073Z" fill="white"/>
</svg>
