<svg width="17" height="16" viewBox="0 0 17 16" fill="none" xmlns="http://www.w3.org/2000/svg">
<path fill-rule="evenodd" clip-rule="evenodd" d="M12.3311 13.1438V4.5724H12.3366V4.56719V4.56097V4.55477V4.54859V4.54243V4.53629V4.53018V4.52408V4.51801V4.51196V4.50592V4.49991V4.49392V4.48795V4.482V4.47607V4.47016V4.46427V4.45841V4.45256V4.44673V4.44092V4.43513V4.42937V4.42362V4.41789V4.41218V4.40649V4.40082V4.39517V4.38954V4.38393V4.37834V4.37277V4.36721V4.36168V4.35616V4.35067V4.34519V4.33973V4.33429V4.32887V4.32347V4.31809V4.31272V4.30738V4.30205V4.29674V4.29145V4.28617V4.28092V4.27568V4.27046V4.26526V4.26008V4.25491V4.24976V4.24463V4.23952V4.23443V4.22935V4.22429V4.21925V4.21422V4.20921V4.20422V4.19925V4.19429V4.18935V4.18443V4.17952V4.17463V4.16976V4.1649V4.16006V4.15523V4.15043V4.14564V4.14086V4.1361V4.13136V4.12663V4.12192V4.11723V4.11255V4.10789V4.10324V4.09861V4.09399V4.08939V4.08481V4.08024V4.07568V4.07115V4.06662V4.06211V4.05762V4.05314V4.04868V4.04423V4.03979V4.03537V4.03097V4.02658V4.0222V4.01784V4.0135V4.00916V4.00484V4.00054V3.99625V3.99197V3.98771V3.98346V3.97923V3.97501V3.9708V3.96661V3.96243V3.95826V3.95411V3.94997V3.94585V3.94173V3.93763V3.93355V3.92948V3.92541V3.92137V3.91733V3.91331V3.9093V3.90531V3.90132V3.89735V3.89339V3.88944V3.88551V3.88159V3.87768V3.87378V3.86989V3.86602V3.86216V3.85831V3.85447V3.85064V3.84683V3.84303V3.83923V3.83545V3.83169V3.82793V3.82418V3.82045V3.81672V3.81301V3.80931V3.80561V3.80193V3.79826V3.79461V3.79096V3.78732V3.78369V3.78007V3.77647V3.77287V3.76929V3.76571V3.76214V3.75859V3.75504V3.75151V3.74798V3.74446V3.74096V3.73746V3.73397V3.7305V3.72703V3.72357V3.72012V3.71668V3.71325V3.70982V3.70641V3.70301V3.69961V3.69622V3.69285V3.68948V3.68612V3.68276V3.67942V3.67609V3.67276V3.66944V3.66613V3.66283V3.65953V3.65625V3.65297V3.6497V3.64644V3.64318V3.63994V3.6367V3.63347V3.63024V3.62702V3.62382V3.62061V3.61742V3.61423V3.61105V3.60788V3.60471V3.60155V3.5984V3.59525V3.59211V3.58898V3.58585V3.58273V3.57962V3.57651V3.57341V3.57031V3.56723V3.56414V3.56107V3.558V3.55493V3.55187V3.54882V3.54577V3.54273V3.5397V3.53666V3.53364V3.53062V3.5276V3.5246V3.52159V3.51859V3.5156V3.51261V3.50962V3.50664V3.50367V3.5007V3.49773V3.49477V3.49182V3.48886V3.48592V3.48297V3.48003V3.4771V3.47417V3.47124V3.46832V3.4654V3.46248V3.45957V3.45666V3.45376V3.45086V3.44796V3.44506V3.44217V3.43929V3.4364V3.43352V3.43064V3.42777V3.4249V3.42203V3.41916V3.4163V3.41343V3.41058V3.40772V3.40487V3.40202V3.39917V3.39632V3.39348V3.39063V3.38779V3.38496V3.38212V3.37929V3.37645V3.37362V3.37079V3.36797V3.36514V3.36232V3.35949V3.35667V3.35385V3.35103V3.34821V3.3454V3.34258V3.33977V3.33695V3.33414V3.33132V3.32851V3.3257V3.32289V3.32008V3.31727V3.31446V3.31165V3.30884V3.30603V3.30322V3.30041V3.2976V3.29479V3.29198V3.28917V3.28636V3.28355V3.28074V3.27793V3.27512V3.27231V3.26949V3.26668V3.26386V3.26105V3.25823V3.25541V3.25259V3.24977V3.24695V3.24412V3.2413V3.23847V3.23564V3.23282V3.22998V3.22715V3.22432V3.22148V3.21864V3.2158V3.21296V3.21011V3.20727V3.20442V3.20157V3.19871V3.19585V3.193V3.19013V3.18727V3.1844V3.18153V3.17866V3.17578V3.1729V3.17002V3.16714V3.16425V3.16136V3.15846V3.15556V3.15266V3.14976V3.14685V3.14394V3.14102V3.1381V3.13517V3.13225V3.12931V3.12638V3.12344V3.12049V3.11754V3.11459V3.11163V3.10867V3.1057V3.10273V3.09976V3.09678V3.09379C12.3366 2.48489 12.4972 1.86153 12.7604 1.46672C12.9793 1.13848 13.4227 1.04979 13.751 1.26861C14.0792 1.48743 14.1679 1.93091 13.9491 2.25915C13.9245 2.29607 13.875 2.39565 13.8325 2.55935C13.7917 2.71601 13.7652 2.90168 13.7652 3.09379V3.09678V3.09976V3.10273V3.1057V3.10867V3.11163V3.11459V3.11754V3.12049V3.12344V3.12638V3.12931V3.13225V3.13517V3.1381V3.14102V3.14394V3.14685V3.14976V3.15266V3.15556V3.15846V3.16136V3.16425V3.16714V3.17002V3.1729V3.17578V3.17866V3.18153V3.1844V3.18727V3.19013V3.193V3.19585V3.19871V3.20157V3.20442V3.20727V3.21011V3.21296V3.2158V3.21864V3.22148V3.22432V3.22715V3.22998V3.23282V3.23564V3.23847V3.2413V3.24412V3.24695V3.24977V3.25259V3.25541V3.25823V3.26105V3.26386V3.26668V3.26949V3.27231V3.27512V3.27793V3.28074V3.28355V3.28636V3.28917V3.29198V3.29479V3.2976V3.30041V3.30322V3.30603V3.30884V3.31165V3.31446V3.31727V3.32008V3.32289V3.3257V3.32851V3.33132V3.33414V3.33695V3.33977V3.34258V3.3454V3.34821V3.35103V3.35385V3.35667V3.35949V3.36232V3.36514V3.36797V3.37079V3.37362V3.37645V3.37929V3.38212V3.38496V3.38779V3.39063V3.39348V3.39632V3.39917V3.40202V3.40487V3.40772V3.41058V3.41343V3.4163V3.41916V3.42203V3.4249V3.42777V3.43064V3.43352V3.4364V3.43929V3.44217V3.44506V3.44796V3.45086V3.45376V3.45666V3.45957V3.46248V3.4654V3.46832V3.47124V3.47417V3.4771V3.48003V3.48297V3.48592V3.48886V3.49182V3.49477V3.49773V3.5007V3.50367V3.50664V3.50962V3.51261V3.5156V3.51859V3.52159V3.5246V3.5276V3.53062V3.53364V3.53666V3.5397V3.54273V3.54577V3.54882V3.55187V3.55493V3.558V3.56107V3.56414V3.56723V3.57031V3.57341V3.57651V3.57962V3.58273V3.58585V3.58898V3.59211V3.59525V3.5984V3.60155V3.60471V3.60788V3.61105V3.61423V3.61742V3.62061V3.62382V3.62702V3.63024V3.63347V3.6367V3.63994V3.64318V3.64644V3.6497V3.65297V3.65625V3.65953V3.66283V3.66613V3.66944V3.67276V3.67609V3.67942V3.68276V3.68612V3.68948V3.69285V3.69622V3.69961V3.70301V3.70641V3.70982V3.71325V3.71668V3.72012V3.72357V3.72703V3.7305V3.73397V3.73746V3.74096V3.74446V3.74798V3.75151V3.75504V3.75859V3.76214V3.76571V3.76929V3.77287V3.77647V3.78007V3.78369V3.78732V3.79096V3.79461V3.79826V3.80193V3.80561V3.80931V3.81301V3.81672V3.82045V3.82418V3.82793V3.83169V3.83545V3.83923V3.84303V3.84683V3.85064V3.85447V3.85831V3.86216V3.86602V3.86989V3.87378V3.87768V3.88159V3.88551V3.88944V3.89339V3.89735V3.90132V3.90531V3.9093V3.91331V3.91733V3.92137V3.92541V3.92948V3.93355V3.93763V3.94173V3.94585V3.94997V3.95411V3.95826V3.96243V3.96661V3.9708V3.97501V3.97923V3.98346V3.98771V3.99197V3.99625V4.00054V4.00484V4.00916V4.0135V4.01784V4.0222V4.02658V4.03097V4.03537V4.03979V4.04423V4.04868V4.05314V4.05762V4.06211V4.06662V4.07115V4.07568V4.08024V4.08481V4.08939V4.09399V4.09861V4.10324V4.10789V4.11255V4.11723V4.12192V4.12663V4.13136V4.1361V4.14086V4.14564V4.15043V4.15523V4.16006V4.1649V4.16976V4.17463V4.17952V4.18443V4.18935V4.19429V4.19925V4.20422V4.20921V4.21422V4.21925V4.22429V4.22935V4.23443V4.23952V4.24463V4.24976V4.25491V4.26008V4.26526V4.27046V4.27568V4.28092V4.28617V4.29145V4.29674V4.30205V4.30738V4.31272V4.31809V4.32347V4.32887V4.33429V4.33973V4.34519V4.35067V4.35616V4.36168V4.36721V4.37277V4.37834V4.38393V4.38954V4.39517V4.40082V4.40649V4.41218V4.41789V4.42362V4.42937V4.43513V4.44092V4.44673V4.45256V4.45841V4.46427V4.47016V4.47607V4.482V4.48795V4.49392V4.49991V4.50592V4.51196V4.51801V4.52408V4.53018V4.53629V4.54243V4.54859V4.55477V4.56097V4.56719V4.5724H15.1904C15.4935 4.5724 15.7842 4.452 15.9986 4.23767C16.2129 4.02334 16.3333 3.73265 16.3333 3.42955V2.57241C16.3333 1.89042 16.0624 1.23637 15.5801 0.754131C15.0979 0.271894 14.4438 0.000976562 13.7619 0.000976562H13.7603H13.7596H5.47391C4.71615 0.000976562 3.98942 0.301996 3.45361 0.837814C2.91779 1.37363 2.61677 2.10036 2.61677 2.85812V13.1438C2.61677 13.5985 2.43616 14.0345 2.11467 14.356C1.79317 14.6775 1.35714 14.8581 0.902483 14.8581C0.586892 14.8581 0.331055 15.114 0.331055 15.4295C0.331055 15.7451 0.586892 16.001 0.902483 16.001H9.47391C10.2317 16.001 10.9584 15.7 11.4942 15.1641C12.03 14.6283 12.3311 13.9016 12.3311 13.1438ZM6.2507 4.00063C6.2507 3.60614 6.57049 3.28634 6.96498 3.28634H9.17916C9.57365 3.28634 9.89345 3.60614 9.89345 4.00063C9.89345 4.39512 9.57365 4.71491 9.17916 4.71491H6.96498C6.57049 4.71491 6.2507 4.39512 6.2507 4.00063ZM5.48842 6.71505C5.09393 6.71505 4.77413 7.03485 4.77413 7.42934C4.77413 7.82383 5.09393 8.14362 5.48842 8.14362H9.17872C9.57321 8.14362 9.89301 7.82383 9.89301 7.42934C9.89301 7.03485 9.57321 6.71505 9.17872 6.71505H5.48842ZM4.77413 10.858C4.77413 10.4636 5.09393 10.1438 5.48842 10.1438H9.17872C9.57321 10.1438 9.89301 10.4636 9.89301 10.858C9.89301 11.2525 9.57321 11.5723 9.17872 11.5723H5.48842C5.09393 11.5723 4.77413 11.2525 4.77413 10.858Z" fill="white"/>
</svg>
