<svg width="17" height="16" viewBox="0 0 17 16" fill="none" xmlns="http://www.w3.org/2000/svg">
<path fill-rule="evenodd" clip-rule="evenodd" d="M14.2027 0.976568L14.8123 0.976563C15.8437 0.976553 16.6798 1.81268 16.6798 2.8441C16.6798 3.22017 16.5687 3.57028 16.3774 3.86336C16.6917 4.21229 16.883 4.6742 16.883 5.18079L16.883 5.38398C16.883 6.4715 16.0014 7.35311 14.9139 7.35312L14.1011 7.35312C13.2426 7.35312 12.5142 6.80409 12.2442 6.04028C12.1062 5.64974 12.3109 5.22125 12.7014 5.08322C13.092 4.94519 13.5205 5.14989 13.6585 5.54042C13.7233 5.72365 13.898 5.85312 14.1011 5.85312L14.9139 5.85312C15.173 5.85312 15.383 5.64308 15.383 5.38398L15.383 5.18079C15.383 4.92169 15.173 4.71165 14.9139 4.71165C14.9007 4.71165 14.8875 4.71131 14.8745 4.71063C14.8538 4.71131 14.8331 4.71165 14.8123 4.71165H14.8123L14.7107 4.71165C14.2965 4.71165 13.9607 4.37587 13.9607 3.96166C13.9607 3.54744 14.2965 3.21165 14.7107 3.21165L14.8123 3.21165H14.8123C15.0153 3.21165 15.1798 3.04709 15.1798 2.8441C15.1798 2.64112 15.0153 2.47656 14.8123 2.47656L14.2027 2.47657C14.0356 2.47657 13.8927 2.58878 13.8489 2.74345C13.7362 3.14202 13.3217 3.37374 12.9231 3.26101C12.5246 3.14827 12.2928 2.73377 12.4056 2.3352C12.6272 1.55174 13.3468 0.976576 14.2027 0.976568ZM4.21039 1.47268C4.10634 1.18342 3.82955 0.976571 3.50446 0.976571C3.09024 0.976571 2.75446 1.31236 2.75446 1.72657C2.75446 1.98567 2.54442 2.19571 2.28532 2.19571L1.87894 2.19571C1.46473 2.19571 1.12894 2.53149 1.12894 2.94571C1.12894 3.35992 1.46473 3.69571 1.87894 3.69571H2.28532C2.44699 3.69571 2.60411 3.67622 2.75445 3.63948L2.75445 5.85312H1.87891C1.46469 5.85312 1.12891 6.1889 1.12891 6.60312C1.12891 7.01733 1.46469 7.35312 1.87891 7.35312H3.50236L3.50445 7.35312L3.50655 7.35312H5.12994C5.54415 7.35312 5.87994 7.01733 5.87994 6.60312C5.87994 6.1889 5.54415 5.85312 5.12994 5.85312H4.25445L4.25446 1.72658C4.25446 1.63746 4.23891 1.55197 4.21039 1.47268ZM8.58379 0.976571C7.72525 0.976571 6.99686 1.5256 6.7269 2.28939C6.58886 2.67993 6.79356 3.10842 7.18409 3.24646C7.57463 3.38449 8.00312 3.1798 8.14116 2.78926C8.20592 2.60604 8.3807 2.47657 8.58379 2.47657H9.42818C9.66981 2.47657 9.86569 2.67245 9.86569 2.91408C9.86569 3.0879 9.76279 3.24524 9.60354 3.31491L7.79453 4.10635C7.07779 4.41992 6.61466 5.12806 6.61466 5.91039V6.60311C6.61466 7.01733 6.95044 7.35311 7.36466 7.35311H10.6157C11.0299 7.35311 11.3657 7.01733 11.3657 6.60311C11.3657 6.1889 11.0299 5.85311 10.6157 5.85311H8.11815C8.13817 5.69006 8.24269 5.54755 8.39575 5.48059L10.2048 4.68914C10.91 4.38061 11.3657 3.68385 11.3657 2.91408C11.3657 1.84402 10.4982 0.976571 9.42818 0.976571H8.58379ZM13.3486 9.43639C13.6289 9.3203 13.9515 9.38447 14.166 9.59897L16.6634 12.0963C16.9562 12.3892 16.9562 12.8641 16.6634 13.157L14.166 15.6544C13.9515 15.8689 13.6289 15.933 13.3486 15.8169C13.0684 15.7009 12.8857 15.4274 12.8857 15.124V13.6267L2.13302 13.6267C1.58074 13.6267 1.13302 13.179 1.13302 12.6267C1.13302 12.0744 1.58074 11.6267 2.13302 11.6267L12.8857 11.6267V10.1293C12.8857 9.82595 13.0684 9.55247 13.3486 9.43639Z" fill="white"/>
</svg>
