<svg width="17" height="16" viewBox="0 0 17 16" fill="none" xmlns="http://www.w3.org/2000/svg">
<path fill-rule="evenodd" clip-rule="evenodd" d="M2.36516 0.000976562C1.91051 0.000976562 1.47447 0.181588 1.15298 0.503079C0.831491 0.82457 0.650879 1.26061 0.650879 1.71526V12.001C0.650879 12.4556 0.831491 12.8917 1.15298 13.2132C1.47447 13.5346 1.91051 13.7153 2.36516 13.7153H6.2662L9.84797 7.44716C10.566 6.19065 12.179 5.9623 13.2223 6.76212V4.00098C13.2223 3.84942 13.1621 3.70408 13.0549 3.59692L9.62637 0.168344C9.51921 0.0611805 9.37386 0.000976562 9.22231 0.000976562H2.36516ZM10.8405 8.01456C11.2793 7.24678 12.3863 7.24677 12.8251 8.01456L16.4118 14.2914C16.8472 15.0533 16.2971 16.0013 15.4196 16.0013H8.24604C7.36853 16.0013 6.8184 15.0533 7.25377 14.2914L10.8405 8.01456ZM11.835 15.001C12.2295 15.001 12.5493 14.6812 12.5493 14.2867C12.5493 13.8922 12.2295 13.5724 11.835 13.5724C11.4405 13.5724 11.1207 13.8922 11.1207 14.2867C11.1207 14.6812 11.4405 15.001 11.835 15.001ZM11.8395 10.1438C12.234 10.1438 12.5538 10.4636 12.5538 10.8581V12.0009C12.5538 12.3954 12.234 12.7152 11.8395 12.7152C11.445 12.7152 11.1252 12.3954 11.1252 12.0009V10.8581C11.1252 10.4636 11.445 10.1438 11.8395 10.1438Z" fill="white"/>
</svg>
