<svg width="11" height="10" viewBox="0 0 11 10" fill="none" xmlns="http://www.w3.org/2000/svg">
<path d="M10.6309 4.99984C10.6309 5.1597 10.5651 5.30076 10.4335 5.42301L6.79414 9.05528C6.67188 9.17283 6.53318 9.23161 6.37801 9.23161C6.22285 9.23161 6.09119 9.17989 5.98305 9.07644C5.8796 8.973 5.82788 8.84134 5.82788 8.68148C5.82788 8.60625 5.83964 8.53337 5.86315 8.46284C5.89136 8.39231 5.93132 8.33353 5.98305 8.28651L6.95635 7.27794L9.34025 5.13384L9.4672 5.43712L7.59112 5.57113H0.933133C0.763862 5.57113 0.627505 5.51705 0.524061 5.40891C0.420618 5.30076 0.368896 5.16441 0.368896 4.99984C0.368896 4.83527 0.420618 4.69891 0.524061 4.59077C0.627505 4.48262 0.763862 4.42855 0.933133 4.42855H7.59112L9.4672 4.56255L9.34025 4.87288L6.95635 2.72173L5.98305 1.71316C5.93132 1.66614 5.89136 1.60737 5.86315 1.53684C5.83964 1.46631 5.82788 1.39343 5.82788 1.3182C5.82788 1.15833 5.8796 1.02667 5.98305 0.923231C6.09119 0.819788 6.22285 0.768066 6.37801 0.768066C6.53318 0.768066 6.67188 0.826841 6.79414 0.94439L10.4335 4.57666C10.5651 4.69891 10.6309 4.83997 10.6309 4.99984Z" fill="white"/>
</svg>
